/* XPM */
static char *result[] = {
/* columns rows colors chars-per-pixel */
"32 32 7 1 ",
"  c #181425",
". c #262B44",
"X c #000077",
"o c #005599",
"O c #009999",
"+ c #000000",
"@ c #FFFFFF",
/* pixels */
"  ............      ............",
"  ............      ............",
"..  ........  ....  ............",
"..  ........  ....  ............",
"....  ....  ........  ..........",
"....  ....  ........  ..........",
"......    ............  ........",
"......    ............  ........",
"......  ................  ......",
"......  ...XXXXXXX......  ......",
"....    ..XoOOOOOOX.......  ....",
"....    .XoOOOXXXXOX......  ....",
"        XoOOOX++++XOX.....      ",
"       XooOOX++++++XOX....      ",
"..    XoooOOX++++++XOX....    ..",
"..    XooooOX+@+++@XOX....    ..",
"....   XXXoOX+@+++@XOX....  ....",
"....     XoOX++++++XoX....  ....",
"....  ...XooOX+++++XoX..  ......",
"....  ....XoooX+++XoX...  ......",
"..  ......XXXooXXXoX..  ........",
"..  ......XoooOOOOOoX.  ........",
"  .......XoOOOOOOOOOX ..........",
"  .......XoOOOOOOOOOoX..........",
".........XOOOOOOOOOOOX........  ",
".........XOOOOOOOOOOOX........  ",
"........XoOOOOOOoOOOOX  ....    ",
"........XoOOOOooXoOoOOX ....    ",
".......XoOOOoOooXooOOooX        ",
".......XOoOooooX+XoooooX        ",
"......XooooXooX++XooooooX.....  ",
"......XXXXXXXXX+++XXXXXXX.....  "
};
