/* XPM */
static char *_7768db9549e4e0cbc128273056cdacbPLbv1EsHLXGPj8Lg[] = {
/* columns rows colors chars-per-pixel */
"32 32 7 1 ",
"  c black",
". c gray5",
"X c #181425",
"o c #302427",
"O c #50363C",
"+ c #262B44",
"@ c #7B574C",
/* pixels */
"                                ",
"                                ",
"                                ",
"                                ",
"    XX++++XX        XX++++++    ",
"    XX++++XX        XX++++++    ",
"    ++XXXX++        ++XX++++    ",
"    ++XXXX++        ++XX++++    ",
"    ++XX@@@@++++++++@@@@XX++    ",
"    ++XX@@@@++++++++@@@@XX++    ",
"    XXXX@@@@++++++++@@@@++XX    ",
"    XXXX@@@@++++++++@@@@++XX    ",
"    XXXXOOOO@@@@@@@@OOOO++XX    ",
"    XXXXOOOO@@@@@@@@OOOO++XX    ",
"    XXXXOOOO@@@@@@@@OOOO++XX    ",
"    XXXXOOOO@@@@@@@@OOOO++XX    ",
"++++XXXXOOOO........OOOO++XX++++",
"++++XXXXOOOO........OOOO++XX++++",
"++++XX++OOOO........OOOOXX++++++",
"++++XX++OOOO........OOOOXX++++++",
"++XX....ooooOOOOOOOOoooo....++++",
"++XX....ooooOOOOOOOOoooo....++++",
"XX++....ooooOOOOOOOOoooo....++++",
"XX++....ooooOOOOOOOOoooo....++++",
"++++....oooo........oooo....++XX",
"++++....oooo........oooo....++XX",
"++++....oooo........oooo....XXXX",
"++++....oooo........oooo....XXXX",
"++++++++++++++++++XXXXXXXXXXXXXX",
"++++++++++++++++++XXXXXXXXXXXXXX",
"++++++++++++++++XXXXXX++++++++XX",
"++++++++++++++++XXXXXX++++++++XX"
};
