/* XPM */
static char *result[] = {
/* columns rows colors chars-per-pixel */
"32 32 6 1 ",
"  c #181425",
". c #40243A",
"X c #262B44",
"o c #A67677",
"O c #D1A7A4",
"+ c #EFCFC6",
/* pixels */
"  XXXXXXXXXXXX      XXXXXXXXXXXX",
"  XXXXXXXXXXXX      XXXXXXXXXXXX",
"XX  XXXXXXXX  XXXX  XXXXXXXXXXXX",
"XX  XXXXXXXX  XXXX  XXXXXXXXXXXX",
"XXXX  XXXX  XXXXXXXX  XXXXXXXXXX",
"XXXX  XXXX  XXXXXXXX  XXXXXXXXXX",
"XXXXXX    XXXXXXXXXXXX  XXXXXXXX",
"XXXXXX    XXXXXXXXXXXX  XXXXXXXX",
"XXXXXX  XXXXXXXXXXXXXXXX  XXXXXX",
"XXXXXX  XXXXXXXXXXXXXXXX  XXXXXX",
"XXXX    XXXXXXXXXXXXXXXXXX  XXXX",
"XXXX    XX...........XXXXX  XXXX",
"        XX...........XXXXX      ",
"        X.OO++++OOOOO.XXXX      ",
"XX       .++++++++OOOO..XX    XX",
"XX       .++++++++OOOO..XX    XX",
"XXXX     .++++++++OOOO..XX  XXXX",
"XXXX     .++++++++OOOO..XX  XXXX",
"XXXX  XXX...+++...OOOO..  XXXXXX",
"XXXX  XXX...+++...OOOO..  XXXXXX",
"XX  XXXXX...+++...OOOO..XXXXXXXX",
"XX  XXXXX.++++++OOOOO.  XXXXXXXX",
"  XXXXXXX.OO+oo+oo... XXXXXXXXXX",
"  XXXXXXX.OO+oo+oo... XXXXXXXXXX",
"XXXXXXXXX.ooooooOOO.. XXXXXXXX  ",
"XXXXXXX..o++OOOO+++++.XXXXXXXX  ",
"XXXXXXX..o++OOOO+++++.  XXXX    ",
"XXXXXXX..o..++++OO.OOO..XXXX    ",
"XXXXXXX..o..++++OO.OOO..        ",
"XXXXXXXXX...o...++....          ",
"XXXXXXXXX.ooo...+++.. XXXXXXXX  ",
"XXXXXXXXX.ooo...+++.. XXXXXXXX  "
};
