/* XPM */
static char *result[] = {
/* columns rows colors chars-per-pixel */
"32 32 7 1 ",
"  c #181425",
". c #262B44",
"X c #40243A",
"o c #D1A7A4",
"O c #EFCFC6",
"+ c #A67677",
"@ c white",
/* pixels */
"  ............      ............",
"  ............      ............",
"..  ........  ....  ............",
"..  ........  ....  ............",
"....  ....  ........  ..........",
"....  ....  ........  ..........",
"......    ............  ........",
"......    ............  ........",
"......  ................  ......",
"......  ................  ......",
"....    ..XXXXXXXXXXX.....  ....",
"....    ..XXXXXXXXXXX.....  ....",
"        .XooOOOOoooooX....      ",
"        .XOOOOOOOOooooXX..      ",
"..       XOOOOOOOOooooXX..    ..",
"..       XOOOOOOOOooooXX..    ..",
"....     XXXOOOXXXooooXX..  ....",
"....     XXXOOOXXXooooXX..  ....",
"....  ...XXXOOOXXXooooXX  ......",
"....  ...XOOOOOOoooooX..  ......",
"..  .....XOOOOOOoooooX  ........",
"..  .....XooO++O++XXX.  ........",
"  .......XooO++O++XXX ..........",
"  .......X++++++OOOXX ..........",
".......XX+ooOOOOoooOOX........  ",
".......XX+OOooooOOXoooXX......  ",
".......XX+OOooooOOXoooXX....    ",
".........XXXOOOOooXXXX  ....    ",
".........XXXOOOOooXXXX          ",
"..........XX+XXXOOX             ",
".........X+++XXXOOOXX ........  ",
".........X+++XXXOOOXX ........  "
};
