/* XPM */
static char *result[] = {
/* columns rows colors chars-per-pixel */
"32 32 7 1 ",
"  c #181425",
". c #262B44",
"X c #40243A",
"o c #D1A7A4",
"O c #EFCFC6",
"+ c #A67677",
"@ c white",
/* pixels */
"  ............      ............",
"  ............      ............",
"..  ........  ....  ............",
"..  ........  ....  ............",
"....  ....  ........  ..........",
"....  ....  ........  ..........",
"......    ............  ........",
"......    ............  ........",
"......  ................  ......",
"......  ................  ......",
"....    ...XXXXXXXXXXX....  ....",
"....    ...XXXXXXXXXXX....  ....",
"        ..XoooooOOOOooX...      ",
"        XXooooOOOOOOOOX...      ",
"..      XXooooOOOOOOOOX...    ..",
"..      XXooooOOOOOOOOX...    ..",
"....    XXooooXXXOOOXXX...  ....",
"....    XXooooXXXOOOXXX...  ....",
"....  ..XXooooXXXOOOXXX.  ......",
"....  ....XoooooOOOOOOX.  ......",
"..  ......XoooooOOOOOOX ........",
"..  .......XXX++O++OooX ........",
"  .........XXX++O++OooX.........",
"  .........XXOOO++++++X.........",
"..........XOOoooOOOOoo+XX.....  ",
"........XXoooXOOooooOO+XX.....  ",
"........XXoooXOOooooOO+XX...    ",
"..........XXXXooOOOOXXX ....    ",
"..........XXXXooOOOOXXX         ",
".............XOOXXX+XX          ",
"...........XXOOOXXX+++X.......  ",
"...........XXOOOXXX+++X.......  "
};
