/* XPM */
static char *result[] = {
/* columns rows colors chars-per-pixel */
"32 32 6 1 ",
"  c #181425",
". c #40243A",
"X c #262B44",
"o c #A67677",
"O c #D1A7A4",
"+ c #EFCFC6",
/* pixels */
"  XXXXXXXXXXXX      XXXXXXXXXXXX",
"  XXXXXXXXXXXX      XXXXXXXXXXXX",
"XX  XXXXXXXX  XXXX  XXXXXXXXXXXX",
"XX  XXXXXXXX  XXXX  XXXXXXXXXXXX",
"XXXX  XXXX  XXXXXXXX  XXXXXXXXXX",
"XXXX  XXXX  XXXXXXXX  XXXXXXXXXX",
"XXXXXX    XXXXXXXXXXXX  XXXXXXXX",
"XXXXXX    XXXXXXXXXXXX  XXXXXXXX",
"XXXXXX  XXXXXXXXXXXXXXXX  XXXXXX",
"XXXXXX  XXXXXXXXXXXXXXXX  XXXXXX",
"XXXX    XXXXXXXXXXXXXXXXXX  XXXX",
"XXXX    XXX...........XXXX  XXXX",
"        XXX...........XXXX      ",
"        XX.OOOOO++++OO.XXX      ",
"XX      ..OOOO++++++++.XXX    XX",
"XX      ..OOOO++++++++.XXX    XX",
"XXXX    ..OOOO++++++++.XXX  XXXX",
"XXXX    ..OOOO++++++++.XXX  XXXX",
"XXXX  XX..OOOO...+++...X  XXXXXX",
"XXXX  XX..OOOO...+++...X  XXXXXX",
"XX  XXXX..OOOO...+++... XXXXXXXX",
"XX  XXXXXX.OOOOO++++++. XXXXXXXX",
"  XXXXXXXXX...oo+oo+OO.XXXXXXXXX",
"  XXXXXXXXX...oo+oo+OO.XXXXXXXXX",
"XXXXXXXXXXX..OOOoooooo.XXXXXXX  ",
"XXXXXXXXXX.+++++OOOO++o..XXXXX  ",
"XXXXXXXXXX.+++++OOOO++o..XXX    ",
"XXXXXXXX..OOO.OO++++..o..XXX    ",
"XXXXXXXX..OOO.OO++++..o..       ",
"XXXXXXXXXX....++...o...         ",
"XXXXXXXXXXX..+++...ooo.XXXXXXX  ",
"XXXXXXXXXXX..+++...ooo.XXXXXXX  "
};
