/* XPM */
static char *result[] = {
/* columns rows colors chars-per-pixel */
"32 32 37 1 ",
"  c #292F44",
". c #292F45",
"X c #2A2F44",
"o c #2A2F45",
"O c #576985",
"+ c #576A85",
"@ c #576986",
"# c #576A86",
"$ c #586985",
"% c #586A85",
"& c #586986",
"* c #586A86",
"= c #5A6988",
"- c #8599B1",
"; c #8799B1",
": c #859AB1",
"> c #869AB1",
", c #8599B2",
"< c #8699B2",
"1 c #859AB2",
"2 c #869AB2",
"3 c #8B9BB4",
"4 c #BCC9DA",
"5 c #BCC9DB",
"6 c #BEC9DA",
"7 c #BEC9DB",
"8 c #BCCADA",
"9 c #BCCADB",
"0 c #BDCADB",
"q c #BECADA",
"w c #C0CBDC",
"e c #E8E3DF",
"r c #E9E3DF",
"t c #E8E3E0",
"y c #E9E3E0",
"u c #E8E4E0",
"i c #E9E4E0",
/* pixels */
"teiirirutiyuiuretuurrereyuueuuur",
"iiuiuuiiuieiiiyieytyttrryeiyuiee",
"ieyiuyiuiuruuruiyiq6q8uyryiiuruu",
"riqq60qqytyiiiitet8q99iuru0660ii",
"tu450467iyutiiruyu<<1<eier4045ue",
"96,2;<65iure899549<,2<4860099605",
"65::--q9rrut557584<1:-0598996q97",
"12><;2,,qq46-;7q60,-<-8987:-,,;:",
",12,1:-;0059,-q669#%*@2,>1:>,2,2",
":-#O#+%@1:;<O%>;21%  #>2>2#%+%--",
"%&@.  .%<;,;O#:;,-*. @-122$ o%+$",
"X..X Xo#<1:2#%%*%$$X.#:<22%o ...",
"o o.X.o%%O&+&$X.X.Xoo@$O#&OoX.X.",
"......X.Xooo.oX.X .o  oXoXX .oXX",
".................o.X .ooXooX....",
"................................",
"................................",
"................................",
"................................",
"....==....................==....",
"....==....................==....",
"..==33..=====......=====..33==..",
"..==33==3333=......=3333==33==..",
"==3333==3333=......=3333==3333==",
"ii3333==3333=......=3333==3333ii",
"ii33ww33ww3=........=3ww33ww33ii",
"iiiiww33ww3=........=3ww33wwiiii",
"iiiiiiwwww3=........=3wwwwiiiiii",
"iiiiiiwwww3=........=3wwwwiiiiii",
"iiiiiiiiiw33=......=33wiiiiiiiii",
"iiiiiiiiiw33=......=33wiiiiiiiii",
"iiiiiiiiiw33=......=33wiiiiiiiii"
};
