/* XPM */
static char *result[] = {
/* columns rows colors chars-per-pixel */
"32 32 37 1 ",
"  c #292F44",
". c #292F45",
"X c #2A2F44",
"o c #2A2F45",
"O c #576985",
"+ c #576A85",
"@ c #576986",
"# c #576A86",
"$ c #586985",
"% c #586A85",
"& c #586986",
"* c #586A86",
"= c #5A6988",
"- c #8599B1",
"; c #8799B1",
": c #859AB1",
"> c #869AB1",
", c #8599B2",
"< c #8699B2",
"1 c #859AB2",
"2 c #869AB2",
"3 c #8B9BB4",
"4 c #BCC9DA",
"5 c #BCC9DB",
"6 c #BEC9DA",
"7 c #BEC9DB",
"8 c #BCCADA",
"9 c #BCCADB",
"0 c #BDCADB",
"q c #BECADA",
"w c #C0CBDC",
"e c #E8E3DF",
"r c #E9E3DF",
"t c #E8E3E0",
"y c #E9E3E0",
"u c #E8E4E0",
"i c #E9E4E0",
/* pixels */
"reuie57:2-$..X.........=iiiiiiii",
"ueuiu09;,-+.XX.........=iiiiiiii",
"uir056q,2%%..o.......==333iiiiii",
"uuu6496,,+o X........==333iiiiii",
"eyi6099->% oo X....==3333wwiiiii",
"uii0409::#$%OXo....==3333wwiiiii",
"ueyur0871222&Xo.......===33wwiii",
"yyrre698>>22#oX.......===33wwiii",
"eryui859,21<OXo......=333wwwwiii",
"rruie4082>-:$oo......=333wwwwwww",
"et89<<--@#@#@ .......=3333333333",
"rtq912:<*  .o  ......=333====333",
"ry6q<,1-% .XooX......====....===",
"utq8<<<,#%*$X...................",
"uyitu94091-$. o.................",
"teyey48662,%XX..................",
"eiitu55q6;;*....................",
"ryuir977q>:%XX..................",
"uirii95;-%#%$o..................",
"iiuii85-,OO#&........====....===",
"uiuitet69<;2+o.......=333====333",
"yeryuru45;,:&o.......=3333333333",
"iiutyurq0:;1Oo.......=333wwwwwww",
"tuiyiirq01<<%X.......=333wwwwiii",
"uiuq759,;@%#%.........===33wwiii",
"riiq66q,-%.ooX........===33wwiii",
"iuy04<-2:+ X.......==3333wwiiiii",
"ruu60;-;1#  X......==3333wwiiiii",
"iiiq52:<,O.X.........==333iiiiii",
"iuyq4,:>2#@.o........==333iiiiii",
"eieiu6521-&. ..........=iiiiiiii",
"tiirt961,:%Xo..........=iiiiiiii"
};
