/* XPM */
static char *result[] = {
/* columns rows colors chars-per-pixel */
"32 32 96 2 ",
"   c #160E1E",
".  c #160F1F",
"X  c #170F1F",
"o  c #190E1E",
"O  c #170E20",
"+  c #160E21",
"@  c #170E21",
"#  c #170E22",
"$  c #160F22",
"%  c #170E23",
"&  c #190F21",
"*  c #190F24",
"=  c #161020",
"-  c #171020",
";  c #171120",
":  c #161021",
">  c #171021",
",  c #161121",
"<  c #171121",
"1  c #171220",
"2  c #161221",
"3  c #171321",
"4  c #161022",
"5  c #171022",
"6  c #161122",
"7  c #171122",
"8  c #161023",
"9  c #171023",
"0  c #161123",
"q  c #171123",
"w  c #161222",
"e  c #171222",
"r  c #161322",
"t  c #171322",
"y  c #161223",
"u  c #171223",
"i  c #161323",
"p  c #171323",
"a  c #161422",
"s  c #161522",
"d  c #161423",
"f  c #171423",
"g  c #171523",
"h  c #171125",
"j  c #161224",
"k  c #171224",
"l  c #161324",
"z  c #171324",
"x  c #171225",
"c  c #161325",
"v  c #171325",
"b  c #161424",
"n  c #171424",
"m  c #161524",
"M  c #171524",
"N  c #161425",
"B  c #171425",
"V  c #161525",
"C  c #171525",
"Z  c #191020",
"A  c #181120",
"S  c #191022",
"D  c #181122",
"F  c #181023",
"G  c #181123",
"H  c #191123",
"J  c #181222",
"K  c #191222",
"L  c #181322",
"P  c #191322",
"I  c #181223",
"U  c #191223",
"Y  c #181323",
"T  c #191323",
"R  c #181422",
"E  c #191422",
"W  c #181423",
"Q  c #191423",
"!  c #181523",
"~  c #191523",
"^  c #181224",
"/  c #191224",
"(  c #181324",
")  c #191324",
"_  c #181225",
"`  c #191225",
"'  c #181325",
"]  c #191325",
"[  c #181424",
"{  c #191424",
"}  c #181524",
"|  c #191524",
" . c #181425",
".. c #191425",
"X. c #181525",
"o. c #191525",
/* pixels */
" .[ ] | | [ f ( { ^ v X.f .. .X.o.[ ..} | u } o.} { X.z o...{ { ",
"..| z ..` ..} / l { | ..{ { X.v | ..d { ( R | ^ ! p [ J | o.x  .",
"| } ` { [ [ ( C u ..Y I } $ ..X.p [ ....X.Y [  .E u o.T { } Q o.",
"| `  .X.[ | ' X. ... .p ^ ' | 9 e | ^ ..^ M .. .( U  .) o.^ [ e ",
" .[ } { | {  ...o.o...o.I I E [ p } X.[  .K ..o.{ g J o.} ^ ` P ",
"X.|  ...{ X.h ` .. .o.../ ) e Y  ._ { V J o.o...{ | ' { } o.I | ",
" .o. .{ z ( ..| { X.} d { ' | ^ o.} ..[ [ T .. .[ ( { ..{ o.( | ",
"( {  .t T [ J ( J ( [  .o.( o.B [ { o.P o.Y ....n * ..| { P ..| ",
"} { P _ h o.L  ./ W o.K 7 | ) ) / [ X.o.| ` I ^ X.| ' ) o.N | } ",
" .o.J ^ / o.o.` L J y | ^ { T ..! ' [ ..7 o.r L { ' ( i I P L ..",
"{ p a { J X.{ z > 8 : I J ^ D = U J ( r 0 ^ ....{  .{ ..I Y L | ",
"} ..] X...{ | o.| q q o.> 3 d 8 _ 2 & / T Y , ..o. .{ U [ n }  .",
"} ) { f ....P  .U K : X. .Y Y ; - > - A   U ..{ o. .[ ) T X.[ | ",
"[ o.' X.L ) X.I d 6 4 ( Y ( H : < # X ` _ ` X.I L _ [ ..` } X. .",
"....Y _ { } ..I ~ { J ^ [ | X.6 + . y T I A F i | k X.U Y { | o.",
"} u , ) J K p u p I ] { X. .T L U % J } | I _ 0 ( X.] T z } X.X.",
"L { K )  .K u I T ) v ' { ....J Y U X...Y X.u t 6 ^ E | [ [ X...",
"{ P I ` o.{ I T 8 Z X.o.{ o.X...7 | ..{ | P } P o.0 c U J [ X.y ",
"o...} .. .|  .5 ) o U | } [ } T ..o.w W } P | I { X._ { o.{ { X.",
"{ X.| ..o.^ o.X.U ..n ] ..| 7 : - - o...{ { m | } ' ....o.| ^ ..",
"| I e [ ) ' { /  .| z S t ` ( O @ T J K t + . P | o.e } [ X.} Y ",
"J ^ X.) { ( i k { ..[ } 6 ` i + I J ) L = | K T o.j o.{ } ....P ",
"} ..I D I (  ...} Y ] b { X.L P J o. .{ J Y < 1 l s T |  .|  .| ",
"..o.X.| J ] ..[ | u I .._  .L t X.X.X.{ ..w J X.P I  .X.....y ..",
"} [ | [ [ o.} o.{ | J /  .X.| [ ....| [ [ o.l ' L | U _ _ ..} ] ",
"{ X...o.k  ...o. .T Y j } [ P J T X.....[ [ ) ) | | | | ) o./ U ",
"| Y } T |  .{ [ } 0 P [ { [ I L ..{ o.o.u 8 } | }  .] } } .. .o.",
"} X.X.T L _ ^ ^ X.|  .[ ..I o.L J H i ) [ [ i  .' [ [ I ..} } } ",
"[ o.} [ { i | < ^ p J | o.[ | K T ] - u K G ' [ [ | ` J { | o.o.",
"X.} X.} { [ o.[ ]  .} o.} { [ } o...} J L [ Y o.| { X. .Q ..Y / ",
"}  .[ o.} X...{ o...P _  .[  .o... . ...L X.| { X...R o...X. .| ",
"X.X.| [ | ....o.| | { X.e o.J / } | [ X.X.| ^ ` ^ } X.......{ | "
};
