/* XPM */
static char *result[] = {
/* columns rows colors chars-per-pixel */
"32 32 5 1 ",
"  c #262B44",
". c #5A6988",
"X c #8B9BB4",
"o c #C0CBDC",
"O c #E9E4E0",
/* pixels */
"OOOOOOOOOoXX..    ..XXoOOOOOOOOO",
"OOOOOOOOOoXX..    ..XXoOOOOOOOOO",
"OOOOOOOOOoXX.      .XXoOOOOOOOOO",
"OOOOOOooooXXX..  ..XXXooooOOOOOO",
"OOOOOOooooXXX..  ..XXXooooOOOOOO",
"OOXXooXXooXXX..  ..XXXooXXooXXOO",
"OOXXooXXooXXX..  ..XXXooXXooXXOO",
"OOXXXX..XXXX.      .XXXX..XXXXOO",
"OOXXXX..XXXX.      .XXXX..XXXXOO",
"OO..XX..XXXX.      .XXXX..XX..OO",
"OO..XX.......      .......XX..OO",
"OOOO..  .....      .....  ..OOOO",
"OOOO..                    ..OOOO",
"                                ",
"                                ",
"                                ",
"                                ",
"                                ",
"                                ",
"OOOO..                    ..OOOO",
"OOOO..  .....      .....  ..OOOO",
"OO..XX.......      .......XX..OO",
"OO..XX..XXXX.      .XXXX..XX..OO",
"OOXXXX..XXXX.      .XXXX..XXXXOO",
"OOXXXX..XXXX.      .XXXX..XXXXOO",
"OOXXooXXooXXX..  ..XXXooXXooXXOO",
"OOXXooXXooXXX..  ..XXXooXXooXXOO",
"OOOOOOooooXXX..  ..XXXooooOOOOOO",
"OOOOOOooooXXX..  ..XXXooooOOOOOO",
"OOOOOOOOOoXX.      .XXoOOOOOOOOO",
"OOOOOOOOOoXX..    ..XXoOOOOOOOOO",
"OOOOOOOOOoXX..    ..XXoOOOOOOOOO"
};
