/* XPM */
static char *result[] = {
/* columns rows colors chars-per-pixel */
"32 32 183 2 ",
"   c #181424",
".  c #191424",
"X  c #181524",
"o  c #191524",
"O  c #181425",
"+  c #191425",
"@  c #181525",
"#  c #191525",
"$  c #2C2A3C",
"%  c #2D2A3C",
"&  c #2D2B3C",
"*  c #2D2A3D",
"=  c #2C2B3D",
"-  c #2D2B3D",
";  c #2F2A3C",
":  c #2E2B3C",
">  c #2E2A3D",
",  c #2E2B3D",
"<  c #2C2C3C",
"1  c #2C2D3C",
"2  c #2C2C3D",
"3  c #2D2C3D",
"4  c #2C2D3D",
"5  c #2D2D3D",
"6  c #2E2C3C",
"7  c #2F2C3C",
"8  c #2E2D3C",
"9  c #2F2D3C",
"0  c #2E2C3D",
"q  c #2F2C3D",
"w  c #403E50",
"e  c #403E51",
"r  c #403E52",
"t  c #413F52",
"y  c #404150",
"u  c #414052",
"i  c #515064",
"p  c #84889A",
"a  c #85889A",
"s  c #84899A",
"d  c #85899A",
"f  c #84889B",
"g  c #85889B",
"h  c #84899B",
"j  c #85899B",
"k  c #84889C",
"l  c #85889C",
"z  c #84899C",
"x  c #85899C",
"c  c #84889D",
"v  c #85889D",
"b  c #84899D",
"n  c #85899D",
"m  c #8D90A2",
"M  c #8B91A4",
"N  c #9195A6",
"B  c #9094A7",
"V  c #9297AA",
"C  c #9398AA",
"Z  c #9298AD",
"A  c #8A9AB4",
"S  c #8B9AB4",
"D  c #8A9BB4",
"F  c #8B9BB4",
"G  c #8A9AB5",
"H  c #8B9AB5",
"J  c #8A9BB5",
"K  c #8B9BB5",
"L  c #9AA0B5",
"P  c #9BA1B5",
"I  c #90A1B8",
"U  c #91A1B9",
"Y  c #93A1B9",
"T  c #91A0BA",
"R  c #91A1BA",
"E  c #91A0BB",
"W  c #90A1BB",
"Q  c #93A0BB",
"!  c #97A7BF",
"~  c #98A6BD",
"^  c #AAB0C5",
"/  c #ABB2C5",
"(  c #AAB1C6",
")  c #AAB2C6",
"_  c #AAB3C7",
"`  c #ABB3C7",
"'  c #ACB5C8",
"]  c #AFB6CB",
"[  c #ADB6CF",
"{  c #ACB9CC",
"}  c #ACB8CE",
"|  c #ADB8CE",
" . c #ACB9CE",
".. c #ADB9CE",
"X. c #ADB8CF",
"o. c #ADB9CF",
"O. c #AEB8CE",
"+. c #B2B8CD",
"@. c #AEBAD1",
"#. c #B1BAD1",
"$. c #B0BDD1",
"%. c #B1BDD1",
"&. c #B0BDD3",
"*. c #B4BED4",
"=. c #B8C2D7",
"-. c #B8C2D8",
";. c #BAC4D9",
":. c #BDC5DA",
">. c #C0C8DC",
",. c #C0C9DC",
"<. c #C1C9DC",
"1. c #C0C8DD",
"2. c #C0C9DD",
"3. c #C1C9DD",
"4. c #C0CADC",
"5. c #C1CADC",
"6. c #C0CBDC",
"7. c #C1CBDC",
"8. c #C0CADD",
"9. c #C1CADD",
"0. c #C0CBDD",
"q. c #C1CBDD",
"w. c #C2CADC",
"e. c #C2CADD",
"r. c #C2CBDD",
"t. c #C1C8DE",
"y. c #C1C9DF",
"u. c #C4CADC",
"i. c #C4CCDC",
"p. c #C5CCDC",
"a. c #C5CDDC",
"s. c #C4CCDD",
"d. c #C5CCDD",
"f. c #C4CDDD",
"g. c #C5CDDD",
"h. c #C6CDDC",
"j. c #C6CCDD",
"k. c #C7CDDD",
"l. c #C5CCDE",
"z. c #C4CDDF",
"x. c #C5CDDF",
"c. c #CBD1DF",
"v. c #CCD0DC",
"b. c #CCD1DC",
"n. c #CED2DC",
"m. c #CED3DC",
"M. c #CED3DD",
"N. c #CCD1DE",
"B. c #CDD1DE",
"V. c #CCD0DF",
"C. c #CCD1DF",
"Z. c #CDD1DF",
"A. c #CED2DE",
"S. c #CFD2DE",
"D. c #CED3DE",
"F. c #CFD3DE",
"G. c #CED2DF",
"H. c #CFD2DF",
"J. c #CED3DF",
"K. c #CFD3DF",
"L. c #DDDCE0",
"P. c #DDDDE0",
"I. c #DDDDE1",
"U. c #DEDCE0",
"Y. c #DFDCE0",
"T. c #DEDCE1",
"R. c #DEDDE1",
"E. c #E2E0E0",
"W. c #E3E0E0",
"Q. c #E2E1E0",
"!. c #E3E1E0",
"~. c #E2E0E1",
"^. c #E3E0E1",
"/. c #E2E1E1",
"(. c #E3E1E1",
"). c #E8E4E0",
"_. c #E9E4E0",
"`. c #E8E5E0",
"'. c #E9E5E0",
"]. c #E8E4E1",
"[. c #E9E4E1",
"{. c #E8E5E1",
"}. c #E9E5E1",
/* pixels */
"'.)._._.Q.'.}.R.d.p.A.}.}.b.{.}.E.!.{.D.}.E.U._.J.)._.(.`.{.'.).",
"{.{.}.W.(.E.G.h.r.W.8.4.w.j.T.>.{.i.[.!.].'.n.`.{.)._.~.).).`.).",
"_.}.).}.v.~._.g.`.q.1.8.>.z.y.0.9._.F.7.'.a.`.^.6.^.S.'.Q.[.}.).",
").{.}.K.'.m.8.}.0.6.8.9.6.<.q.q.6.9.0.0.8.}.A.8.8.6.`.f.`.{.(.'.",
"[.'._.`.D.9.q.8.6.5.6.2.9.| 6.7.5.6.8.9.9.0.<.6.9.5.8.B.'.{.).{.",
"[.}.].).4.5.7.5.5.8.2.7.! w o 4.> & 6.4.7.Q A 8.4.4.`.7.[.F.[.W.",
"`.)._.E.].4.4.9.9.6.2.+.0 d j ] X # # 4.l ; D K 5.W 9.q.7.).C.`.",
").[.F.'.!._.0.8.6.X.P e ^ :./ 9 X ( _ B # X g | $.5.9.q.0.0.J.'.",
"_.}.).K.J.D.&.9.  : 1   n d X     o + ; X f j O C K >.<.5.F.[.^.",
"].[.]._.).B.@.%.x d @ O O . o   +   o X . X o j O H 5.5.9.!.A.).",
"_.{.{.~.}.K K , O f n @ + . o @ + O   @ X # O @   q.4.4.7.8.A.}.",
"{.].^.L.{...G o 3   . + @ o @ + o o + O # @ + o % $ 0.1.7.[ F./.",
"`.W.[.{ S F D O o + X + # @ X o @ @ # #   O   b @   h 7.H E '.'.",
"W.!.A...S 8.1 n X 3 + + # O + X . O # O @ o O o + ` h N 4.A H.{.",
"_.M.`.F 7.4.q.+ b + @ X X o O   + o O . @ o # . # O X q.5.<.D.A.",
"K.'.{.8.4.0.5.,.c + + + + o o O o     @ X o O + X   q.4.9.7.8.G.",
").).6.4.4.4.6.O   . X @ O O . X   # O @ X X O   . < o 0.0.6.)._.",
"].6.0.4.q.6.p 3 @   . + # X O + @ o # o o X + . k . % 0 0. .Q.[.",
"^.'.0.8.4.L . ; + . O . o # o   @ + # # @ o X + X @ z ' %.K [.}.",
"_.].'.t.F i 8 l k . + o O o X # X X @ X O O @     5 a + I 0.A.g.",
").S.c.*.~ ;.  v t # *   #   O O X X o . # . O O 7 4 .  .q.7.8.`.",
"].'.`.s.T =.) # O 0 @ @ @ + + . o . # + O @ o # o m S q.0.9.0.7.",
"`.{.k.).a.8.J 8.. Z . = 6 + . X +     . # + + q k O U 5.5.5.5.^.",
"`.].].K.q.8.9.5.2.X V # @ . # X O 6 . O O + % r X -.q.5.4.8.J.E.",
"'._.).5.9.5.8.8.5.2.M . h @ # y + # + o + < # p X q.4.3.3.8.J.).",
"}.{.R.{.6.8.6.8.0.} d X #   - * + k O . u % O...Y 0.9.7.7.Y.{.S.",
"_.x._.C.].9.9.4.F #.G X 0.X b h 2 X @ O   s D ..q.9.8.7.S.~.}.[.",
"'.'.D.h.l.e.4.Z.(.A D 0.8.8.k z X 8.X z O.R F 0.4.2.,.9.K.[.).}.",
"].[.).).D.c.Z.u.z.H.8.4.8.8.0.o.0.4.0.K ..D 6.4.8.0.2.!.{.F.S.[.",
"}.[.}.[.`.'.W.].D.N.}.4.0.8.J 4.q.5.0.6.J.4.0.9.4.6.D.Q.{.[.'.'.",
"].[.[.{.).]._.'.A.}.{.{.9.[.I.'.8.8.0.).E.'.0.0.5.N.].{.].].[.].",
"_.).].).[.`.].].{.[.J.S.V.D.}._.).8.].N.`.`.}.9._.P.).`.].].].]."
};
