/* XPM */
static char *result[] = {
/* columns rows colors chars-per-pixel */
"32 32 26 1 ",
"  c #181424",
". c #242C43",
"X c #374564",
"o c #576985",
"O c #576A85",
"+ c #566A86",
"@ c #576A86",
"# c #586985",
"$ c #586A85",
"% c #8599B1",
"& c #8799B1",
"* c #859AB1",
"= c #869AB1",
"- c #859AB2",
"; c #869AB2",
": c #889CB2",
"> c #BCC9DB",
", c #BEC9DA",
"< c #BCCADA",
"1 c #BECCDB",
"2 c #E9E3DF",
"3 c #E8E3E0",
"4 c #E9E3E0",
"5 c #E8E4E0",
"6 c #E9E4E0",
"7 c #EAE5E1",
/* pixels */
"626657777<%%%%++++......  ..    ",
"347777777<%%%%++++......  ..    ",
"7777777<<<----++..XXXX..        ",
"7777777<<<----++..XXXX..        ",
"77777<<<<<----++..XXXX..        ",
"777<<<<<<<----++..XXXX..        ",
"777<<<<<**=-%*++......          ",
"777<<<<,**&&=*++......          ",
"77<<<<<>***;&=++++++..      ..  ",
"77<<<<::**=*%*++++++..      ..  ",
"<<<<11::=-O@$O++++++....    ..  ",
"<<:::::***o@OO++++++....    ..  ",
"<<:::::***@OO$++........        ",
"::::***OOO@#++++........        ",
"::::***OOOOO........            ",
"OOOOOOOOOOOO........            ",
"OOOOOOOOOOOO..                  ",
"OOOOOOOOOOOO..                  ",
"OOOOO.........        ....      ",
"OOOOO.........        ....      ",
"OO............      ..XX..      ",
"OO.....             ..XX..      ",
".......             ....        ",
"....       ....     ....        ",
"....     ..XX..     ....        ",
"         ..XX..     ....        ",
"         ....                   ",
"                                ",
"                ......          ",
"                ......          ",
"                ......          ",
"                ......          "
};
