/* XPM */
static char *result[] = {
/* columns rows colors chars-per-pixel */
"32 32 5 1 ",
"  c #181424",
". c #5A6988",
"X c #8B9BB4",
"o c #C0CBDC",
"O c #E9E4E0",
/* pixels */
"                                ",
"                                ",
"                                ",
"              ...               ",
"             XXX.       ...     ",
"             XXX.       ...     ",
"       ..... XXX       XX..     ",
"       .....           XX       ",
"      XXXX..                    ",
"      XXXX..                    ",
"      XXXX                      ",
"      XXXX     ....  ...        ",
"              XXX.. XXX.        ",
"              XXX.. XXX.        ",
" ....         XXX   XXX.        ",
" XXX.               XXX         ",
" XXX.                           ",
" XXX.                     ..    ",
"        ......           XX.    ",
"        ......           XX     ",
"    ..  ......                  ",
"    ..........                  ",
"....XX..........                ",
"....XX..XXXX....    ....        ",
"..XXXX..XXXX....    ....        ",
"OOXXXX..XXXX....  XXXX..        ",
"OOXXooXXooX...    XXXX..        ",
"OOOOooXXooX...    XXXX          ",
"OOOOOOooooX...    XXXX          ",
"OOOOOOooooX...                  ",
"OOOOOOOOOoXX....                ",
"OOOOOOOOOoXX....                "
};
