/* XPM */
static char *result[] = {
/* columns rows colors chars-per-pixel */
"32 32 28 1 ",
"  c #292F45",
". c #262B44",
"X c #5A6988",
"o c #8599B1",
"O c #8799B1",
"+ c #859AB1",
"@ c #869AB1",
"# c #8599B2",
"$ c #8699B2",
"% c #859AB2",
"& c #869AB2",
"* c #8B9BB4",
"= c #BCC9DA",
"- c #BCC9DB",
"; c #BEC9DA",
": c #BEC9DB",
"> c #BCCADA",
", c #BCCADB",
"< c #BDCADB",
"1 c #BECADA",
"2 c #C0CBDC",
"3 c #E8E3DF",
"4 c #E9E3DF",
"5 c #E8E3E0",
"6 c #E9E3E0",
"7 c #E8E4E0",
"8 c #E9E4E0",
"9 c #E9E5E1",
/* pixels */
"99999922****XXX   XX**2888888888",
"99999922****XXX   XX**2888888888",
"999922****XXXXX    X**2888888888",
"999922****XXXXX  XX***2222888888",
"999922****XXXX.. XX***2222888888",
"999922****XXXX.. XX***22**22**88",
"99992222**XXXX.. XX***22**22**88",
"99992222**XXXX..   X****XX****88",
"9999999922****XX   X****XX****88",
"9999999922****XX   X****XX**XX  ",
"9999999922****XX   XXXXXXX**XX  ",
"9999999922****XX   XXXXX  XX    ",
"99999922**XXXXXX          XX    ",
"99999922**XXXXXX                ",
"9999992222******                ",
"9999992222******                ",
"9999992222****@@&#..            ",
"8888892222****#%#&..            ",
"888888**+oO&XX%@##....%%@O      ",
"888888**+@+%XXoo@O....@OOo      ",
"8888888888+OXX++&&XX..o#&@  ..&&",
"8888888888&@XX%@@@XX..%@$$  ..@&",
"8888888888>=+@1->=+o+@,=-=%@&O$#",
"8888888888;<+%=>>-@O&+;1-1o@+@+$",
"888888888877=>,-=1+@OO->;>1--<,:",
"888888888868:>>>1<+o%@1>1,=>,,<,",
"8888888888867846381=>=6858,-1<88",
"8888888886388774671,>>8688=>1>87",
"888888888788788838,->,8877656666",
"885574387788888873>=>;8878876388",
"87347358458787874784685878688765",
"83747566875736888687764886878848"
};
