/* XPM */
static char *result[] = {
/* columns rows colors chars-per-pixel */
"32 32 54 1 ",
"  c #181424",
". c #191424",
"X c #181524",
"o c #191524",
"O c #181425",
"+ c #191425",
"@ c #181525",
"# c #191525",
"$ c #262A44",
"% c #272A44",
"& c #262B44",
"* c #272B44",
"= c #262A45",
"- c #272A45",
"; c #262B45",
": c #272B45",
"> c #3A4466",
", c #3B4466",
"< c #3B4566",
"1 c #3A4467",
"2 c #3B4467",
"3 c #3B4567",
"4 c #5A6888",
"5 c #5B6888",
"6 c #5A6988",
"7 c #5B6988",
"8 c #5A6889",
"9 c #5B6889",
"0 c #5A6989",
"q c #5B6989",
"w c #8A9AB4",
"e c #8B9AB4",
"r c #8A9BB4",
"t c #8B9BB4",
"y c #8A9AB5",
"u c #8B9AB5",
"i c #8A9BB5",
"p c #8B9BB5",
"a c #C0CADC",
"s c #C1CADC",
"d c #C0CBDC",
"f c #C1CBDC",
"g c #C0CADD",
"h c #C1CADD",
"j c #C0CBDD",
"k c #C1CBDD",
"l c #E8E4E0",
"z c #E9E4E0",
"x c #E8E5E0",
"c c #E9E5E0",
"v c #E8E4E1",
"b c #E9E4E1",
"n c #E8E5E1",
"m c #E9E5E1",
/* pixels */
"mzbxnnvjh65#.oo@@#-$ppasjklmxbbn",
"nnmlmzzgj97:.X#@:--$ywshgaxvxvnm",
"mnclvmvgg69* ...&%=;ytgkjhvcnnmv",
"mvvnlzbgj69$Oo#&;$=wtagjhdnlzmzx",
"zznnzzzda66@#@ **;%iyfdskgnxmvzn",
"zzllsdhsj60+oo.#.#=euakhgdnlbzcz",
"zbvcfjs7940+O##X @:ewrggfadccbll",
"zcgd86q067@oO+..@.:99uriidgakfbz",
"x8460654+@%-:$#@.X&q56yeerhjsszx",
"j0462>%:;-;&*:+@O#;85580pwajffbx",
"578<,>%$;-:&$-@.  -*97q0pwhadkll",
"0493,,;:&=::::@#@@=:8589hgdkcczl",
"*%*21<*:596q&%$&$:%=58jjjgjjzvvn",
"q80$*:%=9079;$8580-$pukjhjafmnmz",
"q76%=&:%9598=$8767$&yiksghjabvcc",
"488%%:%=9594;$6549urtthfkdemcvxz",
"5894656079q099eewwiwrefsdktbxvnx",
"747449ppeu5474eiwwueruddggvllzln",
"8q5q64ttyp56q7teprreuyhgddzmcvbm",
"905765pypt9555tuwriekhjfsfxvcbln",
"yit759wryu7507wtpwwehaddfalbbxmz",
"twiwutgffheprufdgjprjghkbxcbzxlb",
"eywwrwhskkeirygasfpidfclxdgaslbc",
"truiuihgdkyiiidfgkprdjvxbsjhknxn",
"jhahshasssirytfjjgsfnvzclkdadbnl",
"xcvahklblbkajknlxcnxcclbskagsvbc",
"zbvskablzmfsjanbvmbnnbmmgjsfdlcx",
"cmngdkbzvngdjdczblcznvxvkjdggvmx",
"cmbnmcczxbdddhbvzcmczbxbnxlllxvm",
"vvlnczzmxmnxvmvblxmzllxvcxclbxbc",
"bvnlmxnczmnmvvvbbzzznxlbmxlxlbmz",
"vmxmxmnvvxvbzcmzxbmnvxzbbzlmnlnn"
};
