/* XPM */
static char *result[] = {
/* columns rows colors chars-per-pixel */
"32 32 54 1 ",
"  c #181424",
". c #191424",
"X c #181524",
"o c #191524",
"O c #181425",
"+ c #191425",
"@ c #181525",
"# c #191525",
"$ c #262A44",
"% c #272A44",
"& c #262B44",
"* c #272B44",
"= c #262A45",
"- c #272A45",
"; c #262B45",
": c #272B45",
"> c #3A4466",
", c #3B4466",
"< c #3B4566",
"1 c #3A4467",
"2 c #3A4567",
"3 c #3B4567",
"4 c #5A6888",
"5 c #5B6888",
"6 c #5A6988",
"7 c #5B6988",
"8 c #5A6889",
"9 c #5B6889",
"0 c #5A6989",
"q c #5B6989",
"w c #8A9AB4",
"e c #8B9AB4",
"r c #8A9BB4",
"t c #8B9BB4",
"y c #8A9AB5",
"u c #8B9AB5",
"i c #8A9BB5",
"p c #8B9BB5",
"a c #C0CADC",
"s c #C1CADC",
"d c #C0CBDC",
"f c #C1CBDC",
"g c #C0CADD",
"h c #C1CADD",
"j c #C0CBDD",
"k c #C1CBDD",
"l c #E8E4E0",
"z c #E9E4E0",
"x c #E8E5E0",
"c c #E9E5E0",
"v c #E8E4E1",
"b c #E9E4E1",
"n c #E8E5E1",
"m c #E9E5E1",
/* pixels */
"nbvclckfhsiy%%#X @. @9qasxnmxlzb",
"mnvczcdasgie=%$:OOo+:qqajvznlbnm",
"vvnnlbhakkiu%=;; o+.=57gfvmvncnz",
"xzblvzgsjssrp;=:;O#.;06ggxznmnlm",
"ncbmxmakahkyr*&%:@O@.60akbzxnmcl",
"vlzxxnkdfgaie-o #ooO+09hgsshlcvx",
"cmzmmdjdgkrew=@X .O@+9747sgdbbvl",
"zvjhdhsuuye94;X# # @.#790760fglz",
"xlfdgartrr950*# oo=&&%X#086q670m",
"lcagdkrt8q809&oXXX&%*$:&;$>3808h",
"zlsdjhwrqq59:%+ oX*$;$-;$%<,,457",
"vvzzffjhq84q:$X#@o-*::==:=323508",
"xcvxdgkghd65:=-&%$-%4789-*>1,$*-",
"lmnmfajgjjpu-$7858&=5569=:*&:q74",
"nvlmjhhakjiw%$7795-$8q4q$-:=;946",
"lcbmnpjgfdpirw7854-:9444&%**%698",
"cvllcpkahdyiewiyue88044707468805",
"nzllvbfsdjuierwwwe4877uepyq8869q",
"clvccbjfhfrtrtrytu7q49yywy766678",
"xxnzzlsshghfeirrru5845rpit656677",
"xblxvnagsjhfeerpwwq6q5uury99qewr",
"lzxllmnzhsgjrtsdfspyrihkkkweeywt",
"cbxfghknlvhdrefaahyirykafgrrwwyu",
"mcnjksjzzngaiihhasituwjfsjrupwwu",
"vvmjddhzmvmndsfdsktrepsfgdgdssda",
"cbvgakfhzmmlnxxmxlsgfsczzlhkfxcc",
"vmbgksaamcnllnmvvlfddflxvzfsdvlm",
"lmnggakkvnlnlzvlzcddfacvlnsjhvmz",
"czxlcvzxvlxmnvzxzzjshgmxlmzmllzm",
"lvzzlcclnczllbccmmnvcbbcmvccvzvn",
"zcmmlmvlxbvllbnlbxlvmnvmcxnmxlvl",
"nvnnmnbcvlzxnvvmlnxmznbblcmvbxnc"
};
