/* XPM */
static char *result[] = {
/* columns rows colors chars-per-pixel */
"32 32 5 1 ",
"  c #181424",
". c #5A6988",
"X c #8B9BB4",
"o c #C0CBDC",
"O c #E9E4E0",
/* pixels */
"                                ",
"                                ",
"                                ",
"                                ",
"                 ..             ",
"    ...          .XX            ",
"    ...           XX            ",
"    ..XX                        ",
"      XX   ....        ....     ",
"           .XXXX       ....     ",
"           .XXXX       ..XXXX   ",
"            XXXX       ..XXXX   ",
"                         XXXX   ",
"           ...           XXXX   ",
"           ...                  ",
"   ...     .XXX                 ",
"   .XXX    .XXX       ....    ..",
"   .XXX     XXX       ....    ..",
"    XXX           ..............",
"                  ..............",
"      ....        .....XXX....XX",
"      ....        .....XXXXXXXXX",
"      ..XXXX      .....XXXoooooo",
"      ..XXXX      .....XXXooooOO",
"      ..XXXX         .....XXooOO",
"        XXXX         .....XXooOO",
"                    ..XXXXooOOOO",
"              ....  ..XXXXooOOOO",
"              .XXX    ..XXXOOOOO",
"              .XXX    ..XXXOOOOO",
"              .XXX    ...OOOOOOO",
"                      ...OOOOOOO"
};
