/* XPM */
static char *result[] = {
/* columns rows colors chars-per-pixel */
"32 32 55 1 ",
"  c #181424",
". c #191424",
"X c #181524",
"o c #191524",
"O c #181425",
"+ c #191425",
"@ c #181525",
"# c #191525",
"$ c #262A44",
"% c #272A44",
"& c #262B44",
"* c #272B44",
"= c #262A45",
"- c #272A45",
"; c #262B45",
": c #272B45",
"> c #3A4466",
", c #3B4466",
"< c #3A4566",
"1 c #3B4566",
"2 c #3A4467",
"3 c #3B4467",
"4 c #3A4567",
"5 c #5A6888",
"6 c #5B6888",
"7 c #5A6988",
"8 c #5B6988",
"9 c #5A6889",
"0 c #5B6889",
"q c #5A6989",
"w c #5B6989",
"e c #8A9AB4",
"r c #8B9AB4",
"t c #8A9BB4",
"y c #8B9BB4",
"u c #8A9AB5",
"i c #8B9AB5",
"p c #8A9BB5",
"a c #8B9BB5",
"s c #C0CADC",
"d c #C1CADC",
"f c #C0CBDC",
"g c #C1CBDC",
"h c #C0CADD",
"j c #C1CADD",
"k c #C0CBDD",
"l c #C1CBDD",
"z c #E8E4E0",
"x c #E9E4E0",
"c c #E8E5E0",
"v c #E9E5E0",
"b c #E8E4E1",
"n c #E9E4E1",
"m c #E8E5E1",
"M c #E9E5E1",
/* pixels */
"O@.@$@o@;-%;=765707qipiudbxzzcvM",
"++ X&XXo;&==*0wq08q6uaaalxczcnnn",
"o#.@-X. ;:-$%606w808yyyahxxczzmm",
"#..X+XOo&,1<<%%$9069qayaljjkMmMm",
"@ X@o@# $>4<4:&*w0w58aridllfzmMv",
"oXo.@#.@:3,21=$&555w5ttrkskfmvvz",
"+ oOo###.;%$;-$:8pputfdgdczcmnvM",
"X@o@ +oo &$-*:-%9tiutghdlvvznMzn",
"#;$= #@+o&;:78988raprkfslMnMxxvb",
".%$$+.X++;-;597wqyeyeggfjmxnMccc",
".$=%.O#O=$&:6q0ww8q58apyrksdfvbb",
"O;%:#. +;-;;q0wq87w5wuyarskhjnbn",
"O@XoXX.X*%=$;;$%wqq08raurhfksmzM",
"#+.+O+.@-=-$&&;$99679tyueslhhzxn",
"oX X#XO@#@#O=ww5eatiiksghznmbMbm",
"o+#*%#oO#+@.%0q9rytayjgkfzznbcmv",
"O-;:=X ..O#X;670yetirhjjsxxzmMbc",
"+$:$*X +.+o -87wreaeasklgxMcMnmb",
"$;$==%--&:&&-&;etpaeupprkMxxMnvm",
"&&$puri5w6-&;:%apyiituutjMmbMnmz",
"tuautuu07566wiuaiaadhjfkczvmvczb",
"eyiskkau80698iieitrlkfddmxzzzvMz",
"sfsljdfau568kdggfskklgnxmbcMvncx",
"glsklklay987lhsgklhdjjbnxbzbMbzx",
"shkskggyrtrhkdfkhhfhgnzMvgsdvnnm",
"lhlfdkjdyryhgdhskkfhfzgsshslmMmx",
"nczMcnllfhlsdfdpaMbbMbdgfjfdxmcz",
"nMbcmMzlhlghhhjbmnzncmjfddflvccv",
"vcvMbxbkjjlcxvmMcnmMnMgddjdlmmnz",
"bxMxmvnjfdkbbbMzMnnbmcnmnvccMzmv",
"vbvxcxbcbnxxxnznbMnzzvxmmmmbcbbb",
"znzmMzcvxvvmnmncvnbvczbmzzzMncbn"
};
