/* XPM */
static char *result[] = {
/* columns rows colors chars-per-pixel */
"32 32 28 1 ",
"  c #292F45",
". c #262B44",
"X c #5A6988",
"o c #8599B1",
"O c #8799B1",
"+ c #859AB1",
"@ c #869AB1",
"# c #8599B2",
"$ c #8699B2",
"% c #859AB2",
"& c #869AB2",
"* c #8B9BB4",
"= c #BCC9DA",
"- c #BCC9DB",
"; c #BEC9DA",
": c #BEC9DB",
"> c #BCCADA",
", c #BCCADB",
"< c #BDCADB",
"1 c #BECADA",
"2 c #C0CBDC",
"3 c #E8E3DF",
"4 c #E9E3DF",
"5 c #E8E3E0",
"6 c #E9E3E0",
"7 c #E8E4E0",
"8 c #E9E4E0",
"9 c #E9E5E1",
/* pixels */
"84887868846778688863757866574738",
"56788687858648747878785485374378",
"8836788788;>=>378888887783475588",
"6666567788,>-,838887887888888888",
"78>1>=8868>>,1764778836888888888",
"88<1-,8586=>=1836487688888888888",
",<,,>=,1>1@%o+<1>>>:868888888888",
":,<--1>;>-OO@+1=-,>=778888888888",
"$+@+@o1-1;+&O@->>=%+<;8888888888",
"#$O&@%=-=,@+o+=>-1@+=>8888888888",
"&@..  $$@%..XX@@@%XX@&8888888888",
"&&..  @&#o..XX&&++XXO+8888888888",
"      oOO@....O@ooXX%+@+**888888",
"      O@%%....##@%XX&Oo+**888888",
"            ..&#%#****2222988888",
"            ..#&@@****2222999999",
"                ******2222999999",
"                ******2222999999",
"                XXXXXX**22999999",
"    XX          XXXXXX**22999999",
"    XX  XXXXX   XX****2299999999",
"  XX**XXXXXXX   XX****2299999999",
"  XX**XX****X   XX****2299999999",
"88****XX****X   XX****2299999999",
"88****XX****X   ..XXXX**22229999",
"88**22**22***XX ..XXXX**22229999",
"88**22**22***XX ..XXXX****229999",
"8888882222***XX ..XXXX****229999",
"8888882222***XX  XXXXX****229999",
"8888888882**X    XXXXX****229999",
"8888888882**XX   XXX****22999999",
"8888888882**XX   XXX****22999999"
};
