/* XPM */
static char *result[] = {
/* columns rows colors chars-per-pixel */
"32 32 26 1 ",
"  c #292F44",
". c #292F45",
"X c #2A2F44",
"o c #2A2F45",
"O c #8599B1",
"+ c #8799B1",
"@ c #859AB1",
"# c #869AB1",
"$ c #8599B2",
"% c #8699B2",
"& c #859AB2",
"* c #869AB2",
"= c #BCC9DA",
"- c #BCC9DB",
"; c #BEC9DA",
": c #BEC9DB",
"> c #BCCADA",
", c #BCCADB",
"< c #BDCADB",
"1 c #BECADA",
"2 c #E8E3DF",
"3 c #E9E3DF",
"4 c #E8E3E0",
"5 c #E9E3E0",
"6 c #E8E4E0",
"7 c #E9E4E0",
/* pixels */
"367776-;@#$*....... *@+@<:466223",
"475327>;@+##........%&O#<>454756",
"6642;=@%.. .........  $&-1:>7746",
"3676==+&..............@#=,1:6452",
"3655-=@+..o.......... @+>=,=7726",
"7355;1OO.. ...........&O11;<7464",
"5345=,>=%@X.........**--11677776",
"2443=:11@+ .........$%,1=;432666",
"72436737<:@#..X.....%O,:>>467746",
"73752557>1@#..o.....#&---1733555",
"25667624;-*O.. ....X. ..*%;11,76",
"665772671-&*.. ...... ..*O>1<=63",
"673322;-&%.   ....... ..&&<><=22",
"627272:<+%  . X... .o ..$*;<,;64",
"576276:=,1$+........#%;=,>552545",
"462765=::,+*.....o..%@,=;-647577",
"747526;-;;%*..... ..$#-:>;767375",
"276245>->;&@....o ..@+,>--752664",
"22>=>-&O**$@........+#=1,<277727",
"76;;<;++&+$$........#&=<<,266633",
"66:<==@*+@&#%&#**@#+O+>;77677436",
"77,;<>O@O@#+*@&**@+O@%<;44634776",
"6566671,=1@@$+>=-,&O%+=;66766664",
"577665;,,<%+$%::;-+$$@:,37542666",
"326347;<1>@#*+:,=,#$@$&*>;=<6772",
"426757,-1-+@$+,;>-*%*&+@1=:<2247",
"6622;:>:<:,:;>7667->=;<->;->6274",
"7324>1,:=><;;>22771>>-==:1<;7657",
"6323,1=,<<466662671:=>:>>=116652",
"4364<:1:=<37767277><1,-,=<;,6766",
"637745<::,>165732627<=<:-=467477",
"656265=;==:<764365461-1,1;452625"
};
