/* XPM */
static char *result[] = {
/* columns rows colors chars-per-pixel */
"32 32 40 1 ",
"  c #181424",
". c #191424",
"X c #181524",
"o c #191524",
"O c #181425",
"+ c #191425",
"@ c #181525",
"# c #191525",
"$ c #262A44",
"% c #272A44",
"& c #262B44",
"* c #272B44",
"= c #262A45",
"- c #272A45",
"; c #262B45",
": c #272B45",
"> c #8A9AB4",
", c #8B9AB4",
"< c #8A9BB4",
"1 c #8B9BB4",
"2 c #8A9AB5",
"3 c #8B9AB5",
"4 c #8A9BB5",
"5 c #8B9BB5",
"6 c #C0CADC",
"7 c #C1CADC",
"8 c #C0CBDC",
"9 c #C1CBDC",
"0 c #C0CADD",
"q c #C1CADD",
"w c #C0CBDD",
"e c #C1CBDD",
"r c #E8E4E0",
"t c #E9E4E0",
"y c #E8E5E0",
"u c #E9E5E0",
"i c #E8E4E1",
"p c #E9E4E1",
"a c #E8E5E1",
"s c #E9E5E1",
/* pixels */
"trritr6e5,11&O @O.#;5315q0rpyuir",
"apuasp7q<>42& .@.XX&3,3<q8srupyp",
"yisu80q043=%:@@oX.X$*&4>5567aitp",
"ypia09e6<3;.oX.@X+ooO&>,<>66aaap",
"asrr7068<<=oXX @OO##.*>1,<88spyu",
"pysse9e712=&;$;oOO@@X&333<e7autr",
"apupsrqe0e5343&ooXo o-3588w7ssyp",
"ayyitaw890322>* O::**$1<q7q7utiu",
"siaupr9070>,<4&X+%>,>468upyiuits",
"srssru77e632>2-@@-,>1,98uuprpupy",
"up099e3515$%*=:X@&<,2>wqayapaasa",
"ty9wqw>522&+OoXoX;545268iuypaisy",
"rr7980<424%o o##X==&*$2406pytraa",
"iaq9w9523>&==*;.#-;=&$3>97rurury",
"arprsp896e3,35=oo&25,2eq9qruryps",
"sstiia076w2324&#.=31518778taaras",
"ssutsu787w<>5,%XX$>,<57e07yrpuis",
"iuyryi8ew73>5>=&=&23<369qwpsiyrr",
"rytayie6e811<4545511<255>>0q66tr",
"ttuaaawee6<34>3<,>4>423>51ew77it",
"utasyaus683<11>55<1>31525<660wyy",
"yutrryip7e22131552<<<1><<3wqw7ps",
"iryaaaau7632<4e08w>2<<90wwuaispa",
"aairapst9e2<1>e800341>76w9ssuytp",
"ysuyw67614>51,w8we53318797aaiayi",
"ypir900e1,43350889>24,697eupayri",
"pary8096we9886syapw7qww7qeq7rpua",
"atyt6e9e60q886upya9778q87w9qirua",
"ypya99e8868609tyssyayiqee890iurp",
"aryiwqww8ew9e6ysiyytpu07q7q9ypru",
"uasust8qqe67uastuspy88w7q0ppaair",
"piupps79w909yiprspaseq6686psuyus"
};
