/* XPM */
static char *result[] = {
/* columns rows colors chars-per-pixel */
"32 32 26 1 ",
"  c #292F44",
". c #292F45",
"X c #2A2F44",
"o c #2A2F45",
"O c #8599B1",
"+ c #8799B1",
"@ c #859AB1",
"# c #869AB1",
"$ c #8599B2",
"% c #8699B2",
"& c #859AB2",
"* c #869AB2",
"= c #BCC9DA",
"- c #BCC9DB",
"; c #BEC9DA",
": c #BEC9DB",
"> c #BCCADA",
", c #BCCADB",
"< c #BDCADB",
"1 c #BECADA",
"2 c #E8E3DF",
"3 c #E9E3DF",
"4 c #E8E3E0",
"5 c #E9E3E0",
"6 c #E8E4E0",
"7 c #E9E4E0",
/* pixels */
"36626466656324575473664627472675",
"25452676457626477623376674755672",
"2774747675,==;553676476672266746",
"64767772731<<,277276746262676672",
"65>:=<736311><5465767364<<>;1,65",
"44:1,;6447;><;5677226675=:-<1;44",
":>1,=11;>1%O&*>-;-<,7467;=;1=<=;",
"<<-=>11=>-**&$,;>-,<7463>1>:>=-1",
"@#&#+O-1:-....==:>1<;;;,*@-=>,:,",
"+O$@@&-,,-....;,-,==><=:&+<=:-<1",
"@& . .*%O&    %@#+#&+%+@$&;->,=-",
"*% ...*$%#...o#%$@+#O@%$@*=>=1<1",
" .........X.........+OO$$%>>:<76",
"............. ......#+&+#*-11>24",
"...............o  ..@@,-,-777765",
".................o..**-;=>676726",
"....................**=:,;622233",
"........Xo  .X......#&>::,726774",
"............  ......&@+%++>>6656",
"............ .......%*$$*$;;6767",
"*#......##O*  +**@@$#+@+#@:;671<",
"$# .o X @@*&. $+%&$$&#@%@+,<43>:",
"#+....@+:1--%%1,;;*+@@1<>-:><<,=",
"@@....%@<>;1&+,:;>*&+O=,11<=<=:=",
";;%&+O=17747-<=:--O+*@,,<-::,::;",
"->@+@O>13526;::=;>&+@O1;;,>,=1<=",
"67===1,:7562226565-;=>7577:11:55",
"72;=-;==6277277624><=<6645;>,<46",
"732655533567322752=;<;6637243472",
"754755444765376276>;:,6766222676",
"67666334235672764726675722633335",
"34633752772666547227676534676466"
};
