/* XPM */
static char *result[] = {
/* columns rows colors chars-per-pixel */
"32 32 40 1 ",
"  c #181424",
". c #191424",
"X c #181524",
"o c #191524",
"O c #181425",
"+ c #191425",
"@ c #181525",
"# c #191525",
"$ c #262A44",
"% c #272A44",
"& c #262B44",
"* c #272B44",
"= c #262A45",
"- c #272A45",
"; c #262B45",
": c #272B45",
"> c #8A9AB4",
", c #8B9AB4",
"< c #8A9BB4",
"1 c #8B9BB4",
"2 c #8A9AB5",
"3 c #8B9AB5",
"4 c #8A9BB5",
"5 c #8B9BB5",
"6 c #C0CADC",
"7 c #C1CADC",
"8 c #C0CBDC",
"9 c #C1CBDC",
"0 c #C0CADD",
"q c #C1CADD",
"w c #C0CBDD",
"e c #C1CBDD",
"r c #E8E4E0",
"t c #E9E4E0",
"y c #E8E5E0",
"u c #E9E5E0",
"i c #E8E4E1",
"p c #E9E4E1",
"a c #E8E5E1",
"s c #E9E5E1",
/* pixels */
"auussuiraaratpusauypsypsapuupatp",
"utstuatuiiptttspiuiaiprupytaptrp",
"yustupirusw976aurtptrryipptsipss",
"ysiaaiypya6qq6ipsirtpasrauurrrpy",
"ti9w09stps06w0iuauuypsyi87886eup",
"ps9997stsuw686istaytyaupq0e767st",
"6ee98e076734<2876q78suti6745,5w6",
"wq6e7w0608,214eqe68qapyt9q,,1270",
"e8qe0q7766>,4,qqe9458q9w151354,>",
"8ew08068e8<43277q9438we7,>,<,>,1",
"q8tt8w3<,55<<<5512=$<<33$&-;*&2,",
"eesy88<11><44<441,&;311<$oOX.&55",
"ytrr0q,2>2<,4,2515=$5,51=X @o**$",
"apir8w,312>54>,,12$$5>34=X@.XoO+",
"rsuiuiew0w,151-$*:*=&*%$-.@OO o.",
"ayripsqw6e1552;X+.#OO+O+##O@XoX+",
"riptsi9w0w<>>5$@Xo+O@oOX oX+ .#.",
"suusys0w071<31;-$=%. ***%&:##XO.",
"raw6885<>,1325>3<5& O=35,5;OXOX#",
"atq6085524<15,15>5&XX*5,43;oo*;&",
"7806e633<2<125><<>;@@&5352&@ %>5",
"66970713>,5<3355>>%-:$43,5:;;=<>",
"q8908e119786097070,<3>789w>41>>1",
"8q0w983598q9e9w708>5<59e7w,5>3<<",
"89708w00uaisq9e6e02<2,e060986eqe",
"86q8e977payueq096w55<5eqeq76q6q0",
"yrww068qpuirsasaps7609ursaq06qtr",
"pyw98w79satyyriypi0076usutqqw9pt",
"ssispuiitaiypayuirw9eesupaptippi",
"uyururtapyuuyuyupie6e8tstuyuaaai",
"rpritpiuryatutpstiptrautytsurpyr",
"pyauuiyyyptttariapiptysyrytiuurt"
};
