/* XPM */
static char *result[] = {
/* columns rows colors chars-per-pixel */
"32 32 26 1 ",
"  c #292F44",
". c #292F45",
"X c #2A2F44",
"o c #2A2F45",
"O c #8599B1",
"+ c #8799B1",
"@ c #859AB1",
"# c #869AB1",
"$ c #8599B2",
"% c #8699B2",
"& c #859AB2",
"* c #869AB2",
"= c #BCC9DA",
"- c #BCC9DB",
"; c #BEC9DA",
": c #BEC9DB",
"> c #BCCADA",
", c #BCCADB",
"< c #BDCADB",
"1 c #BECADA",
"2 c #E8E3DF",
"3 c #E9E3DF",
"4 c #E8E3E0",
"5 c #E9E3E0",
"6 c #E8E4E0",
"7 c #E9E4E0",
/* pixels */
"526254;1,1-164563467<:==;=562656",
"774764=-:<=<726237561>,::<547736",
"6676,;<=,-,1<>77276773<=:1:<4634",
"256611=>>:>=:176266664<<,=1,3236",
"7567;<1:==->>17722>;;<>=:,1>4237",
"4726>-;>-<;=>-7667>;:,:<:>:;2266",
"7422<:=1@+&*%*->;,+$@+-1-,757624",
"2776<=;>*&$@$#,=,:+*#@>1<;743623",
"66624573,:@$$+-;::%$+%<,,;566775",
"46666766;=+%O&,-=>+$@@1=,1766656",
"67743644;<%@O+@**&@*+#@O@O><;,77",
"63477677;>+O+#@**#&%#&@+*@==<:66",
"336662,<<=&#........$$+&++;<;;67",
"727772<,1=#+........@$**O&->=>22",
"466257-->,+@.. o....@&;>->542672",
"573767;>:-#$.. .....*%;;-;625747",
"775746-;=,@%..o.....*+,::=567264",
"545255>,=;%#........+$1,=:672675",
"46;,<;*$.. o. ...X .  %+<:272726",
"22=<><&&.. .......   .%&-;223376",
"36=<1>O*.. ...... ..*&-176277566",
"67,11;%*.. .X.... ..O*-;42676652",
"5553371---&#.....o..#@1>75525737",
"647764>>:,O%.....X..#@:<73763427",
"666234;=1,%$......... +@11:=3442",
"67777611--**.........X@%=>,=5435",
"4647<;11O&........... ..OO1;5537",
"6277=,=>+@ ..........o..+@=-5563",
"2546:1,=#@..............&+==6763",
"6477>:1-&$  ......... ..%@=;2466",
"657454><#O&%........##+@;>723574",
"322664:<@+@* .......*$#@;-677763"
};
