/* XPM */
static char *result[] = {
/* columns rows colors chars-per-pixel */
"32 32 40 1 ",
"  c #181424",
". c #191424",
"X c #181524",
"o c #191524",
"O c #181425",
"+ c #191425",
"@ c #181525",
"# c #191525",
"$ c #262A44",
"% c #272A44",
"& c #262B44",
"* c #272B44",
"= c #262A45",
"- c #272A45",
"; c #262B45",
": c #272B45",
"> c #8A9AB4",
", c #8B9AB4",
"< c #8A9BB4",
"1 c #8B9BB4",
"2 c #8A9AB5",
"3 c #8B9AB5",
"4 c #8A9BB5",
"5 c #8B9BB5",
"6 c #C0CADC",
"7 c #C1CADC",
"8 c #C0CBDC",
"9 c #C1CBDC",
"0 c #C0CADD",
"q c #C1CADD",
"w c #C0CBDD",
"e c #C1CBDD",
"r c #E8E4E0",
"t c #E9E4E0",
"y c #E8E5E0",
"u c #E9E5E0",
"i c #E8E4E1",
"p c #E9E4E1",
"a c #E8E5E1",
"s c #E9E5E1",
/* pixels */
"tpipuupasuuyiuuapiptypystisapuua",
"iyusuuyiurriaruipayryppiytasussy",
"yspsutspatrrtsuruy6q7eayyisyriry",
"upyaiaurrisparisir6qq6aatyrtaisr",
"pu966079iustyppsua0w80asys76wwpu",
"ts767w6qtayatpytsi79w0yris979qss",
"685<>47qprrs67q8784<43e70wew88w6",
"q73>1569tryyq969q914458w808706ww",
"<<425,4,08082<e66q34,<66997qw7ew",
",1>3<,>1qqw6359q7w23<<ww8600wew6",
",5&::%=$5><,%:4,5552>3,31396tpwq",
"43$.XO@$431<;&3,2<4444><1486yp99",
"&*&o+. *5,,3==113,,5512<3,e6rrta",
"o+ #o#o=21>5=*45>3344>25>5wwtypy",
".o.++ X*$==&=*:*$&11<1wew0pysyta",
"+oXXO@##.X.@X#o+X:214,778wstiiyp",
"#Oo.+@X @O+#O+#XX%1<250008asrpuy",
"X+@.@&&%*%- o$&&-=33>1w0w6ausrrp",
"# @X ;5,53=Xo*5<<>4>51,>15w866is",
"&&:X.=24<3&Oo&1,15<51<<,5469qwuu",
"52-#@&3535$@@;>14>3<1>2<136q6q99",
",<==%;1332&&%:<>434,,45321qe0w80",
"1>,5>2e88w<34<w6w98089994>w8e999",
"11525,09q95<229e7w6e69w8,48q00qw",
"wq0689q00733>4w70966uiys6086w0e8",
"006q78qwq82<52w6e00wurap7qee6e60",
"rtq60qpspy8ww7ssasiirrutq80e0wyy",
"ts6q86puau8q8wpisaayytapq7w00wap",
"ipurrpauus9e90riyyapsyspyiupyaus",
"auayyatusi987eppystuuuyiyprrrtay",
"riiipytrrtiisiptyuyptatpsippaair",
"tsyustryypypyytasiptutpyiyiyuaya"
};
