/* XPM */
static char *result[] = {
/* columns rows colors chars-per-pixel */
"32 32 26 1 ",
"  c #292F44",
". c #292F45",
"X c #2A2F44",
"o c #2A2F45",
"O c #8599B1",
"+ c #8799B1",
"@ c #859AB1",
"# c #869AB1",
"$ c #8599B2",
"% c #8699B2",
"& c #859AB2",
"* c #869AB2",
"= c #BCC9DA",
"- c #BCC9DB",
"; c #BEC9DA",
": c #BEC9DB",
"> c #BCCADA",
", c #BCCADB",
"< c #BDCADB",
"1 c #BECADA",
"2 c #E8E3DF",
"3 c #E9E3DF",
"4 c #E8E3E0",
"5 c #E9E3E0",
"6 c #E8E4E0",
"7 c #E9E4E0",
/* pixels */
"66467643567672274566627725733643",
"53333622757662746727653243366676",
"6762226676,:;>672673567444557457",
"2743427366;<;=257223765335556237",
"64<,>;5466<=<>4267727726==;-=;27",
"55:11:7757>=;-5656222657:,1===76",
"=<1=,>,;;1O@+&>;=::;62531>O@+@>-",
";::,::-<,,@*+O--:=<-74771=O+&%;;",
"=:=<=<11,=O+&*>;:,+&1;><@%....@@",
"=,<<>:-><1@@+*;;,1%%--1:+@....+#",
":>34<,+@%@#&$$&%+$ .&*@@ X o. #$",
"<176;:@#+@+#$@@**+  *O##......#*",
"7676;;$*$$*%....... ............",
"6566>>++%+@&......  ............",
"477627,::>&#......X.  oX........",
"332226;,:=**....................",
"627676>=;-**..o.................",
"567777-,-,@@..  o...............",
"42>11-*#+&+#...... .............",
"67<:>>%$$OO+.........X......... ",
"1<1=>=*@$%@O#+@$%#o...#%$*... %*",
"-=,>-;&$@+%+&#+#@%    &O%*. . &@",
"1<-:=<+&:=<>==,-,;....-,,-&@@$O+",
",:,>=-@*,;;;<1>:==....-:1-O+#&#@",
"1-=>:>1>3647<,->;,$&**->=11>=-<<",
";=<=1;=;7647,<-;->*&O%1>;11=,1>:",
"44;1<-:=5766227765;<>;7446;,1:44",
"56,1;><<4637675645<>113637<=:>56",
"276676262647672772,<<13727776746",
"647662276674676355;==,5767474772",
"27655747667332677462675467625452",
"57627472646637457542365666462663"
};
