/* XPM */
static char *result[] = {
/* columns rows colors chars-per-pixel */
"32 32 40 1 ",
"  c #181424",
". c #191424",
"X c #181524",
"o c #191524",
"O c #181425",
"+ c #191425",
"@ c #181525",
"# c #191525",
"$ c #262A44",
"% c #272A44",
"& c #262B44",
"* c #272B44",
"= c #262A45",
"- c #272A45",
"; c #262B45",
": c #272B45",
"> c #8A9AB4",
", c #8B9AB4",
"< c #8A9BB4",
"1 c #8B9BB4",
"2 c #8A9AB5",
"3 c #8B9AB5",
"4 c #8A9BB5",
"5 c #8B9BB5",
"6 c #C0CADC",
"7 c #C1CADC",
"8 c #C0CBDC",
"9 c #C1CBDC",
"0 c #C0CADD",
"q c #C1CADD",
"w c #C0CBDD",
"e c #C1CBDD",
"r c #E8E4E0",
"t c #E9E4E0",
"y c #E8E5E0",
"u c #E9E5E0",
"i c #E8E4E1",
"p c #E9E4E1",
"a c #E8E5E1",
"s c #E9E5E1",
/* pixels */
"prarpi79w909yipytiaseq6676parypa",
"ssisyi60qe6eurartspa98wqqepissty",
"ayuaw7e6w0w9e8usruauste6q9qeiati",
"rpya99688q86q9sarayayieew69wtrta",
"upyu7e9q660889usrr877e86qw98irts",
"isry80780e7680syau87qwqeq8q7rraa",
"uirreq69<,4535087w,2<,090wupsyri",
"rssye678542<21w6wq,51<89e7sitart",
"yaaripstwq<22,07qq32,3eww7payuup",
"iyyaasaa76,3>4w068,2<<96w9uaaypa",
"yuuityii7e3<>,<554<5,1<><>8e7wss",
"ytiusaus78,>,1<5514314<,5<66eqay",
"ttayyrwee64152><,<4>22,4,,7e77as",
"ursssrew961,14523311<255>40868rr",
"iyyrps008w,<1>&-=;>2<47808pirysr",
"pstuyu78q0122,$@X$1,537707yrpuis",
"sspsia076w<321:++%315,wqq6pasrai",
"piprpp8w673155=o.&43,29w6qyuraup",
"iy7we7525>&:;&; #*&;&&3,eqrsrury",
"rr6e8e443<&XO+.#X;$&$=3407rrttsa",
"ty6e98>523$+@o oX&545409syruspay",
"ysw99735<3&=%=*@#&13>507irasyapr",
"pppttu90004152= @:2>1<98spprputs",
"aiuuai88qw>34<&o+*>,1<qeutuatirs",
"yyyrti769w322>%  :-;$$,<99q6tiir",
"asusua99005543&o o.  %<368w6pitp",
"iyiue799>4=$=&;oOO@.X$5>>>97pptu",
"yruu6w68,<$+XX@@X@##X:>3,<60ppyt",
"rpiyq9w61<=X#X#XX.X#+;>24,66asat",
"yius8q9042&&:X@ o @&;&1>3<67riya",
"ypuipi8e1>43&@XX#XX*11,<78urtpui",
"trrayiqe<,<5$@ +O.@;521<70ysuuat"
};
