/* XPM */
static char *_a78b6720cd84a289002fb1a495f598cjUAl8S7zh6GR6j0B[] = {
/* columns rows colors chars-per-pixel */
"32 32 25 1 ",
"  c None",
". c #8A9AB4",
"X c #8B9AB4",
"o c #8A9BB4",
"O c #8B9BB4",
"+ c #8A9AB5",
"@ c #8B9AB5",
"# c #8A9BB5",
"$ c #8B9BB5",
"% c #C0CADC",
"& c #C1CADC",
"* c #C0CBDC",
"= c #C1CBDC",
"- c #C0CADD",
"; c #C1CADD",
": c #C0CBDD",
"> c #C1CBDD",
", c #E8E4E0",
"< c #E9E4E0",
"1 c #E8E5E0",
"2 c #E9E5E0",
"3 c #E8E4E1",
"4 c #E9E4E1",
"5 c #E8E5E1",
"6 c #E9E5E1",
/* pixels */
"55>#$;$.=5,5555,                ",
"55;O$$$.=5555&;<                ",
"5<;;$...;&;52;;5                ",
"<<5;;;$$OO=5<;55                ",
"55,5%%##$$%,5;54                ",
",5;;%;;OO;;,54<4                ",
"55;1=;;;;;;<5522                ",
",,;,*>=;;;;525<5                ",
"5,555;=>>>5,5<<<                ",
"5&5,;&55,=5=5&52                ",
"5>,55<5<55,,5&55                ",
"5=,,555<2,,55;&5                ",
"5&5,5,<<,55,,=>5                ",
"55,52525525,,,&2                ",
"52,2;&&&;,;;,2,5                ",
"5,2&525<&=,==552                ",
"<2<<,,55;;55&<55                ",
"425525,5&&<,&2,5                ",
"44<5<5&5;&52>>55                ",
"545<25;555555;<<                ",
"52<<11%:&;,531<5                ",
"<<55;;%%&5,,<<15                ",
"5<<<&&;;;522<<<5                ",
"<<<&&$OO&<5;5;<<                ",
"44;>;#OO;>;11;<5                ",
"<<;5;>$$.$*1>%55                ",
"4<;53&$.$.;<;;55                ",
"55;55&.$##;<>%55                ",
"<<,5,;;>***<<25,                ",
"<551<<:&;;55<2,5                ",
"<<5;==*1<5<<5<5<                ",
"5<1:O.;1;;55<555                "
};
