/* XPM */
static char *result[] = {
/* columns rows colors chars-per-pixel */
"32 32 55 1 ",
"  c #181424",
". c #191424",
"X c #181524",
"o c #191524",
"O c #181425",
"+ c #191425",
"@ c #181525",
"# c #191525",
"$ c #262A44",
"% c #272A44",
"& c #262B44",
"* c #272B44",
"= c #262A45",
"- c #272A45",
"; c #262B45",
": c #272B45",
"> c #3A4466",
", c #3B4466",
"< c #3A4566",
"1 c #3B4566",
"2 c #3A4467",
"3 c #3A4567",
"4 c #3B4567",
"5 c #5A6888",
"6 c #5B6888",
"7 c #5A6988",
"8 c #5B6988",
"9 c #5A6889",
"0 c #5B6889",
"q c #5A6989",
"w c #5B6989",
"e c #8A9AB4",
"r c #8B9AB4",
"t c #8A9BB4",
"y c #8B9BB4",
"u c #8A9AB5",
"i c #8B9AB5",
"p c #8A9BB5",
"a c #8B9BB5",
"s c #C0CADC",
"d c #C1CADC",
"f c #C0CBDC",
"g c #C1CBDC",
"h c #C0CADD",
"j c #C1CADD",
"k c #C0CBDD",
"l c #C1CBDD",
"z c #E8E4E0",
"x c #E9E4E0",
"c c #E8E5E0",
"v c #E9E5E0",
"b c #E8E4E1",
"n c #E9E4E1",
"m c #E8E5E1",
"M c #E9E5E1",
/* pixels */
"MMMvcMffyyat58w8q7:&*-;-X.*&+oO@",
"zcMvMMhkruya5768q8$%=$*=+#$* @X ",
"mzbMhgyyyrq7786576*-*;o+@.XO .@@",
"xxbvfstyyy797q7767-*=%O OX+++ .O",
"mmcbkfyiye7858&:%$&&&;@@@OOXOo o",
"bzxbgguyyu6955-&;%*:%-OO@+ +O+@O",
"nbzvkfhjpy8q78;:$=1>><&*X@O@O@o@",
"nMMvdlhliaq659&&%;3>,3&&O.O@ @# ",
"MxmbMvcMkktatt79:*<,12**O+@OXo  ",
"mbmmnMMMfktaye0w;-2144%;#.@..@XO",
"bvvMzMncdfattr0q95$;&&=&:*O +++O",
"cmMMMnMmlsyrpaq78q%&=:%*=&@O+o@@",
"zvMmMmjsttw9q56750&& #$**- o+OX+",
"nmvvcMffpyw765777w&%OO$&&%+ OOOO",
"MvvMcxfksgptepuy78=*+ # +@@+.# @",
"vcMvxnfhfhyteypyq7=&oOO@O #@ .X ",
"Mxcznzgsffyayuua77=-@O@OO#X+@ OO",
"nmzMmvlghsyaruau55$$# @@# @Oo@O@",
"Mvfkggttyt7789q9%%=&$$$$+OOX++@X",
"mxshkseyre877qw9%*&$&*=& @.O. #@",
"mnffffpratqq76q085wq;=&&O@ O*&# ",
"nMdkfsyrty75qq88q8q9&$&$+X++*;.+",
"xbvMvnghdkpeyp6q8777;*OoO.@O*&O.",
"MMMMnMffgsyurpw57q9q$&@XO.O &:O ",
"MmccMbgdhhiary05$;;;;=O@+OO@+OOX",
"nMvcMMkfgsiyer89&&*;&&X.OO.#oOOo",
"MnMnsksgepqqw606$$>>2>-& +@ O# .",
"mMcbfhfhyy78556w&&<>2>$&.+@ @+X ",
"MMnnggkhtaqw6777%%14>,&%#+X.@@X@",
"Mmznflklyr7558w8:;2>>,%&XO+O.@OX",
"xnvnMMlktiyaqqq96q&%$;&&O+&=X+. ",
"MbvncMkjiuaa5755q7*:%*&-O+$: OOO"
};
