/* XPM */
static char *_82d22c085b34519a6173b02d0f2b94242hwJlGO0flQ7gTG[] = {
/* columns rows colors chars-per-pixel */
"16 32 25 1 ",
"  c None",
". c #8A9AB4",
"X c #8B9AB4",
"o c #8A9BB4",
"O c #8B9BB4",
"+ c #8A9AB5",
"@ c #8B9AB5",
"# c #8A9BB5",
"$ c #8B9BB5",
"% c #C0CADC",
"& c #C1CADC",
"* c #C0CBDC",
"= c #C1CBDC",
"- c #C0CADD",
"; c #C1CADD",
": c #C0CBDD",
"> c #C1CBDD",
", c #E8E4E0",
"< c #E9E4E0",
"1 c #E8E5E0",
"2 c #E9E5E0",
"3 c #E8E4E1",
"4 c #E9E4E1",
"5 c #E8E5E1",
"6 c #E9E5E1",
/* pixels */
"5555555&$$&$$-,,",
"5&&555<&$$..$-,,",
"5&&55&::X$X$-&,3",
"55=,5:##$X==-<<,",
"<5=,5&##$$::5333",
"<5555&&$$:&&&&55",
"355,<&&&&&&:5&55",
"555,<&&&--&&<&55",
"25<55<&&=*:555,5",
"45&5=5&5,3:&55=5",
"52=5,,<5,55,5,&<",
"<&=,55<5,5,5,5&5",
"<;&65555<545,5=2",
"5&55555<52,52,25",
"<555&&<&&&=&<445",
"55<&&5&=5555&422",
"<5<&<6;:55<<<<5<",
"5<5&5<&:555<<564",
"55&:<4;&<&55<<5<",
"25>55555<&5565<5",
"22<<5<;:::5,4555",
"22<<5<6&:&&:3555",
"2555<55&&&&&<<55",
"<<&5&<<&$$$&&<5<",
"<5:55&:&$$$&&&55",
"55::5:#X$$=-5-5,",
"5<:&<&$X$X*,5&5,",
"5<&&5&$$$$*<,=,5",
"<<<54&&&:&&5,522",
"<<5<55&:&&55,,22",
"33<5<<555&&:&<54",
"333<55&:5&$$&5<5"
};
