/* XPM */
static char *result[] = {
/* columns rows colors chars-per-pixel */
"32 32 40 1 ",
"  c #262A44",
". c #272A44",
"X c #262B44",
"o c #272B44",
"O c #262A45",
"+ c #272A45",
"@ c #262B45",
"# c #272B45",
"$ c #5A6888",
"% c #5B6888",
"& c #5A6988",
"* c #5B6988",
"= c #5A6889",
"- c #5B6889",
"; c #5A6989",
": c #5B6989",
"> c #8A9AB4",
", c #8B9AB4",
"< c #8A9BB4",
"1 c #8B9BB4",
"2 c #8A9AB5",
"3 c #8B9AB5",
"4 c #8A9BB5",
"5 c #8B9BB5",
"6 c #C0CADC",
"7 c #C1CADC",
"8 c #C0CBDC",
"9 c #C1CBDC",
"0 c #C0CADD",
"q c #C1CADD",
"w c #C0CBDD",
"e c #C1CBDD",
"r c #E8E4E0",
"t c #E9E4E0",
"y c #E8E5E0",
"u c #E9E5E0",
"i c #E8E4E1",
"p c #E9E4E1",
"a c #E8E5E1",
"s c #E9E5E1",
/* pixels */
"irsststaispasytriaattrtrpyyryyat",
"ssysayssyurusupurpipiittprupasrr",
"urpsypuasytaatasps9798yptpusatyy",
"tu997e99pipuuusiri89wwuatye77esu",
"ia60e67qspaiustapy3343rurt6e60yr",
"w725,370sytr8ww06w3253687eeww7e0",
"70<<>>9wttai00q08634<>e0w8ww79wq",
"4513,5229967>,q97e2>3>8w8q<>22,<",
"24524<>,ee0w2>977w;*:=5214<12525",
"<>;$;&*=4<,3$*1,54*XX;1515;*&*>>",
"*-=@  O*3,2,$;<,2>:OX=>455%X#*&%",
"o+ooXo#;34<5;**:*%%.@;<355*#X#OO",
"+X#O.O+**$-&-%.O.O.++=%$;-$#oO.O",
"O#O O@.Oo+#+O#.Oo O+ X#o#o. O#o.",
"Oo@#X oo#X OXO@@@+OoX@+#.##oX++.",
"oO+o@+ #.Oo@ . . #@###@XO@+X+OXo",
"#.#Xo #.o Oo..XXO. XX  ## X@+ #o",
"XXOo +#&$:;**:  + O@O:;;%*:#+@o#",
"@#OX.OO=4>,3*;%*$$%o#;><,5&+..@@",
":;$@. O$2415%&43,,*#X-453>=@#-;&",
"3,:#XOO*5<,2:=<515:o@$,245%Oo;2>",
">4-&-;=%5>54;;3512*&=%1>15;:;=,,",
">,2<55,5ew8w52w0ew>>2,090w4,>5,2",
"3,41,,><096q2<78w85152q099>2>13<",
"w8,252w9rspy6q9qee>,<<w9w079q9q9",
"9941<>0waiir7ew77815>,6869w6eqe8",
"sa8786q0prrruytpytqe7wauip996eia",
"rs9qwq8qupyuatiytt70e8aapi998qiu",
"typiisrytussyirssye7e6asaiirisaa",
"putprpsuyyastapiua888wstraisapas",
"isruarptrruatpyuratsytyiiyuyytyu",
"uiayssiyrsyisrsstrtysutissisyyrp"
};
