/* XPM */
static char *result[] = {
/* columns rows colors chars-per-pixel */
"32 32 40 1 ",
"  c #262A44",
". c #272A44",
"X c #262B44",
"o c #272B44",
"O c #262A45",
"+ c #272A45",
"@ c #262B45",
"# c #272B45",
"$ c #5A6888",
"% c #5B6888",
"& c #5A6988",
"* c #5B6988",
"= c #5A6889",
"- c #5B6889",
"; c #5A6989",
": c #5B6989",
"> c #8A9AB4",
", c #8B9AB4",
"< c #8A9BB4",
"1 c #8B9BB4",
"2 c #8A9AB5",
"3 c #8B9AB5",
"4 c #8A9BB5",
"5 c #8B9BB5",
"6 c #C0CADC",
"7 c #C1CADC",
"8 c #C0CBDC",
"9 c #C1CBDC",
"0 c #C0CADD",
"q c #C1CADD",
"w c #C0CBDD",
"e c #C1CBDD",
"r c #E8E4E0",
"t c #E9E4E0",
"y c #E8E5E0",
"u c #E9E5E0",
"i c #E8E4E1",
"p c #E9E4E1",
"a c #E8E5E1",
"s c #E9E5E1",
/* pixels */
"yrsst7942,*o..# #XX=,>219quuirui",
"urrts90,44;++X@. XO&31,20eiiyyuu",
"ppy9w002,;;# #.X+O.%=;339e0eitry",
"rur7ewe3>$#..X@++XOo *>2w89waayt",
"aat690e2,-Xo+  @O#OO+%22we9epuua",
"upr07962,*&&= O# *;;-;53e87qyupi",
"prtrt99q4123-OXX *1<>3wq68isarry",
"itapy89w><14*@++X$211<7e8qrtrrsi",
"ysyyu7e9,3<2%.##O->2547689trtupa",
"suruu68q4,2<-O+Xo&<>,<wqe9aypsyt",
"ry88,313---:$o#@.%$&;=,31<68w9iu",
"ta9q<,5,:#.o@. @@O..o;>5>>6e86rt",
"st794511$X@o#@O#@#.Oo->3,1ewqqtr",
"ri6e<5><&%*$+@ oX %$=*,313qe86pr",
"iayay6e0w>4$O . ##-5348w96sruiry",
"ituus788e4>&+@ XO.$2>,qwqqptyupt",
"traat088633*OO .o#%>23w97qrytass",
"yyatp609842%+ Xo++%4,3qewqprpapp",
"spiaa66,,&;-%o#oo=-&-%24equsrapi",
"syupa0032=:;-@.#.%%$=;2>96issrtu",
"utrrrasqq335*+#OO=<<<5w6sutrussr",
"uraayut084,<=#Oo#$,,31weyitrsuay",
"tyitpur97155=##Oo=2<1>w6aayptpiy",
"ayapsut70433*.o#O%3211w7rruuriry",
"sps90w9>1--*=#.X $*-&-<,qw77iuyi",
"piu770q4<*XX@ooO#X+.@&<3ew79tisr",
"psae0535>% oO@OOo+X.+:<,4287riis",
"usy99,,5>=X+XXXXoXX.+&5>3>ewitpy",
"yasew15>5=#oX ##X#@X.$3135w8iiay",
"sype05141-;#.X XXXO&=:2>147wypip",
"yptsy7w<52:. X+O.#o->1<,7eyuyssr",
"aaups675,<- o X+O X:3><3qeystsit"
};
