/* XPM */
static char *c2bb592e7eaf4c88e7dbdd7a5f71d771xv3wkckSYYy5KMYi[] = {
/* columns rows colors chars-per-pixel */
"32 32 7 1 ",
"  c #181425",
". c #262B44",
"X c #3A4466",
"o c #5A6988",
"O c #8B9BB4",
"+ c #C0CBDC",
"@ c #E9E5E1",
/* pixels */
"@@@@@@@@@@@@@@@@@@@@@@@@@@@@@@@@",
"@@@@@@@@@@@@@@@@@@@@@@@@@@@@@@@@",
"@@@@@@@@@@++++@@@@@@@@@@@@@@@@@@",
"@@@@@@@@@@++++@@@@@@@@@@@@@@@@@@",
"@@++++@@@@++++@@@@@@@@@@++++++@@",
"@@++++@@@@++++@@@@@@@@@@++++++@@",
"++++++++++OOOO++++++@@@@++OOOO++",
"++++++++++OOOO++++++@@@@++OOOO++",
"OOOOOO++++OOOO++++OO++++OOOOOOOO",
"OOOOOO++++OOOO++++OO++++OOOOOOOO",
"OOooooOOOOooooOOOOooOOOOooooooOO",
"OOooooOOOOooooOOOOooOOOOooooooOO",
"ooooooOOOOooooOOOOooOOOOoooooooo",
"ooooooOOOOooooOOOOooOOOOoooooooo",
"ooooooooooooooOOOOoooooo....oooo",
"ooooooooooooooOOOOoooooo....oooo",
"oo......oooo..oooooooo......oooo",
"oo......oooo..oooooooo......oooo",
"..XXXX..oooo..........XXXX......",
"..XXXX..oooo..........XXXX......",
"..XXXX........      ..XXXX......",
"..XXXX........      ..XXXX......",
"......    ....    ........    ..",
"......    ....    ........    ..",
"                  ....          ",
"                  ....          ",
"..                            ..",
"..                            ..",
"        ....                    ",
"        ....                    ",
"                                ",
"                                "
};
