/* XPM */
static char *e9b76d22dc914a0cf1ef3bbea4e2d8ffc1CaRsG5uIwr0KJ3[] = {
/* columns rows colors chars-per-pixel */
"32 32 6 1",
"  c #291E31",
". c #020202",
"X c #B2A02E",
"o c #D5B907",
"O c #FFE11B",
"+ c #FFF938",
/* pixels */
"                                ",
"                                ",
"                                ",
"                                ",
"                                ",
"                                ",
"                                ",
"                                ",
"            ........            ",
"            ........            ",
"          ..++++++++..          ",
"          ..++++++++..          ",
"        ..++OOOOOOOO++..        ",
"        ..++OOOOOOOO++..        ",
"        ..++OOXXooOO++..        ",
"        ..++OOXXooOO++..        ",
"        ..ooOO++++OOoo..        ",
"        ..ooOO++++OOoo..        ",
"        ..XXOOOOOOOOXX..        ",
"        ..XXOOOOOOOOXX..        ",
"          ..XXooooXX..          ",
"          ..XXooooXX..          ",
"            ........            ",
"            ........            "
"                                ",
"                                ",
"                                ",
"                                ",
"                                ",
"                                ",
"                                ",
"                                ",
};
