/* XPM */
static char *_5fac3b3e21447aacbf3bd412a604291DcA3osvrmIJ6PREL[] = {
/* columns rows colors chars-per-pixel */
"32 32 6 1 ",
"  c None",
". c #111111",
"X c #23162C",
"o c #2F2427",
"O c #4D373C",
"+ c #77584B",
/* pixels */
"                                ",
"                                ",
"                                ",
"                                ",
"    XXXXXXXX        XXXXXXXX    ",
"    XXXXXXXX        XXXXXXXX    ",
"    XXXXXXXX        XXXXXXXX    ",
"    XXXXXXXX        XXXXXXXX    ",
"    XXXX++++XXXXXXXX++++XXXX    ",
"    XXXX++++XXXXXXXX++++XXXX    ",
"    XXXX++++XXXXXXXX++++XXXX    ",
"    XXXX++++XXXXXXXX++++XXXX    ",
"    XXXXOOOO++++++++OOOOXXXX    ",
"    XXXXOOOO++++++++OOOOXXXX    ",
"    XXXXOOOO++++++++OOOOXXXX    ",
"    XXXXOOOO++++++++OOOOXXXX    ",
"XXXXXXXXOOOO........OOOOXXXXXXXX",
"XXXXXXXXOOOO........OOOOXXXXXXXX",
"XXXXXXXXOOOO........OOOOXXXXXXXX",
"XXXXXXXXOOOO........OOOOXXXXXXXX",
"XXXX....ooooOOOOOOOOoooo....XXXX",
"XXXX....ooooOOOOOOOOoooo....XXXX",
"XXXX....ooooOOOOOOOOoooo....XXXX",
"XXXX....ooooOOOOOOOOoooo....XXXX",
"XXXX....oooo........oooo....XXXX",
"XXXX....oooo........oooo....XXXX",
"XXXX....oooo........oooo....XXXX",
"XXXX....oooo........oooo....XXXX",
"XXXXXXXXXXXXXXXXXXXXXXXXXXXXXXXX",
"XXXXXXXXXXXXXXXXXXXXXXXXXXXXXXXX",
"XXXXXXXXXXXXXXXXXXXXXXXXXXXXXXXX",
"XXXXXXXXXXXXXXXXXXXXXXXXXXXXXXXX"
};
