/* XPM */
static char *_7c2fb08e22044018b5f259daf7910besFZydNerC4tMaV5t[] = {
/* columns rows colors chars-per-pixel */
"32 32 18 1 ",
"  c #291E31",
". c #1A0000",
"X c #1A2300",
"o c #29211E",
"O c #141D28",
"+ c #452E25",
"@ c #5A392B",
"# c #764829",
"$ c #A87644",
"% c #CF9B54",
"& c #D7AD7C",
"* c #F4BD64",
"= c #003D98",
"- c #0074B5",
"; c #08BFF1",
": c #21FFFF",
"> c #E8D6BA",
", c gray91",
/* pixels */
"                                ",
"                                ",
"      ......................    ",
"      ......................    ",
"    ..****%%$$$$$$$$%%****..    ",
"    ..****%%$$$$$$$$%%****..    ",
"  ..oo**++oooooooooooo++**..    ",
"  ..oo**++oooooooooooo++**..    ",
"  ..++%%oo@@XX::;;XX@@oo%%..    ",
"  ..++%%oo@@XX::;;XX@@oo%%..    ",
"  ..++$$oo##::,,==--##oo$$..    ",
"  ..++$$oo##::,,==--##oo$$..    ",
"  ..++$$oo##;;OOOO--##oo$$..    ",
"  ..++$$oo##;;OOOO--##oo$$..    ",
"  ..++$$oo##--====::##oo$$..    ",
"  ..++$$oo##--====::##oo$$..    ",
"  ..++%%oo@@XX--::XX@@oo%%..    ",
"  ..++%%oo@@XX--::XX@@oo%%..    ",
"  ..++**++oooooooooooo++**..    ",
"  ..++**++oooooooooooo++**..    ",
"  ..++****%%$$$$$$$$%%****..    ",
"  ..++****%%$$$$$$$$%%****..    ",
"  ..oo++++############++++..    ",
"  ..oo++++############++++..    ",
"  ..++oo&&>>>>>>>>>>>>>>....    ",
"  ..++oo&&>>>>>>>>>>>>>>....    ",
"    ..@@@@############@@++..    ",
"    ..@@@@############@@++..    ",
"      ......................    ",
"      ......................    ",
"                                ",
"                                "
};
