/* XPM */
static char *_c0c7316eda942b0905ad278ec9b1141dBzrBBJszjI86I3k[] = {
/* cOlumns rOws cOlOrs chars-per-pixel */
"32 32 6 1 ",
"  c #2F2637",
". c #5B3144",
"X c #604847",
"o c #785853",
"+ c #90685F",
"O c #A7856B",
/* pixels */    
"++++OOOOOOOO++++............    ",
"++++OOOOOOOO++++............    ",
"++++OOOOOOOO++++............    ",
"++++OOOOOOOO++++............    ",
"++++OOOOOOOO++++XXXXXXXXXXXX....",
"++++OOOOOOOO++++XXXXXXXXXXXX....",
"++++OOOOOOOO++++XXXXXXXXXXXX....",
"++++OOOOOOOO++++XXXXXXXXXXXX....",
"++++oooooooo++++            XXXX",
"++++oooooooo++++            XXXX",
"++++oooooooo++++            XXXX",
"++++oooooooo++++            XXXX",
"++++OOOOOOOO++++............    ",
"++++OOOOOOOO++++............    ",
"++++OOOOOOOO++++............    ",
"++++OOOOOOOO++++............    ",
"++++OOOOOOOO++++XXXXXXXXXXXX....",
"++++OOOOOOOO++++XXXXXXXXXXXX....",
"++++OOOOOOOO++++XXXXXXXXXXXX....",
"++++OOOOOOOO++++XXXXXXXXXXXX....",
"++++OOOOOOOO++++    ....        ",
"++++OOOOOOOO++++    ....        ",
"++++OOOOOOOO++++    ....        ",
"++++OOOOOOOO++++    ....        ",
"++++oooooooo++++XXXXXXXXXXXX....",
"++++oooooooo++++XXXXXXXXXXXX....",
"++++oooooooo++++XXXXXXXXXXXX....",
"++++oooooooo++++XXXXXXXXXXXX....",
"++++OOOOOOOO++++                ",
"++++OOOOOOOO++++                ",
"++++OOOOOOOO++++                ",
"++++OOOOOOOO++++                "
};
