/* XPM */
static char *dfa67250808f49dceee3b90a24cbccf1xhpMQaBHljJXV95P[] = {
/* columns rows colors chars-per-pixel */
"32 32 6 1 ",
"  c #291E31",
". c #5B3144",
"X c #604847",
"o c #785853",
"+ c #90685F",
"O c #A7856B",
"                ++++OOOOOOOO++++",
"                ++++OOOOOOOO++++",
"                ++++OOOOOOOO++++",
"                ++++OOOOOOOO++++",
"                ++++OOOOOOOO++++",
"                ++++OOOOOOOO++++",
"                ++++OOOOOOOO++++",
"                ++++OOOOOOOO++++",
"                ++++oooooooo++++",
"                ++++oooooooo++++",
"                ++++oooooooo++++",
"                ++++oooooooo++++",
"                ++++OOOOOOOO++++",
"                ++++OOOOOOOO++++",
"                ++++OOOOOOOO++++",
"                ++++OOOOOOOO++++",
"                ++++OOOOOOOO++++",
"                ++++OOOOOOOO++++",
"                ++++OOOOOOOO++++",
"                ++++OOOOOOOO++++",
"                ++++OOOOOOOO++++",
"                ++++OOOOOOOO++++",
"                ++++OOOOOOOO++++",
"                ++++OOOOOOOO++++",
"                ++++oooooooo++++",
"                ++++oooooooo++++",
"                ++++oooooooo++++",
"                ++++oooooooo++++",
"                ++++OOOOOOOO++++",
"                ++++OOOOOOOO++++",
"                ++++OOOOOOOO++++",
"                ++++OOOOOOOO++++"
};
