/* XPM */
static char *_c0c7316eda942b0905ad278ec9b1141dBzrBBJszjI86I3k[] = {
/* columns rows colors chars-per-pixel */
"32 32 4 1 ",
"  c None",
". c #785853",
"X c #90685F",
"o c #A7856B",
/* pixels */
"                XXXXooooooooXXXX",
"                XXXXooooooooXXXX",
"                XXXXooooooooXXXX",
"                XXXXooooooooXXXX",
"                XXXXooooooooXXXX",
"                XXXXooooooooXXXX",
"                XXXXooooooooXXXX",
"                XXXXooooooooXXXX",
"                XXXX........XXXX",
"                XXXX........XXXX",
"                XXXX........XXXX",
"                XXXX........XXXX",
"                XXXXooooooooXXXX",
"                XXXXooooooooXXXX",
"                XXXXooooooooXXXX",
"                XXXXooooooooXXXX",
"                XXXXooooooooXXXX",
"                XXXXooooooooXXXX",
"                XXXXooooooooXXXX",
"                XXXXooooooooXXXX",
"                XXXXooooooooXXXX",
"                XXXXooooooooXXXX",
"                XXXXooooooooXXXX",
"                XXXXooooooooXXXX",
"                XXXX........XXXX",
"                XXXX........XXXX",
"                XXXX........XXXX",
"                XXXX........XXXX",
"                XXXXooooooooXXXX",
"                XXXXooooooooXXXX",
"                XXXXooooooooXXXX",
"                XXXXooooooooXXXX"
};
