/* XPM */
static char *dfa67250808f49dceee3b90a24cbccf1xhpMQaBHljJXV95P[] = {
/* columns rows colors chars-per-pixel */
"32 32 4 1 ",
"  c None",
". c #785853",
"X c #90685F",
"o c #A7856B",
/* pixels */
"XXXXooooooooXXXX                ",
"XXXXooooooooXXXX                ",
"XXXXooooooooXXXX                ",
"XXXXooooooooXXXX                ",
"XXXXooooooooXXXX                ",
"XXXXooooooooXXXX                ",
"XXXXooooooooXXXX                ",
"XXXXooooooooXXXX                ",
"XXXX........XXXX                ",
"XXXX........XXXX                ",
"XXXX........XXXX                ",
"XXXX........XXXX                ",
"XXXXooooooooXXXX                ",
"XXXXooooooooXXXX                ",
"XXXXooooooooXXXX                ",
"XXXXooooooooXXXX                ",
"XXXXooooooooXXXX                ",
"XXXXooooooooXXXX                ",
"XXXXooooooooXXXX                ",
"XXXXooooooooXXXX                ",
"XXXXooooooooXXXX                ",
"XXXXooooooooXXXX                ",
"XXXXooooooooXXXX                ",
"XXXXooooooooXXXX                ",
"XXXX........XXXX                ",
"XXXX........XXXX                ",
"XXXX........XXXX                ",
"XXXX........XXXX                ",
"XXXXooooooooXXXX                ",
"XXXXooooooooXXXX                ",
"XXXXooooooooXXXX                ",
"XXXXooooooooXXXX                "
};
