/* XPM */
static char *dfa67250808f49dceee3b90a24cbccf1xhpMQaBHljJXV95P[] = {
/* columns rows colors chars-per-pixel */
"32 32 6 1 ",
"  c #2F2637",
". c #5B3144",
"X c #604847",
"o c #785853",
"+ c #90685F",
"O c #A7856B",
/* pixels */
"    ............++++OOOOOOOO++++",
"    ............++++OOOOOOOO++++",
"    ............++++OOOOOOOO++++",
"    ............++++OOOOOOOO++++",
"....XXXXXXXXXXXX++++OOOOOOOO++++",
"....XXXXXXXXXXXX++++OOOOOOOO++++",
"....XXXXXXXXXXXX++++OOOOOOOO++++",
"....XXXXXXXXXXXX++++OOOOOOOO++++",
"XXXX            ++++oooooooo++++",
"XXXX            ++++oooooooo++++",
"XXXX            ++++oooooooo++++",
"XXXX            ++++oooooooo++++",
"    ............++++OOOOOOOO++++",
"    ............++++OOOOOOOO++++",
"    ............++++OOOOOOOO++++",
"    ............++++OOOOOOOO++++",
"....XXXXXXXXXXXX++++OOOOOOOO++++",
"....XXXXXXXXXXXX++++OOOOOOOO++++",
"....XXXXXXXXXXXX++++OOOOOOOO++++",
"....XXXXXXXXXXXX++++OOOOOOOO++++",
"    ..    ..    ++++OOOOOOOO++++",
"    ..    ..    ++++OOOOOOOO++++",
"    ..    ..    ++++OOOOOOOO++++",
"    ..    ..    ++++OOOOOOOO++++",
"....XXXXXXXXXXXX++++oooooooo++++",
"....XXXXXXXXXXXX++++oooooooo++++",
"....XXXXXXXXXXXX++++oooooooo++++",
"....XXXXXXXXXXXX++++oooooooo++++",
"                ++++OOOOOOOO++++",
"                ++++OOOOOOOO++++",
"                ++++OOOOOOOO++++",
"                ++++OOOOOOOO++++"
};
