/* XPM */
static char *b21afe03f20f42d38453bafc70e06f6dl2qe3hl1YAIO259k[] = {
/* columns rows colors chars-per-pixel */
"32 32 6 1 ",
"  c #2F2637",
". c #5B3144",
"X c #604847",
"o c #785853",
"O c #90685F",
"+ c #A7856B",
/* pixels */
"OOOOOOOOOOOOOOOOOOOOOOOOOOOOOOOO",
"OOOOOOOOOOOOOOOOOOOOOOOOOOOOOOOO",
"OOOOOOOOOOOOOOOOOOOOOOOOOOOOOOOO",
"OOOOOOOOOOOOOOOOOOOOOOOOOOOOOOOO",
"oooo++++++++++++oooo++++++++OOOO",
"oooo++++++++++++oooo++++++++OOOO",
"oooo++++++++++++oooo++++++++OOOO",
"oooo++++++++++++oooo++++++++OOOO",
"XXXXOOOOOOOOOOOOOOOOooooooooOOOO",
"XXXXOOOOOOOOOOOOOOOOooooooooOOOO",
"XXXXOOOOOOOOOOOOOOOOooooooooOOOO",
"XXXXOOOOOOOOOOOOOOOOooooooooOOOO",
"    ............OOOO++++++++OOOO",
"    ............OOOO++++++++OOOO",
"    ............OOOO++++++++OOOO",
"    ............OOOO++++++++OOOO",
"....XXXXXXXXXXXXOOOO++++++++OOOO",
"....XXXXXXXXXXXXOOOO++++++++OOOO",
"....XXXXXXXXXXXXOOOO++++++++OOOO",
"....XXXXXXXXXXXXOOOO++++++++OOOO",
"    ....        OOOO++++++++OOOO",
"    ....        OOOO++++++++OOOO",
"    ....        OOOO++++++++OOOO",
"    ....        OOOO++++++++OOOO",
"....XXXXXXXX    OOOOooooooooOOOO",
"....XXXXXXXX    OOOOooooooooOOOO",
"....XXXXXXXX    OOOOooooooooOOOO",
"....XXXXXXXX    OOOOooooooooOOOO",
"                OOOO++++++++OOOO",
"                OOOO++++++++OOOO",
"                OOOO++++++++OOOO",
"                OOOO++++++++OOOO"
};
