/* XPM */
static char *_49eec7c4ee74f39dd07e569588a528c8YCVZuAiQwqEdgBJ[] = {
/* columns rows colors chars-per-pixel */
"32 32 6 1 ",
"  c #2F2637",
". c #5B3144",
"X c #604847",
"o c #785853",
"O c #90685F",
"+ c #A7856B",
/* pixels */
"OOOOOOOOOOOOOOOOOOOOOOOOOOOOOOOO",
"OOOOOOOOOOOOOOOOOOOOOOOOOOOOOOOO",
"OOOOOOOOOOOOOOOOOOOOOOOOOOOOOOOO",
"OOOOOOOOOOOOOOOOOOOOOOOOOOOOOOOO",
"OOOO++++++++oooo++++++++++++oooo",
"OOOO++++++++oooo++++++++++++oooo",
"OOOO++++++++oooo++++++++++++oooo",
"OOOO++++++++oooo++++++++++++oooo",
"OOOOooooooooOOOOOOOOOOOOOOOOXXXX",
"OOOOooooooooOOOOOOOOOOOOOOOOXXXX",
"OOOOooooooooOOOOOOOOOOOOOOOOXXXX",
"OOOOooooooooOOOOOOOOOOOOOOOOXXXX",
"OOOO++++++++OOOO............    ",
"OOOO++++++++OOOO............    ",
"OOOO++++++++OOOO............    ",
"OOOO++++++++OOOO............    ",
"OOOO++++++++OOOOXXXXXXXXXXXX....",
"OOOO++++++++OOOOXXXXXXXXXXXX....",
"OOOO++++++++OOOOXXXXXXXXXXXX....",
"OOOO++++++++OOOOXXXXXXXXXXXX....",
"OOOO++++++++OOOO    ....        ",
"OOOO++++++++OOOO    ....        ",
"OOOO++++++++OOOO    ....        ",
"OOOO++++++++OOOO    ....        ",
"OOOOooooooooOOOOXXXXXXXXXXXX....",
"OOOOooooooooOOOOXXXXXXXXXXXX....",
"OOOOooooooooOOOOXXXXXXXXXXXX....",
"OOOOooooooooOOOOXXXXXXXXXXXX....",
"OOOO++++++++OOOO                ",
"OOOO++++++++OOOO                ",
"OOOO++++++++OOOO                ",
"OOOO++++++++OOOO                "
};
