/* XPM */
static char *_f99461448464c1cbf73550a3f4a20e54IUbw3Mx5etG5f5B[] = {
/* columns rows colors chars-per-pixel */
"32 32 5 1 ",
"  c #222E53",
". c #5F5750",
"X c #82759A",
"o c #C0C1C5",
"O c #FFF0E7",
/* pixels */
"oooo....OOOOoooooooooooooooooooo",
"oooo....OOOOoooooooooooooooooooo",
"oooo....OOOOoooooooooooooooooooo",
"oooo....OOOOoooooooooooooooooooo",
"XXXX    oooooooooooooooooooooooo",
"XXXX    oooooooooooooooooooooooo",
"XXXX    oooooooooooooooooooooooo",
"XXXX    oooooooooooooooooooooooo",
"XXXX....ooooXXXXXXXXXXXXXXXXXXXX",
"XXXX....ooooXXXXXXXXXXXXXXXXXXXX",
"XXXX....ooooXXXXXXXXXXXXXXXXXXXX",
"XXXX....ooooXXXXXXXXXXXXXXXXXXXX",
"....    ........    ....        ",
"....    ........    ....        ",
"....    ........    ....        ",
"....    ........    ....        ",
"ooooooooooooXXXX....OOOOoooooooo",
"ooooooooooooXXXX....OOOOoooooooo",
"ooooooooooooXXXX....OOOOoooooooo",
"ooooooooooooXXXX....OOOOoooooooo",
"ooooooooooooXXXX....oooooooooooo",
"ooooooooooooXXXX....oooooooooooo",
"ooooooooooooXXXX....oooooooooooo",
"ooooooooooooXXXX....oooooooooooo",
"XXXXXXXXXXXXXXXX....ooooXXXXXXXX",
"XXXXXXXXXXXXXXXX....ooooXXXXXXXX",
"XXXXXXXXXXXXXXXX....ooooXXXXXXXX",
"XXXXXXXXXXXXXXXX....ooooXXXXXXXX",
"        ........    ............",
"        ........    ............",
"        ........    ............",
"        ........    ............"
};
