/* XPM */
static char *_e6fbb3bb7654b899569e4f0362656a5nBaBqDiL0NjidBkE[] = {
/* columns rows colors chars-per-pixel */
"32 32 6 1 ",
"  c #2F2637",
". c #5B3144",
"X c #604847",
"o c #785853",
"O c #90685F",
"+ c #A7856B",
/* pixels */
"OOOO++++++++ooooOOOOOOOOOOOOOOOO",
"OOOO++++++++ooooOOOOOOOOOOOOOOOO",
"OOOO++++++++ooooOOOOOOOOOOOOOOOO",
"OOOO++++++++ooooOOOOOOOOOOOOOOOO",
"oooo++++++++oooo++++++++++++oooo",
"oooo++++++++oooo++++++++++++oooo",
"oooo++++++++oooo++++++++++++oooo",
"oooo++++++++oooo++++++++++++oooo",
"XXXXOOOOOOOOOOOOOOOOOOOOOOOOXXXX",
"XXXXOOOOOOOOOOOOOOOOOOOOOOOOXXXX",
"XXXXOOOOOOOOOOOOOOOOOOOOOOOOXXXX",
"XXXXOOOOOOOOOOOOOOOOOOOOOOOOXXXX",
"    ........................    ",
"    ........................    ",
"    ........................    ",
"    ........................    ",
"....XXXXXXXXXXXXXXXXXXXXXXXX....",
"....XXXXXXXXXXXXXXXXXXXXXXXX....",
"....XXXXXXXXXXXXXXXXXXXXXXXX....",
"....XXXXXXXXXXXXXXXXXXXXXXXX....",
"    ....            ....        ",
"    ....            ....        ",
"    ....            ....        ",
"    ....            ....        ",
"....XXXXXXXX    XXXXXXXXXXXX....",
"....XXXXXXXX    XXXXXXXXXXXX....",
"....XXXXXXXX    XXXXXXXXXXXX....",
"....XXXXXXXX    XXXXXXXXXXXX....",
"                                ",
"                                ",
"                                ",
"                                "
};
