/* XPM */
static char *result[] = {
/* columns rows colors chars-per-pixel */
"32 32 20 1 ",
"  c #181425",
". c #262B44",
"X c #0B0B0B",
"o c #9C503F",
"O c #F3B289",
"+ c #9D9C95",
"@ c gray30",
"# c gray82",
"$ c #C47354",
"% c #979797",
"& c white",
"* c #5F1F23",
"= c #6E3619",
"- c #FFFEC0",
"; c #8F5D1E",
": c #FFFFFB",
"> c #F0E145",
", c #FFFE4E",
"< c #CDAA35",
"1 c #A37325",
/* pixels */
"  ............      ............",
"  ............      ............",
"..  ........  ....  ............",
"..  ........  ....  ............",
"....  ....  ........  ..........",
"....  ....  ........  ..........",
"......    ...XXXXXX...  ........",
"......    ...XXXXXX...  ........",
"......  ...XXoOOOooX....  ......",
"......  ..X++OOOOOO@XX..  ......",
"....    ..X++OOOOOO@XX....  ....",
"....    ..X##$OOO$$%XX....  ....",
"        ..X&&*ooo**%XX....      ",
"        ..X&&*ooo**%XX....      ",
"..        X++&&&&##+XX....    ..",
"..        X==####++=XX....    ..",
"....      X==####++=XX....  ....",
"....    XX#--=;;;===++X...  ....",
"....  ..XX&::->>,>>;++X.  ......",
"....  ..XX&::->>,>>;++X.  ......",
"..  ....XX&:::<<<<<>##X ........",
"..  ....XX&::,---,,<##X ........",
"  ......XX&::,---,,<##X.........",
"  ......XX#--<<<<<<<##X.........",
"........XX+--1<<<<<;++X.......  ",
"........XX+--1<<<<<;++X.......  ",
"........XX+##=;;;;;=++X ....    ",
"..........X++&&&###+XX  ....    ",
"..........X++&&&###+XX          ",
"...........XXXXXXXXX            ",
"................      ........  ",
"................      ........  "
};
