/* XPM */
static char *result[] = {
/* columns rows colors chars-per-pixel */
"32 32 20 1 ",
"  c #181425",
". c #262B44",
"X c #0B0B0B",
"o c #9C503F",
"O c #F3B289",
"+ c #9F9C95",
"@ c gray30",
"# c gray82",
"$ c #C47354",
"% c #979797",
"& c white",
"* c #5F1F23",
"= c #40195F",
"- c #F7D4FC",
"; c #4B237E",
": c #FFFFFB",
"> c #B04AF7",
", c #E179F8",
"< c #6E38C4",
"1 c #EBB0FA",
/* pixels */
"  ............      ............",
"  ............      ............",
"..  ........  ....  ............",
"..  ........  ....  ............",
"....  ....  .XXXXXX.  ..........",
"....  ....  .XXXXXX.  ..........",
"......    .XXoOOOooX..  ........",
"......    X++OOOOOO@XX  ........",
"......  ..X++OOOOOO@XX..  ......",
"......  ..X##$OOO$$%XX..  ......",
"....    ..X&&*ooo**%XX....  ....",
"....    ..X&&*ooo**%XX....  ....",
"        ..X++&&&&##+XX....      ",
"        ..X==####++=XX....      ",
"..        X==####++=XX....    ..",
"..      XX#--=;;;===++X...    ..",
"....    XX&::->>,>>;++X...  ....",
"....    XX&::->>,>>;++X...  ....",
"....  ..XX&:::<<<<<>##X.  ......",
"....  ..XX&::,111,,<##X.  ......",
"..  ....XX&::,111,,<##X ........",
"..  ....XX#--<<<<<<<##X ........",
"  ......XX+--;<<<<<;++X.........",
"  ......XX+--;<<<<<;++X.........",
"........XX+##=;;;;;=++X.......  ",
"..........X++&&&###+XX........  ",
"..........X++&&&###+XX  ....    ",
"...........XXXXXXXXX    ....    ",
"..................              ",
"..................              ",
"................      ........  ",
"................      ........  "
};
