/* XPM */
static char *result[] = {
/* columns rows colors chars-per-pixel */
"32 32 20 1 ",
"  c #181425",
". c #262B44",
"X c #0B0B0B",
"o c #9C503F",
"O c #F3B289",
"+ c #9D9C95",
"@ c gray30",
"# c gray82",
"$ c #C47354",
"% c #979797",
"& c white",
"* c #5F1F23",
"= c #87002F",
"- c #FFF3C0",
"; c #A50034",
": c #FFFFFB",
"> c #FFB053",
", c #FFDB56",
"< c #FE6549",
"1 c #BF233B",
/* pixels */
"  ............      ............",
"  ............      ............",
"..  ........  ....  ............",
"..  ........  ....  ............",
"....  ....  ........  ..........",
"....  ....  ........  ..........",
"......    ............  ........",
"......    ............  ........",
"......  ................  ......",
"......  ................  ......",
"....    ..................  ....",
"....    ..................  ....",
"        ..................      ",
"        ......XXXX........      ",
"..        ...XoOOoX.......    ..",
"..        ..X+OOOO@X......    ..",
"....        X#$OO$%X......  ....",
"....        X&*oo*%X......  ....",
"....  ......X+&&&#+X....  ......",
"....  ......X=###+=X....  ......",
"..  .......X#-=;;==+X.  ........",
"..  .......X&:->,>;+X.  ........",
"  .........X&::<<<>#X ..........",
"  .........X&:,--,<#X ..........",
"...........X#-<<<<<#X ........  ",
"...........X+-1<<<;+X ........  ",
"...........X+#=;;;=+X   ....    ",
"............X+&&##+X    ....    ",
".............XXXXXX             ",
"..................              ",
"................      ........  ",
"................      ........  "
};
