/* XPM */
static char *result[] = {
/* columns rows colors chars-per-pixel */
"32 32 21 1 ",
"  c #181425",
". c #262B44",
"X c #0B0B0B",
"o c #9C503F",
"O c #F3B289",
"+ c #9D9C95",
"@ c gray30",
"# c gray82",
"$ c #C47354",
"% c #979797",
"& c white",
"* c #5F1F23",
"= c #571E46",
"- c #FFF8CB",
"; c #901553",
": c #FFFFFB",
"> c #FF4B75",
", c #FF9C88",
"< c #FF0056",
"1 c #FFCCA9",
"2 c #CB0049",
/* pixels */
"  ............      ............",
"  ............      ............",
"..  ........  ....  ............",
"..  ........  ....  ............",
"....  ....  ........  ..........",
"....  ....  ........  ..........",
"......    ............  ........",
"......    ............  ........",
"......  ................  ......",
"......  ................  ......",
"....    ..................  ....",
"....    ..................  ....",
"        ..................      ",
"        ..................      ",
"..        ................    ..",
"..        ....XXXX........    ..",
"....        .XoOOoX.......  ....",
"....        X+OOOO@X......  ....",
"....  ......X#$OO$%X....  ......",
"....  ......X&*oo*%X....  ......",
"..  ........X+&&&#+X..  ........",
"..  ........X=###+=X..  ........",
"  .........X#-=;;==+X ..........",
"  .........X&:->,>;+X ..........",
"...........X&::<<<>#X ........  ",
"...........X&:,11,<#X ........  ",
"...........X#-<<<<<#X   ....    ",
"...........X+-2<<<2+X   ....    ",
"...........X+#=222=+X           ",
"............X+&&##+X            ",
".............XXXXXX   ........  ",
"................      ........  "
};
