/* XPM */
static char *result[] = {
/* columns rows colors chars-per-pixel */
"32 32 20 1 ",
"  c #181425",
". c #262B44",
"X c #0B0B0B",
"o c #9C503F",
"O c #F3B289",
"+ c #A09B95",
"@ c gray30",
"# c gray82",
"$ c #C47354",
"% c #979797",
"& c white",
"* c #5F1F23",
"= c #274129",
"- c #E0FBD2",
"; c #346031",
": c #FFFEFB",
"> c #89B638",
", c #C9D842",
"< c #5D9736",
"1 c #FEEA48",
/* pixels */
"  ............      ............",
"  ............      ............",
"..  ........  ....  ............",
"..  ........  ....  ............",
"....  ....  ........  ..........",
"....  ....  ........  ..........",
"......    ............  ........",
"......    ............  ........",
"......  ......XXXX......  ......",
"......  .....XoOOoX.....  ......",
"....    ....X+OOOO@X......  ....",
"....    ....X#$OO$%X......  ....",
"        ....X&*oo*%X......      ",
"        ....X+&&&#+X......      ",
"..        ..X=###+=X......    ..",
"..        .X#-=;;==+X.....    ..",
"....       X&:->,>;+X.....  ....",
"....       X&::<<<>#X.....  ....",
"....  .....X&:,11,<#X...  ......",
"....  .....X#-<<<<<#X...  ......",
"..  .......X+-;<<<;+X.  ........",
"..  .......X+#=;;;=+X.  ........",
"  ..........X+&&##+X  ..........",
"  ...........XXXXXX   ..........",
"..................    ........  ",
"..................    ........  ",
"..................      ....    ",
"..................      ....    ",
"..................              ",
"..................              ",
"................      ........  ",
"................      ........  "
};
