/* XPM */
static char *result[] = {
/* columns rows colors chars-per-pixel */
"32 32 20 1 ",
"  c #181425",
". c #262B44",
"X c #0B0B0B",
"o c #9C503F",
"O c #F3B289",
"+ c #999E96",
"@ c gray30",
"# c gray82",
"$ c #C47354",
"% c #979797",
"& c white",
"* c #5F1F23",
"= c #610040",
"- c #FFCDED",
"; c #7D0057",
": c #FEFFFB",
"> c #FF00AC",
", c #FF4DC6",
"< c #BE0087",
"1 c #FFA1DB",
/* pixels */
"  ............      ............",
"  ............      ............",
"..  ........  ....  ............",
"..  ........  ....  ............",
"....  ....  ........  ..........",
"....  ....  ........  ..........",
"......    ............  ........",
"......    ............  ........",
"......  ................  ......",
"......  ................  ......",
"....    ..................  ....",
"....    ..................  ....",
"        ......XXXX........      ",
"        .....XoOOoX.......      ",
"..        ..X+OOOO@X......    ..",
"..        ..X#$OO$%X......    ..",
"....        X&*oo*%X......  ....",
"....        X+&&&#+X......  ....",
"....  ......X=###+=X....  ......",
"....  .....X#-=;;==+X...  ......",
"..  .......X&:->,>;+X.  ........",
"..  .......X&::<<<>#X.  ........",
"  .........X&:,11,<#X ..........",
"  .........X#-<<<<<#X ..........",
"...........X+-;<<<;+X ........  ",
"...........X+#=;;;=+X ........  ",
"............X+&&##+X    ....    ",
".............XXXXXX     ....    ",
"..................              ",
"..................              ",
"................      ........  ",
"................      ........  "
};
