/* XPM */
static char *result[] = {
/* columns rows colors chars-per-pixel */
"32 32 20 1 ",
"  c #181425",
". c #262B44",
"X c #0B0B0B",
"o c #9C503F",
"O c #F3B289",
"+ c #999E96",
"@ c gray30",
"# c gray82",
"$ c #C47354",
"% c #979797",
"& c white",
"* c #5F1F23",
"= c #610040",
"- c #FFCDED",
"; c #7D0057",
": c #FEFFFB",
"> c #FF00AC",
", c #FF4DC6",
"< c #BE0087",
"1 c #FFA1DB",
/* pixels */
"  ............      ............",
"  ............      ............",
"..  ........  ....  ............",
"..  ........  ....  ............",
"....  ....  ........  ..........",
"....  ....  ........  ..........",
"......    ............  ........",
"......    ...XXXXXX...  ........",
"......  .....XXXXXX.....  ......",
"......  ...XXoOOOooX....  ......",
"....    ..X++OOOOOO@XX....  ....",
"....    ..X++OOOOOO@XX....  ....",
"        ..X##$OOO$$%XX....      ",
"        ..X&&*ooo**%XX....      ",
"..        X&&*ooo**%XX....    ..",
"..        X++&&&&##+XX....    ..",
"....      X==####++=XX....  ....",
"....      X==####++=XX....  ....",
"....  ..XX#--=;;;===++X.  ......",
"....  ..XX&::->>,>>;++X.  ......",
"..  ....XX&::->>,>>;++X ........",
"..  ....XX&:::<<<<<>##X ........",
"  ......XX&::,111,,<##X.........",
"  ......XX&::,111,,<##X.........",
"........XX#--<<<<<<<##X.......  ",
"........XX+--;<<<<<;++X.......  ",
"........XX+--;<<<<<;++X ....    ",
"........XX+##=;;;;;=++X ....    ",
"..........X++&&&###+XX          ",
"..........X++&&&###+XX          ",
"...........XXXXXXXXX  ........  ",
"................      ........  "
};
