/* XPM */
static char *result[] = {
/* columns rows colors chars-per-pixel */
"32 32 202 2 ",
"   c #181425",
".  c #18162A",
"X  c #1D3055",
"o  c #262B44",
"O  c #262B45",
"+  c #262B46",
"@  c #262D49",
"#  c #252C4B",
"$  c #262D4A",
"%  c #252E4E",
"&  c #262F4F",
"*  c #252F50",
"=  c #233059",
"-  c #26345B",
";  c #25335D",
":  c #1F3672",
">  c #1F3574",
",  c #213265",
"<  c #213367",
"1  c #243564",
"2  c #263A67",
"3  c #20346D",
"4  c #253C6F",
"5  c #253D72",
"6  c #243B74",
"7  c #23486E",
"8  c #25427F",
"9  c #1C3985",
"0  c #1D3A84",
"q  c #1C3986",
"w  c #1A3F9A",
"e  c #1E4593",
"r  c #22448C",
"t  c #204494",
"y  c #234694",
"u  c #1F4CAA",
"i  c #1D4BB0",
"p  c #2351A8",
"a  c #2554AA",
"s  c #2458B7",
"d  c #2E6FB1",
"f  c #327EB8",
"g  c #033CF0",
"h  c #184EC2",
"j  c #134AC8",
"k  c #134AC9",
"l  c #124BCF",
"z  c #104AD0",
"x  c #235CC3",
"c  c #235AC5",
"v  c #235AC6",
"b  c #235FCA",
"n  c #2363D2",
"m  c #2264DF",
"M  c #0D47E7",
"N  c #0C4FEB",
"B  c #0F50E7",
"V  c #0F51E8",
"C  c #0E52E9",
"Z  c #185BEA",
"A  c #185DEF",
"S  c #0645F0",
"D  c #0647F0",
"F  c #0A4BF4",
"G  c #0F4DF7",
"H  c #0B50F2",
"J  c #0B51F2",
"K  c #0D52F2",
"L  c #0D54F3",
"P  c #0E52F4",
"I  c #0D54F4",
"U  c #0F59F4",
"Y  c #1157F7",
"T  c #115EF4",
"R  c #115FF5",
"E  c #155FF7",
"W  c #1658FB",
"Q  c #165EF9",
"!  c #1260F5",
"~  c #1E67F2",
"^  c #1A61FC",
"/  c #1E65FF",
"(  c #1F65FF",
")  c #1A68FB",
"_  c #1E68FF",
"`  c #1F6AFF",
"'  c #1F6CFF",
"]  c #1B71F7",
"[  c #2067FF",
"{  c #216EFA",
"}  c #2169FF",
"|  c #206BFF",
" . c #226DFF",
".. c #206EFF",
"X. c #2170FF",
"o. c #2171FF",
"O. c #2271FF",
"+. c #2272FF",
"@. c #2273FF",
"#. c #2472FF",
"$. c #2274FF",
"%. c #2376FF",
"&. c #2476FF",
"*. c #2378FF",
"=. c #2478FF",
"-. c #2479FF",
";. c #257BFF",
":. c #247DFF",
">. c #2E81CD",
",. c #2B85EF",
"<. c #2482FB",
"1. c #2686FF",
"2. c #2980FF",
"3. c #2B85FF",
"4. c #2788FF",
"5. c #288BFF",
"6. c #2C88FF",
"7. c #2C89FF",
"8. c #298FFF",
"9. c #2298F7",
"0. c #2695FA",
"q. c #2B92FB",
"w. c #2B92FF",
"e. c #2C90FF",
"r. c #2C91FF",
"t. c #2D91FF",
"y. c #2E97FD",
"u. c #2E94FF",
"i. c #2F97FF",
"p. c #2D98FC",
"a. c #2F9AFC",
"s. c #3094FF",
"d. c #3098FF",
"f. c #3198FF",
"g. c #3099FF",
"h. c #3399FF",
"j. c #319DFE",
"k. c #329CFF",
"l. c #329DFF",
"z. c #2AA4FB",
"x. c #2FA2FF",
"c. c #2FA4FF",
"v. c #2FA7FF",
"b. c #34A5FF",
"n. c #30A9FF",
"m. c #39A9FF",
"M. c #38ACFF",
"N. c #38ADFF",
"B. c #38AEFF",
"V. c #39AEFF",
"C. c #38AFFF",
"Z. c #3AAFFF",
"A. c #32B1FF",
"S. c #37B5FF",
"D. c #35B7FF",
"F. c #3AB0FF",
"G. c #38B4FF",
"H. c #3BB4FF",
"J. c #3BB6FF",
"K. c #3DB7FF",
"L. c #36BAFF",
"P. c #3BBAFF",
"I. c #3CB8FF",
"U. c #3DB9FF",
"Y. c #3EB9FF",
"T. c #3DBAFF",
"R. c #3CBBFF",
"E. c #3CBDFF",
"W. c #3CBEFF",
"Q. c #3DBFFF",
"!. c #40BBFF",
"~. c #3DC4FF",
"^. c #3DC6FF",
"/. c #3FC9FF",
"(. c #3ECDFF",
"). c #3DCFFF",
"_. c #3ED0FF",
"`. c #3FD5FF",
"'. c #42D7FF",
"]. c #42D9FF",
"[. c #40E3FF",
"{. c #43E6FF",
"}. c #43E7FF",
"|. c #43EEFF",
" X c #45EDFE",
".X c #43F0FF",
"XX c #43F1FF",
"oX c #46F0FF",
"OX c #43F6FE",
"+X c #45F6FF",
"@X c #49F1FF",
"#X c #46FAFF",
"$X c #45FEFF",
"%X c #47FEFF",
"&X c #47FFFF",
"*X c #4BFDFF",
"=X c #48FEFF",
"-X c #48FFFF",
";X c #49FFFF",
":X c #4DFFFF",
">X c #4EFFFF",
",X c #4FFFFF",
/* pixels */
"    o o o o o o o o o o o o             o o o o o o o o o o o o ",
"    o o o o o o o o o o o o             o o o o o o o o o o o o ",
"o o     o o o o o o o o     o o o o     o o o o o o o o o o o o ",
"o o     o o o o o o o o     o o o o     o o o o o o o o o o o o ",
"o o o o     o o o o     o o o o o o o o     o o o o o o o o o o ",
"o o o o     o o o o     o + C 9 o o o o     o o o o o o o o o o ",
"o o o o o o         o o o O w , o 2 a @ o o     o o o o o o o o ",
"o o o o o o         o o o o o o o r ) % o o     o o o o o o o o ",
"o o o o o o     o o o o o o o o o > z # o o o o     o o o o o o ",
"o o o o o o     o o o o o o o o o o o o o o o o     o o o o o o ",
"o o o o         o o o o o o o o o o o o o o o o o o     o o o o ",
"o o o o         o o o o o o o o o o o o o o o o o o     o o o o ",
"                o o o o o o o 0 : o o o o o o o o o             ",
"                o o o o o o 3 V l < o o o 4 4 o o o             ",
"o o                 o o O = B L L k o o o x x o o o         o o ",
"o o                 o o ; N K L H h o o o $ $ o o o         o o ",
"o o o o               X m a.! D Y ~ v o o o o o o o     o o o o ",
"o o o o             7 >.k.U.R ] y.f.7.s - o o o o o     o o o o ",
"o o o o     o o o o f J.H.u.I p.!.E.(.=.1 o o o     o o o o o o ",
"o o o o     o o o o d b.d._ F <.F.].$X;.q * o o     o o o o o o ",
"o o     o o o o o o p { @.-.T W L.>XXX*.P t .   o o o o o o o o ",
"o o     o o o o o o & y 4..X X1.v.,XOXU S A e   o o o o o o o o ",
"    o o o o o o o o o 6 8.:X,XS.).|.w.q.q.j.,.b o o o o o o o o ",
"    o o o o o o o o 5 c :.A._.R./.D.[ K.Y.T.g.@.o o o o o o o o ",
"o o o o o o o o o 8 n X.| #.h.M.V.s.@.d.N.I.d.@.o o o o o o     ",
"o o o o o o o o o @.o.%.e.W.P.C.Z.k.' ` i.B.t.@.o o o o o o     ",
"o o o o o o o o o @./ c.*X%X=X^.m.k...O.+.@.$.@.o o o o         ",
"o o o o o o o o o &.( n.:X&X-X+XoX`.l.[.{.x.} &.o o o o         ",
"o o o o o o o o o E ^ r.'.&X&X-X-X#X}.;X,Xz.G E                 ",
"o o o o o o o o o J Q 3.Q.&X&X&X&X-X;X&X,X9.g J                 ",
"o o o o o o o o o j Z 2.G.&X&X&X&X&X&X&X@X0.M j o o o o o o     ",
"o o o o o o o o o o u  .5.&X-X&X&X&X&X-X~.6.i o o o o o o o     "
};
