/* XPM */
static char *result[] = {
/* columns rows colors chars-per-pixel */
"32 32 217 2 ",
"   c #181425",
".  c #18172D",
"X  c #191B34",
"o  c #181B37",
"O  c #1A2954",
"+  c #262B44",
"@  c #262B45",
"#  c #262B46",
"$  c #262C45",
"%  c #262C46",
"&  c #262D48",
"*  c #262E4B",
"=  c #262E4D",
"-  c #252F4E",
";  c #242F53",
":  c #232F56",
">  c #232F58",
",  c #26345A",
"<  c #23315C",
"1  c #283959",
"2  c #152968",
"3  c #1F3268",
"4  c #1F336D",
"5  c #122F7F",
"6  c #1F3775",
"7  c #223261",
"8  c #263864",
"9  c #21356C",
"0  c #243973",
"q  c #253D74",
"w  c #264179",
"e  c #1B3D92",
"r  c #1A419F",
"t  c #1D449C",
"y  c #254382",
"u  c #234285",
"i  c #20438B",
"p  c #28578C",
"a  c #1742A7",
"s  c #1941A2",
"d  c #1B44A2",
"f  c #1641A9",
"g  c #1541AD",
"h  c #1B46AF",
"j  c #1543B0",
"k  c #1546B9",
"l  c #1F54B8",
"z  c #1F56BB",
"x  c #1E53BF",
"c  c #244FA3",
"v  c #2552A5",
"b  c #2556AF",
"n  c #235ABE",
"m  c #2C68A5",
"M  c #2C6FBB",
"N  c #0D43C6",
"B  c #0F46C7",
"V  c #0F47CC",
"C  c #1247C3",
"Z  c #1449C3",
"A  c #184EC1",
"S  c #124BCE",
"D  c #124CCF",
"F  c #1750C6",
"G  c #1D53C5",
"H  c #114EDA",
"J  c #1956D2",
"K  c #2157CC",
"L  c #236AD5",
"P  c #2364D8",
"I  c #2465DA",
"U  c #2468DF",
"Y  c #0444EF",
"T  c #094FF1",
"R  c #0A4CF3",
"E  c #0A4EF2",
"W  c #0A4EF3",
"Q  c #0B4EF4",
"!  c #0A50F1",
"~  c #0B51F2",
"^  c #0B51F3",
"/  c #0C53F2",
"(  c #0D53F2",
")  c #0E53F3",
"_  c #0D54F3",
"`  c #0D52F4",
"'  c #0F57F4",
"]  c #0F59F3",
"[  c #1058F5",
"{  c #125BF5",
"}  c #125CF6",
"|  c #145DF7",
" . c #145EF7",
".. c #155EF7",
"X. c #145FF7",
"o. c #1357F8",
"O. c #1557FA",
"+. c #155CFA",
"@. c #1D62E4",
"#. c #1261F3",
"$. c #1662F7",
"%. c #1561F8",
"&. c #1661F8",
"*. c #1C67FD",
"=. c #1E65FF",
"-. c #1F65FF",
";. c #1A6BF9",
":. c #1A68FA",
">. c #1A68FB",
",. c #1B68FB",
"<. c #1C68FC",
"1. c #1E6BFD",
"2. c #1F6DFD",
"3. c #1F6DFF",
"4. c #1F71FD",
"5. c #226BEA",
"6. c #2069FB",
"7. c #216FFB",
"8. c #2068FF",
"9. c #206BFF",
"0. c #206DFE",
"q. c #206DFF",
"w. c #206EFF",
"e. c #216FFF",
"r. c #226EFF",
"t. c #2270F7",
"y. c #2271F9",
"u. c #2272FC",
"i. c #2272FD",
"p. c #2170FE",
"a. c #2272FF",
"s. c #2372FF",
"d. c #2273FF",
"f. c #2375FF",
"g. c #2376FF",
"h. c #2474FF",
"j. c #2475FF",
"k. c #2577FF",
"l. c #2478FF",
"z. c #2578FF",
"x. c #2579FF",
"c. c #237CFF",
"v. c #267CFF",
"b. c #277EFF",
"n. c #287FFF",
"m. c #359FC5",
"M. c #2583FB",
"N. c #2785FF",
"B. c #2884FF",
"V. c #2A85FF",
"C. c #2986FE",
"Z. c #2B86FF",
"A. c #288CFB",
"S. c #2988FF",
"D. c #2C8BFE",
"F. c #2B8EFC",
"G. c #2A92FB",
"H. c #2E90FF",
"J. c #2E93FF",
"K. c #2D96FC",
"L. c #2E95FF",
"P. c #2F96FF",
"I. c #2E99FD",
"U. c #2F9AFC",
"Y. c #3094F8",
"T. c #3092FF",
"R. c #319AFF",
"E. c #329BFF",
"W. c #309DFC",
"Q. c #329CFF",
"!. c #329FFF",
"~. c #34A2FF",
"^. c #35A2FF",
"/. c #32A6FF",
"(. c #34A4FF",
"). c #32A9FF",
"_. c #35A9FF",
"`. c #37A9FF",
"'. c #33ACFF",
"]. c #38ADFF",
"[. c #39ADFF",
"{. c #38AEFF",
"}. c #39AEFF",
"|. c #39AFFF",
" X c #33B2FF",
".X c #3AB1FF",
"XX c #3BB3FF",
"oX c #3BB4FF",
"OX c #3BB5FF",
"+X c #3CB4FF",
"@X c #36BBFF",
"#X c #3DB8FF",
"$X c #3DB9FF",
"%X c #3BBEFF",
"&X c #3FBCFF",
"*X c #3FBDFF",
"=X c #3DC3FF",
"-X c #3EC2FF",
";X c #3ACFFF",
":X c #3BD2FF",
">X c #3BD4FF",
",X c #40C0FF",
"<X c #41D8FF",
"1X c #44E7FF",
"2X c #43EEFF",
"3X c #46F8FF",
"4X c #47F9FF",
"5X c #47FAFF",
"6X c #46FCFF",
"7X c #47FDFF",
"8X c #47FFFF",
"9X c #49FEFF",
"0X c #48FFFF",
"qX c #49FFFF",
"wX c #4BFEFF",
"eX c #4AFFFF",
"rX c #4BFFFF",
/* pixels */
"    + + + + + + + + + + + +             + + + + + + + + + + + + ",
"    + + + + + + + + + + + +             + + + + + + + + + + + + ",
"+ +     + + + + + + + +     + + + +     + + + + + + + + + + + + ",
"+ +     + + + + + + + +     + + + +     + + + + + + + + + + + + ",
"+ + + +     + + + +     + + + + + + + +     + + + + + + + + + + ",
"+ + + +     + + + +     + + + + y y.= +     + + + + + + + + + + ",
"+ + + + + +         + + + + + + 8 c & + + +     + + + + + + + + ",
"+ + + + + +         + + + + + + + + + + + +     + + + + + + + + ",
"+ + + + + +     + + + + + + + + + + + + + + + +     + + + + + + ",
"+ + + + + +     + + + + + # # @ + + + + + + + +     + + + + + + ",
"+ + + +         + + + + + Z H e + + + + + + + + + +     + + + + ",
"+ + + +         + + + < D _ _ g + + + + + + + + + +     + + + + ",
"                + + + : j _ C 9 + + + + + + + + + +             ",
"                + + + + + k 7 - w q % + + + + + + +             ",
"+ +                 + + + + = b a.t.* + + + + + + +         + + ",
"+ +                 + + + + n 7.e.5.$ + + + + + + +         + + ",
"+ + + +               X P = K  X;X6.I ; + + + + + +     + + + + ",
"+ + + +             O z d., 0 m.6X8.k.A 4 + + + + +     + + + + ",
"+ + + +     + + + + u f.u.o + p @Xr.,.W i + + +     + + + + + + ",
"+ + + +     + + + > t z.i.2 3 h 8.>.^ ] m 1 + +     + + + + + + ",
"+ +     + + + + + f ..g.d.[ ! :.4./ ^ W.&XM .   + + + + + + + + ",
"+ +     + + + + + a ( { d.' +.D..XI.E U.,XY.x   + + + + + + + + ",
"    + + + + + + + r Q <.d.` M.}.oX|.K.C.B.b.U + + + + + + + + + ",
"    + + + + + + v L A.H.3.R G.$X{.OX*Xb.9.1.J + + + + + + + + + ",
"+ + + + + + + + d.R.,X].S.| F.XX^.J.Q.v.2. .V + + + + + + +     ",
"+ + + + + + + + d.L.OX|.`.j.!.-X_.c.w.h.X.T S + + + + + + +     ",
"+ + + + + + + + d.L.#X(.d.=.:XwX9X2Xl.s.%.~ B   + + + +         ",
"+ + + + + + + + 8 l #.$.w.>X4X0XqX3X~.x.p.&.N   + + + +         ",
"+ + + + + + + + + s Y ) T.4XqX8X8X7X1XN.-.0.F                   ",
"+ + + + + + + + + d o.;.<X5X8X8X8X8XeX/.V.Z.@.5                 ",
"+ + + + + + + + 6 G n.'.qX0X8X8X8X8X0X=X+XE.*.} + + + + + +     ",
"+ + + + + + + + _ O.).rX8X8X8X8X8X8X0X%X[.P.q.d.+ + + + + +     "
};
