/* XPM */
static char *result[] = {
/* columns rows colors chars-per-pixel */
"32 32 205 2 ",
"   c #181425",
".  c #262B44",
"X  c #262B45",
"o  c #262B46",
"O  c #262C46",
"+  c #262C47",
"@  c #252C49",
"#  c #262D48",
"$  c #262E4B",
"%  c #252E4D",
"&  c #262F4D",
"*  c #252E4F",
"=  c #263257",
"-  c #243159",
";  c #263358",
":  c #25345D",
">  c #1E3675",
",  c #1C3776",
"<  c #1C3874",
"1  c #1E3679",
"2  c #263C6F",
"3  c #253C71",
"4  c #223C79",
"5  c #25437F",
"6  c #1C3881",
"7  c #1E3A80",
"8  c #1B3986",
"9  c #1C3986",
"0  c #1A3A8B",
"q  c #12389A",
"w  c #10389F",
"e  c #213F85",
"r  c #153FAB",
"t  c #123EB2",
"y  c #1E4190",
"u  c #244281",
"i  c #254485",
"p  c #25478C",
"a  c #25478D",
"s  c #244D9C",
"d  c #254F9E",
"f  c #1842A7",
"g  c #1E4BA2",
"h  c #1747B7",
"j  c #1645B8",
"k  c #244FA2",
"l  c #2551A6",
"z  c #2A5CA3",
"x  c #2152B2",
"c  c #2455B2",
"v  c #2457B7",
"b  c #2558B3",
"n  c #2459B9",
"m  c #2359BC",
"M  c #337BAF",
"N  c #0F44C9",
"B  c #1F5BC9",
"V  c #0F47D4",
"C  c #0A49DD",
"Z  c #0D4CDE",
"A  c #124FD8",
"S  c #1150DA",
"D  c #195DD9",
"F  c #2364D7",
"G  c #2264D8",
"H  c #2467DB",
"J  c #2163DC",
"K  c #2164DC",
"L  c #0E52EB",
"P  c #0A4FF1",
"I  c #0B4DF3",
"U  c #094EF2",
"Y  c #0B51F1",
"T  c #0B50F2",
"R  c #0B51F2",
"E  c #0B53F2",
"W  c #0C53F3",
"Q  c #0D53F3",
"!  c #0D54F3",
"~  c #0D53F4",
"^  c #0E56F4",
"/  c #1059F4",
"(  c #1158F5",
")  c #1059F5",
"_  c #105AF5",
"`  c #1159F6",
"'  c #115AF6",
"]  c #125BF6",
"[  c #135FF5",
"{  c #135DF6",
"}  c #1758FB",
"|  c #155DF9",
" . c #1B5BFF",
".. c #1B5EFF",
"X. c #1D60E1",
"o. c #1E62E5",
"O. c #1762F3",
"+. c #1662F8",
"@. c #1763F9",
"#. c #1863F9",
"$. c #1966F9",
"%. c #1965FA",
"&. c #1E62FF",
"*. c #1A65FC",
"=. c #1B65FC",
"-. c #1C65FE",
";. c #1F64FF",
":. c #1E65FF",
">. c #1F66FF",
",. c #1A68FA",
"<. c #1E6BFC",
"1. c #1F69FF",
"2. c #1D6BFE",
"3. c #1E6CFC",
"4. c #1E6DFC",
"5. c #1E6EFC",
"6. c #1E6EFD",
"7. c #1F6FFD",
"8. c #1F6DFE",
"9. c #1F71F3",
"0. c #2367E1",
"q. c #2067E6",
"w. c #226EF3",
"e. c #226FF5",
"r. c #206DFF",
"t. c #216FFF",
"y. c #226EFF",
"u. c #2270F7",
"i. c #2575FA",
"p. c #2070FE",
"a. c #2070FF",
"s. c #2170FF",
"d. c #2172FF",
"f. c #2272FE",
"g. c #2273FE",
"h. c #2372FF",
"j. c #2273FF",
"k. c #2174FD",
"l. c #2274FE",
"z. c #2274FF",
"x. c #2374FF",
"c. c #2375FF",
"v. c #2474FF",
"b. c #2476FF",
"n. c #2477FF",
"m. c #2577FF",
"M. c #227EF9",
"N. c #2379FF",
"B. c #2478FF",
"V. c #2578FF",
"C. c #2479FF",
"Z. c #3581B1",
"A. c #2D86DA",
"S. c #379BDF",
"D. c #2781FF",
"F. c #2683FF",
"G. c #2980FF",
"H. c #2A83FF",
"J. c #2B83FF",
"K. c #2A84FF",
"L. c #2C8BFF",
"P. c #2C8DFF",
"I. c #2F94FF",
"U. c #2D99FF",
"Y. c #2D9BFF",
"T. c #2E9AFF",
"R. c #2E9FFF",
"E. c #3096FF",
"W. c #339BFF",
"Q. c #319DFE",
"!. c #2EA0FF",
"~. c #30A4FF",
"^. c #30A6FF",
"/. c #35A5FF",
"(. c #36A7FF",
"). c #36A8FF",
"_. c #38ABFF",
"`. c #38AEFF",
"'. c #39AFFF",
"]. c #32B3FF",
"[. c #34B7FF",
"{. c #39B1FF",
"}. c #3AB3FF",
"|. c #3AB4FF",
" X c #36B9FF",
".X c #37BFFF",
"XX c #3CB9FF",
"oX c #3EB9FF",
"OX c #3DBAFF",
"+X c #3BBEFF",
"@X c #3DC3FF",
"#X c #3DC4FF",
"$X c #3ED0FF",
"%X c #45E5FF",
"&X c #42EDFF",
"*X c #45F3FF",
"=X c #49F4FF",
"-X c #49F6FF",
";X c #47FFFF",
":X c #48FFFF",
">X c #49FFFF",
",X c #4AFFFF",
"<X c #4BFFFF",
"1X c #4DFFFF",
"2X c #4FFFFF",
/* pixels */
"    . . . . . . . . . . . .             . . . . . . . . . . . . ",
"    . . . . . . . . . . . .             . . . . . . . . . . . . ",
". .     . . . . . . . .     . . . .     . . . . . . . . . . . . ",
". .     . . . . . . . .     . . . .     . . . . . . . . . . . . ",
". . . .     . . . .     . . . . . . . .     . . . . . . . . . . ",
". . . .     . . . .     . . . . . . . .     . . . . . . . . . . ",
". . . . . .         . . . . . . . . . . . .     . . . . . . . . ",
". . . . . .         . . . . . . . . . . . .     . . . . . . . . ",
". . . . . .     . . . . . . . . . . . . . . . .     . . . . . . ",
". . . . . .     . . . . . o L 9 . X O . . . . .     . . . . . . ",
". . . .         . . . . . o ! 0 . 2 0.$ . . . . . .     . . . . ",
". . . .         . . . . . X 1 - u H i.& . . . . . .     . . . . ",
"                . . . . . . . . l 2.O.% . . . . . .             ",
"                . . . . . . . . z 9.t @ . . . . . .             ",
". .                 . $ ; = + . Z.A.. . . . . . . .         . . ",
". .                 . i u.e.: . M S.. . . . . . . .         . . ",
". . . .               , z.j.* . g D . . n F s . . .     . . . . ",
". . . .               < n.g.h r V N . . K x.m . . .     . . . . ",
". . . .     . . . . . e ,.j.) Y U j . 8 o.m.b .     . . . . . . ",
". . . .     . . . . . 7 { j.^ ~ [ B 3 W 3.f.x .     . . . . . . ",
". .     . . . . . . # a c.j./ *.W.(.8.^ 6.+.w   . . . . . . . . ",
". .     . . . . . . k w.d.z.Q.)._.{./.l.` E q   . . . . . . . . ",
"    . . . . . . . . c j.d.B.'.OXXX).D.b.4._ Z f . . . . . . . . ",
"    . . . . . . . . v c.d.@.L.I.L.V...:.v.5.] A . . . . . . . . ",
". . . . . . . . . . p G #.T | -.F.Y.!.R.N.v.$.S 5 . . . . .     ",
". . . . . . . . . . . 4 P Q W } .X2X,X<XU.y.%.] j.. . . . .     ",
". . . . . . . . . . . 6 Q ! 7.;.[.<X;X:X@XH.r.j.j.. . .         ",
". . . . . . . . . . y C ( 6.a.J.$X,X;X;X-X^.>.z.j.. . .         ",
". . . . . . . . . d q.' I t. . X=X:X;X;X1X].&.z.b.              ",
". . . . . . . . . J h.k.M.P.~.&X,X;X;X;X%XT.1.p.%.              ",
". . . . . . . . > X.C.E.oX|.>X>X;X;X;X:X+XG.s.<.R . . . . .     ",
". . . . . . . . ! =.E.}._.`.*X:X;X;X;X:X#XK.t.3.! . . . . .     "
};
