/* XPM */
static char *result[] = {
/* columns rows colors chars-per-pixel */
"32 32 221 2 ",
"   c #181425",
".  c #181527",
"X  c #18172E",
"o  c #171C3D",
"O  c #161C3F",
"+  c #262B44",
"@  c #262B45",
"#  c #262C46",
"$  c #262D48",
"%  c #262E4A",
"&  c #252D4D",
"*  c #262E4C",
"=  c #262F4F",
"-  c #232D51",
";  c #253053",
":  c #263154",
">  c #233059",
",  c #22305B",
"<  c #263359",
"1  c #25335A",
"2  c #26365F",
"3  c #1E346F",
"4  c #1F3470",
"5  c #1F3775",
"6  c #1E377B",
"7  c #1D387F",
"8  c #223260",
"9  c #253560",
"0  c #253660",
"q  c #253763",
"w  c #283D60",
"e  c #283E62",
"r  c #213368",
"t  c #25396A",
"y  c #253A6C",
"u  c #263B6C",
"i  c #263C6E",
"p  c #213771",
"a  c #253C71",
"s  c #294471",
"d  c #2A4A72",
"f  c #25427C",
"g  c #1D3982",
"h  c #1C3F94",
"j  c #113A9F",
"k  c #1A3F98",
"l  c #1D3F9C",
"z  c #25468A",
"x  c #264B8C",
"c  c #254B94",
"v  c #244D9C",
"b  c #1840A0",
"n  c #1743AA",
"m  c #1744AE",
"M  c #1949B6",
"N  c #194EBA",
"B  c #1E50B8",
"V  c #224DA4",
"C  c #234EA4",
"Z  c #2452A9",
"A  c #0D3AC9",
"S  c #0E3DC9",
"D  c #1149C7",
"F  c #1248C8",
"G  c #1C54C8",
"H  c #1B55CD",
"J  c #1C55CF",
"K  c #0C45DE",
"L  c #0F4BD8",
"P  c #0D4DDD",
"I  c #0F4EDF",
"U  c #0F4FDF",
"Y  c #245FC9",
"T  c #205ED5",
"R  c #205FD6",
"E  c #2062D8",
"W  c #2165DF",
"Q  c #2367DF",
"!  c #256BDF",
"~  c #0E4EE0",
"^  c #0D4FE7",
"/  c #1356E5",
"(  c #0B4FF3",
")  c #0B51F2",
"_  c #0B51F3",
"`  c #0C52F3",
"'  c #0D53F3",
"]  c #0D54F3",
"[  c #0E55F3",
"{  c #0D52F4",
"}  c #115AF6",
"|  c #165EF9",
" . c #165FFA",
".. c #175FFA",
"X. c #185BFC",
"o. c #1E6EED",
"O. c #1963F4",
"+. c #1F6CF5",
"@. c #1B66F8",
"#. c #1964FA",
"$. c #1965FA",
"%. c #1C62FF",
"&. c #1A64FC",
"*. c #1D64FF",
"=. c #1E64FF",
"-. c #1D6AF9",
";. c #1E6BFB",
":. c #1D6BFC",
">. c #1D69FE",
",. c #1E6BFE",
"<. c #1F6CFE",
"1. c #1C74F7",
"2. c #226BEB",
"3. c #226CEB",
"4. c #226EED",
"5. c #2474E3",
"6. c #226FF5",
"7. c #2066FF",
"8. c #206CFF",
"9. c #216DFF",
"0. c #206FFE",
"q. c #206EFF",
"w. c #236FFF",
"e. c #2373F7",
"r. c #277CF2",
"t. c #2170FF",
"y. c #2370FF",
"u. c #2272FF",
"i. c #2372FF",
"p. c #2273FF",
"a. c #2274FF",
"s. c #2374FF",
"d. c #2375FF",
"f. c #2376FF",
"g. c #2377FF",
"h. c #2475FF",
"j. c #2476FF",
"k. c #2577FF",
"l. c #2678FF",
"z. c #277AFF",
"x. c #267BFF",
"c. c #237DFD",
"v. c #358CC9",
"b. c #2F80D2",
"n. c #339AEC",
"m. c #2684FF",
"M. c #2787FF",
"N. c #2882FF",
"B. c #2B86FF",
"V. c #2C8BF9",
"C. c #288FF9",
"Z. c #2B8BFF",
"A. c #2D8CFF",
"S. c #2D8EFF",
"D. c #2D8FFF",
"F. c #2E91FF",
"G. c #2B94FF",
"H. c #2F94FF",
"J. c #2F95FF",
"K. c #2E96FF",
"L. c #329CF6",
"P. c #3095FF",
"I. c #339FFF",
"U. c #359EFF",
"Y. c #359FFF",
"T. c #35A3F9",
"R. c #33A4FF",
"E. c #34A5FD",
"W. c #36A7FE",
"Q. c #37A7FF",
"!. c #31ACFF",
"~. c #37ACFF",
"^. c #37ADFF",
"/. c #34AFFF",
"(. c #38ABFF",
"). c #38ACFF",
"_. c #38ADFF",
"`. c #39AFFF",
"'. c #2EB5FA",
"]. c #3AB0FC",
"[. c #39B0FF",
"{. c #3AB0FF",
"}. c #39B3FF",
"|. c #3AB3FF",
" X c #3CB3FF",
".X c #3AB4FF",
"XX c #3BB4FF",
"oX c #3BB5FF",
"OX c #30BCFA",
"+X c #35BBFF",
"@X c #3BB9FF",
"#X c #38BBFF",
"$X c #3BBAFF",
"%X c #3CB8FF",
"&X c #39BEFF",
"*X c #38BFFF",
"=X c #3CBFFF",
"-X c #3DC1FF",
";X c #3AC7FF",
":X c #3FCEFF",
">X c #3FD2FF",
",X c #3FD5FF",
"<X c #41C1FF",
"1X c #41D1FF",
"2X c #41E0FF",
"3X c #41E2FF",
"4X c #43E2FF",
"5X c #43E7FF",
"6X c #46F4FF",
"7X c #46F6FF",
"8X c #46F7FF",
"9X c #47FFFF",
"0X c #48FFFF",
"qX c #49FFFF",
"wX c #4AFEFF",
"eX c #4AFFFF",
"rX c #4BFFFF",
"tX c #4DFFFF",
"yX c #4EFFFF",
"uX c #4FFFFF",
"iX c #50FFFF",
/* pixels */
"    + + + + + + + + + + + +             + + + + + + + + + + + + ",
"    + + + + + + + + + + + +             + + + + + + + + + + + + ",
"+ +     + + + + + + + +     + + + +     + + + + + + + + + + + + ",
"+ +     + + + + + + + +     + + + +     + + + + + + + + + + + + ",
"+ + + +     + + + +     + + + + + + + +     + + + + + + + + + + ",
"+ + + +     + + + +     + + + + + + + +     + + + + + + + + + + ",
"+ + + + + +         + + + + + + + + + + + +     + + + + + + + + ",
"+ + + + + +         + + + + + + + + + + + +     + + + + + + + + ",
"+ + + + + +     + + + + + + + + + + + + + + + +     + + + + + + ",
"+ + + + + +     + + + + + # 6.z + + < s.p @ + +     + + + + + + ",
"+ + + +         + + + + + + 0 = + + 1 s./ 7 + + + +     + + + + ",
"+ + + +         + + + + + + + + + + % f } b + + + +     + + + + ",
"                + + + > k k - + s x + + h 4 + + + +             ",
"                + + 8 n ' ] ; e b.V.d + + + + + + +             ",
"+ +                 m ] ` [ w v.`.|.T.2 $ + + + + +         + + ",
"+ +                 n ] ` [ L.]._.[.W.e.t + + + + +         + + ",
"+ + + +             o j _ r n.XX~.|.{.g.a + + + + +     + + + + ",
"+ + + +               O g + r.(.<XE.o.c : + + + + +     + + + + ",
"+ + + +     + + + + + +   . C 5.C.1.K + + + + +     + + + + + + ",
"+ + + +     + + + + + +     + M ( { U @ 9 u y q     + + + + + + ",
"+ +     + + + + + + $ * * * X N z.:.I & R h.p.E + + + + + + + + ",
"+ +     + + + + + + v 2.3.2.P O.k.a.;.~ -.h.p.W + + + + + + + + ",
"    + + + + + + + Z 4.9.*.=.X.,.f.u.8.&.0.a.Y i + + + + + + + + ",
"    + + + + + + + ! =.m.#X+X&XM.%.g.H.P.d.t.V + + + + + + + + + ",
"+ + + + + + + + + J c.;XyXrXuX/.w.D.%XoXF.x.G 3 + + + + + +     ",
"+ + + + + + + + + A OXiX9X9X6X:X%X@X)._.%XF. .L + + + + + +     ",
"+ + + + + + + + + S '.tX9X9X}.2XwX5XQ._..XS.| D + + + +         ",
"+ + + + + + + + + , B *XqX$XU.3XrX5XY.Q.N.q.<.+.Q + + +         ",
"+ + + + + + + + + + l K.1XY.,X7X0X8X2X4XR.J.Z.i.j.              ",
"+ + + + + + + + + 6 H l.H.>X0X0X9X9XqXeX=X XI.>.$.              ",
"+ + + + + + + + 5 ^ #.y.G.qX0X9X9X9X9X0X:X^.A.@.F + + + + +     ",
"+ + + + + + + + ] ) ..B.-X9X9X9X9X9X9X9XrX!.7.T + + + + + +     "
};
