/* XPM */
static char *result[] = {
/* columns rows colors chars-per-pixel */
"32 32 200 2 ",
"   c #181425",
".  c #17172F",
"X  c #182044",
"o  c #262B44",
"O  c #252C49",
"+  c #262D49",
"@  c #262E4D",
"#  c #242D4E",
"$  c #252D4E",
"%  c #262F4E",
"&  c #242E50",
"*  c #252E50",
"=  c #263256",
"-  c #233058",
";  c #22315D",
":  c #24335D",
">  c #1F3675",
",  c #1D3679",
"<  c #213366",
"1  c #20356F",
"2  c #263968",
"3  c #253B6F",
"4  c #263C6F",
"5  c #223B77",
"6  c #243F7B",
"7  c #25437F",
"8  c #1C3983",
"9  c #1D3A83",
"0  c #1E3E8A",
"q  c #1B3B8D",
"w  c #1B3B8E",
"e  c #133B9E",
"r  c #183F9E",
"t  c #0C36AF",
"y  c #173FA0",
"u  c #153EA5",
"i  c #173FA6",
"p  c #1E4194",
"a  c #1A419F",
"s  c #254587",
"d  c #264A8F",
"f  c #244690",
"g  c #244C9A",
"h  c #1546B9",
"j  c #1F52B8",
"k  c #214BA4",
"l  c #224FAC",
"z  c #2452A9",
"x  c #2052B4",
"c  c #2254B8",
"v  c #225CBE",
"b  c #124BCE",
"n  c #1D54C4",
"m  c #0E49D6",
"M  c #0E4AD7",
"N  c #1957D6",
"B  c #235FCA",
"V  c #2465D5",
"C  c #246CD3",
"Z  c #0D4FE7",
"A  c #1252E0",
"S  c #165BEE",
"D  c #0540F1",
"F  c #0744F2",
"G  c #084BF2",
"H  c #094BF2",
"J  c #0E4FF6",
"K  c #0A50F2",
"L  c #0B51F2",
"P  c #0D54F1",
"I  c #0D54F2",
"U  c #0D54F3",
"Y  c #0E54F4",
"T  c #0F58F4",
"R  c #125BF5",
"E  c #145EF6",
"W  c #145EF7",
"Q  c #1353F9",
"!  c #1257F8",
"~  c #155BF9",
"^  c #145EF8",
"/  c #175FFA",
"(  c #1A61EA",
")  c #1266F3",
"_  c #1562F5",
"`  c #196EF5",
"'  c #1661F8",
"]  c #1965FA",
"[  c #1966FA",
"{  c #1B60FF",
"}  c #1C64FE",
"|  c #1E64FF",
" . c #1F65FF",
".. c #1F67FF",
"X. c #1D6BFC",
"o. c #1E68FF",
"O. c #1674F4",
"+. c #1E79F7",
"@. c #1E77F8",
"#. c #1E78F8",
"$. c #1E7CF9",
"%. c #2369E4",
"&. c #216AFF",
"*. c #216FFF",
"=. c #2171FF",
"-. c #2271FF",
";. c #2272FF",
":. c #2273FF",
">. c #2277FD",
",. c #2374FE",
"<. c #2375FF",
"1. c #2376FF",
"2. c #2575FF",
"3. c #2476FF",
"4. c #227EFA",
"5. c #277BFF",
"6. c #267DFF",
"7. c #267EFE",
"8. c #277FFF",
"9. c #2580FA",
"0. c #2780FF",
"q. c #2982FF",
"w. c #2A83FF",
"e. c #2987FF",
"r. c #2B86FF",
"t. c #288AFA",
"y. c #2988FF",
"u. c #2C8AFF",
"i. c #298CFF",
"p. c #2C8CFF",
"a. c #2E8EFF",
"s. c #2D90FF",
"d. c #2F99FF",
"f. c #2D9DFF",
"g. c #2E9DFF",
"h. c #339DFF",
"j. c #359DFF",
"k. c #369FFF",
"l. c #2CABF9",
"z. c #2FA8FF",
"x. c #36A2FF",
"c. c #35A5FF",
"v. c #37A7FF",
"b. c #30A8FF",
"n. c #36A8FF",
"m. c #37A9FF",
"M. c #38AAFF",
"N. c #38ADFF",
"B. c #39ADFF",
"V. c #38AEFF",
"C. c #38AFFF",
"Z. c #39AFFF",
"A. c #39B1FF",
"S. c #3AB1FF",
"D. c #3AB3FF",
"F. c #3CB3FF",
"G. c #3BB4FF",
"H. c #3AB7FF",
"J. c #3CB5FF",
"K. c #3DB7FF",
"L. c #39B9FF",
"P. c #3DB8FF",
"I. c #3BBCFF",
"U. c #40BEFF",
"Y. c #3DC1FF",
"T. c #39C4FF",
"R. c #3CC7FF",
"E. c #38CEFD",
"W. c #3CCCFF",
"Q. c #3ECCFF",
"!. c #3ECFFF",
"~. c #3FD0FF",
"^. c #43D8FF",
"/. c #40DCFF",
"(. c #42DEFF",
"). c #42E5FF",
"_. c #40E6FF",
"`. c #42E6FF",
"'. c #44E7FF",
"]. c #43E8FF",
"[. c #43E9FF",
"{. c #44E8FF",
"}. c #44E9FF",
"|. c #44ECFF",
" X c #44EEFF",
".X c #45F2FF",
"XX c #45F3FF",
"oX c #45F7FF",
"OX c #48F0FF",
"+X c #48F3FF",
"@X c #4BF6FF",
"#X c #46F8FF",
"$X c #47FFFF",
"%X c #48FFFF",
"&X c #49FFFF",
"*X c #4AFFFF",
"=X c #4BFFFF",
"-X c #4CFFFF",
";X c #4EFFFF",
":X c #52FFFF",
/* pixels */
"    o o o o o o o o o o o o             o o o o o o o o o o o o ",
"    o o o o o o o o o o o o             o o o o o o o o o o o o ",
"o o     o o o o o o o o     o o o o     o o o o o o o o o o o o ",
"o o     o o o o o o o o     o o o o     o o o o o o o o o o o o ",
"o o o o     o o o o     o o o o o - I 1     o o o o o o o o o o ",
"o o o o     o o o o     o o o o o O > &     o o o o o o o o o o ",
"o o o o o o         o o o o o o o o o o o o     o o o o o o o o ",
"o o o o o o         o $ 9 w @ : , o o o o o     o o o o o o o o ",
"o o o o o o     o o o < U Z 6 x A o o o o o o o     o o o o o o ",
"o o o o o o     o o o < P # j 3.B o o o o o o o     o o o o o o ",
"o o o o         o o o O ; o h [ V o o o o o o o o o     o o o o ",
"o o o o         o o o o o o M N 4 o o o o o o o o o     o o o o ",
"                o o o o o o q 5 o o o o o o o o o o             ",
"                o o o o o o o o o o o o o o o o o o             ",
"o o                 o o o o o o o o o o o % = o o o         o o ",
"o o                 o o o o o o o o o o o g %.o o o         o o ",
"o o o o               . b b b 8 o o o o o z :.o o o     o o o o ",
"o o o o             X t G K U m 0 o o o o 2 s o o o     o o o o ",
"o o o o     o o o 3 v +.@.' Y T ( f f + o o o o     o o o o o o ",
"o o o o     o o o c p.U.J.a.R ^ 5.0.0.d * o o o     o o o o o o ",
"o o     o o o o o l e.D.N.K.` ! u.G.S.q.p O     o o o o o o o o ",
"o o     o o o o o i #.P.v.B.,.7.V.m.M.w.S y     o o o o o o o o ",
"    o o o o o o o u W d.].}./.L.D.{.{.$.F e o o o o o o o o o o ",
"    o o o o o o o a J i.*X*X=XXX).*X-XO._ C k r o o o o o o o o ",
"o o o o o o o o 7 n ~ y.[.%X&XoXXX%X'.) t.F.>.W o o o o o o     ",
"o o o o o o o o :.<.-.1.h.`.+XR.H..XB.E 4.K.n.3.o o o o o o     ",
"o o o o o o o o :.:.;.=.:.c.A.V.N.C.Z.8.o.s.n.:.o o o o         ",
"o o o o o o o o :...f.'._. XI.j.v.N.Z.2.{ *.6.:.o o o o         ",
"o o o o o o o o :.| b.;X&X&X|.(.~.k.x.T.W.b.&.3.                ",
"o o o o o o o o 3. .z.-X$X$X%X&X#XQ.!.%X:XE.Q ]                 ",
"o o o o o o o o X.} g.OX$X$X$X$X$X&X&X%X@Xl.D L o o o o o o     ",
"o o o o o o o o U / r.Y.$X$X$X$X$X$X$X&X^.9.H U o o o o o o     "
};
