/* XPM */
static char *result[] = {
/* columns rows colors chars-per-pixel */
"32 32 209 2 ",
"   c #181425",
".  c #181528",
"X  c #18182E",
"o  c #19182E",
"O  c #262B44",
"+  c #262B45",
"@  c #262C45",
"#  c #262C46",
"$  c #252C49",
"%  c #262D48",
"&  c #262E4B",
"*  c #252D4C",
"=  c #262E4C",
"-  c #262E4D",
";  c #232F58",
":  c #23305B",
">  c #243158",
",  c #243159",
"<  c #22305D",
"1  c #152660",
"2  c #142D75",
"3  c #1F3676",
"4  c #253C72",
"5  c #253D73",
"6  c #253E74",
"7  c #25427F",
"8  c #1D3983",
"9  c #1C3A86",
"0  c #1C3B88",
"q  c #103CA8",
"w  c #254382",
"e  c #224185",
"r  c #254588",
"t  c #24488E",
"y  c #25498E",
"u  c #1943A5",
"i  c #1842A6",
"p  c #1A44A5",
"a  c #1B46AA",
"s  c #1543B1",
"d  c #1643B1",
"f  c #1A4BB6",
"g  c #1546B9",
"h  c #1446BD",
"j  c #234EA5",
"k  c #2450A1",
"l  c #2453AB",
"z  c #2051B6",
"x  c #2357B7",
"c  c #2359BC",
"v  c #0B3FD8",
"b  c #1F57C5",
"n  c #1D59CA",
"m  c #1F5ACE",
"M  c #0F48D0",
"N  c #0E43DB",
"B  c #104BD5",
"V  c #124ADD",
"C  c #104FDC",
"Z  c #1D5CD4",
"A  c #235FCC",
"S  c #205FD2",
"D  c #2560C8",
"F  c #2363D5",
"G  c #2669D2",
"H  c #0848E8",
"J  c #0E52EB",
"K  c #0541F1",
"L  c #0B51F2",
"P  c #0C52F2",
"I  c #0D53F3",
"U  c #0D54F3",
"Y  c #0D55F3",
"T  c #0F52F7",
"R  c #0F57F4",
"E  c #1055F5",
"W  c #1256F7",
"Q  c #1358F1",
"!  c #1058F5",
"~  c #1159F5",
"^  c #125CF6",
"/  c #1458FA",
"(  c #1A5AFD",
")  c #1B5FFD",
"_  c #1E65EB",
"`  c #1C63EC",
"'  c #1561F8",
"]  c #1862FA",
"[  c #1A61FC",
"{  c #1B62FC",
"}  c #1C62FD",
"|  c #1C63FD",
" . c #1F64FF",
".. c #1E65FF",
"X. c #1F67FF",
"o. c #1E6AFD",
"O. c #1E6DFC",
"+. c #1871F7",
"@. c #1B72F6",
"#. c #1C7EF7",
"$. c #1E77FA",
"%. c #1F70FD",
"&. c #236AE5",
"*. c #2169E8",
"=. c #2269E8",
"-. c #226BEB",
";. c #256FEC",
":. c #246FED",
">. c #216DF9",
",. c #206AFF",
"<. c #206BFF",
"1. c #206CFF",
"2. c #206DFF",
"3. c #216EFF",
"4. c #2270F8",
"5. c #2271F9",
"6. c #2070FD",
"7. c #2273FF",
"8. c #2075FD",
"9. c #2274FE",
"0. c #2274FF",
"q. c #2476FF",
"w. c #2578FF",
"e. c #2479FF",
"r. c #257BFF",
"t. c #257DFE",
"y. c #2879FF",
"u. c #2A82FF",
"i. c #2887FC",
"p. c #2886FF",
"a. c #2988FF",
"s. c #2889FF",
"d. c #2B8AFF",
"f. c #2C89FF",
"g. c #2A8EFF",
"h. c #2C8DFF",
"j. c #2B92FF",
"k. c #2E90FF",
"l. c #2E92FF",
"z. c #2C94FF",
"x. c #2E94FF",
"c. c #2F95FF",
"v. c #2F97FF",
"b. c #2E98FD",
"n. c #2D9BFF",
"m. c #2C9CFF",
"M. c #2F9DFF",
"N. c #349AFF",
"B. c #359DFF",
"V. c #349EFF",
"C. c #2FA0FF",
"Z. c #33A2FD",
"A. c #30A3FF",
"S. c #34A2FF",
"D. c #33ABFF",
"F. c #36A9FF",
"G. c #37AAFF",
"H. c #36ADFF",
"J. c #39ADFF",
"K. c #39AEFF",
"L. c #30B3FA",
"P. c #39B3FF",
"I. c #3AB6FF",
"U. c #3BB8FF",
"Y. c #3BBAFF",
"T. c #3EBBFF",
"R. c #3CC1FF",
"E. c #3CC3FF",
"W. c #3BC5FF",
"Q. c #38C6FF",
"!. c #3CC4FF",
"~. c #3DC5FF",
"^. c #3CC9FF",
"/. c #3BCFFF",
"(. c #38D2FB",
"). c #3ED2FF",
"_. c #3CD4FF",
"`. c #3FD4FF",
"'. c #3EDDFF",
"]. c #3FDEFF",
"[. c #43C8FF",
"{. c #40D2FF",
"}. c #43D4FF",
"|. c #44D9FF",
" X c #41DFFF",
".X c #42E6FF",
"XX c #44E7FF",
"oX c #43E8FF",
"OX c #43EAFF",
"+X c #46EBFF",
"@X c #46EDFF",
"#X c #45F4FF",
"$X c #45F7FF",
"%X c #48F7FF",
"&X c #46FDFF",
"*X c #47FDFF",
"=X c #47FFFF",
"-X c #48FCFF",
";X c #48FDFF",
":X c #49FDFF",
">X c #48FEFF",
",X c #48FFFF",
"<X c #49FFFF",
"1X c #4AFFFF",
"2X c #4BFFFF",
"3X c #4CFFFF",
"4X c #4DFFFF",
"5X c #4EFFFF",
"6X c #50FFFF",
/* pixels */
"    O O O O O O O O O O O O             O O O O O O O O O O O O ",
"    O O O O O O O O O O O O             O O O O O O O O O O O O ",
"O O     O O O O O O O O     O O O O     O O O O O O O O O O O O ",
"O O     O O O O O O O O     O O O O     O O O O O O O O O O O O ",
"O O O O     O O O O     O O O O O O O O     O O O O O O O O O O ",
"O O O O     O O O O     O O O O O O O O     O O O O O O O O O O ",
"O O O O O O         O O O O O O w 5.- O O O     O O O O O O O O ",
"O O O O O O         O O O O O O 5 A & O O O     O O O O O O O O ",
"O O O O O O     O O O O O O O O O O O O O O O O     O O O O O O ",
"O O O O O O     O O O O O O O O O O O # + O O O     O O O O O O ",
"O O O O         O O O O O O O O O O O F r O O O O O     O O O O ",
"O O O O         O O O O @ c 6 O O O O 4.-.t O O O O     O O O O ",
"                O O O O # w.e O O O O y :.D O O O O             ",
"                O O O O O _ u < O O O O b m O O O O             ",
"O O                 O + ; C R p O O O O s d O O O O         O O ",
"O O                 O : J O.9.k O O O O $ $ O O O O         O O ",
"O O O O             1 M U 6.q.;.Z h O O O O O O O O     O O O O ",
"O O O O             2 I U %.<...} ] x = O O O O O O     O O O O ",
"O O O O     O O O O 0 I U o.n.D.A.u.,.l , O O O     O O O O O O ",
"O O O O     O O O O 3 B U | ].6X-XY.j.r.a > O O     O O O O O O ",
"O O     O O O O O O O : J { _.2X=X,X<Xz.T f o X O O O O O O O O ",
"O O     O O O O O O O O * N (.5X=X,X3X#.K Q =.*.O O O O O O O O ",
"    O O O O O O O O O % g H $.).4X&XC.Y @.Z.c.7.O O O O O O O O ",
"    O O O O O O O 4 j z L ' ( M.|.^.1./ b.[.F.7.O O O O O O O O ",
"O O O O O O O O 7 G d.t.W <.<.f.J.N.3.3.h.S.l.7.O O O O O O     ",
"O O O O O O O O 0.v.T.G.a.p.e.k.U.P.s.0.2.2.>.&.O O O O O O     ",
"O O O O O O O O 7.x.K.Y.*X:X~.B.!.>X;Xg.X.7.S . O O O O         ",
"O O O O O O O O ~ i.}.#X,X,X%XE.I.<X,X@Xm. .n   O O O O         ",
"O O O O O O O O P E L.6X=X=X1X$X.X=X=X3XW.y.` q                 ",
"O O O O O O O O i v +.{.1X1X XOX<X=X=X,X+XH.[ L                 ",
"O O O O O O O O O 9 V 8.'.XXR.`.<X=X=X=X3X/.) ^ O O O O O O     ",
"O O O O O O O O O O 8 ! 0.V.oX,X=X=X=X=X2XQ...7.O O O O O O     "
};
