/* XPM */
static char *result[] = {
/* columns rows colors chars-per-pixel */
"32 32 209 2 ",
"   c #181425",
".  c #191E3C",
"X  c #262B44",
"o  c #262C45",
"O  c #262C47",
"+  c #262C48",
"@  c #262E4B",
"#  c #252D4D",
"$  c #262E4C",
"%  c #262E4D",
"&  c #27314C",
"*  c #23305A",
"=  c #263358",
"-  c #273758",
";  c #26345B",
":  c #25355E",
">  c #26365E",
",  c #1E397D",
"<  c #1C3B7E",
"1  c #253560",
"2  c #253763",
"3  c #253664",
"4  c #253764",
"5  c #263B6C",
"6  c #263C6E",
"7  c #253F79",
"8  c #2A4566",
"9  c #25407A",
"0  c #25407B",
"q  c #1C3882",
"w  c #1D3983",
"e  c #1E3B83",
"r  c #1C3D84",
"t  c #1A3B90",
"y  c #173B9C",
"u  c #183F9E",
"i  c #1538A6",
"p  c #143DAB",
"a  c #1F4393",
"s  c #1D4495",
"d  c #264682",
"f  c #244385",
"g  c #244387",
"h  c #254485",
"j  c #24468E",
"k  c #24488E",
"l  c #265785",
"z  c #2A5285",
"x  c #214797",
"c  c #244995",
"v  c #2F6899",
"b  c #1642AA",
"n  c #1542AF",
"m  c #1C48AB",
"M  c #1745B0",
"N  c #204AA8",
"B  c #214FB3",
"V  c #2557B2",
"C  c #2458B8",
"Z  c #2359BC",
"A  c #2B6DB7",
"S  c #1248C8",
"D  c #134AC8",
"F  c #124BCF",
"G  c #0F4EDC",
"H  c #205ED5",
"J  c #2363D7",
"K  c #1457E2",
"L  c #165AE7",
"P  c #1452E8",
"I  c #074AF1",
"U  c #0A4AF3",
"Y  c #094DF1",
"T  c #0B50F2",
"R  c #0B51F2",
"E  c #0B52F2",
"W  c #0E54F0",
"Q  c #0E55F4",
"!  c #0F56F4",
"~  c #0F57F4",
"^  c #1157F6",
"/  c #1159F5",
"(  c #115BF6",
")  c #135FF4",
"_  c #115CF6",
"`  c #145DF6",
"'  c #145EF7",
"]  c #155FF7",
"[  c #185EFB",
"{  c #1A5DFC",
"}  c #1864F9",
"|  c #1966F9",
" . c #1965FA",
".. c #1C60FE",
"X. c #1E64FF",
"o. c #1E67FF",
"O. c #1A6CFA",
"+. c #1D6BFD",
"@. c #1F68FF",
"#. c #1E6DFD",
"$. c #1E7BF6",
"%. c #2369E2",
"&. c #246CE7",
"*. c #226CEF",
"=. c #2A7FE5",
"-. c #297DEE",
";. c #206EFB",
":. c #2068FF",
">. c #206AFF",
",. c #206BFF",
"<. c #206EFE",
"1. c #216FFF",
"2. c #226FFF",
"3. c #257CF6",
"4. c #2270F8",
"5. c #2272FD",
"6. c #2273FD",
"7. c #2070FF",
"8. c #2171FF",
"9. c #2172FE",
"0. c #2272FE",
"q. c #2273FF",
"w. c #2274FE",
"e. c #2274FF",
"r. c #2374FF",
"t. c #2375FF",
"y. c #2376FF",
"u. c #2475FD",
"i. c #2574FF",
"p. c #2475FF",
"a. c #2476FF",
"s. c #257CFE",
"d. c #267DFF",
"f. c #247EFF",
"g. c #277EFF",
"h. c #2F89E2",
"j. c #2883FF",
"k. c #2A84FF",
"l. c #2A88FF",
"z. c #2B89FF",
"x. c #2A8AFF",
"c. c #2A8CFD",
"v. c #2A8FFF",
"b. c #2D8CFF",
"n. c #2C8DFF",
"m. c #2292F7",
"M. c #2A90FF",
"N. c #2B93FF",
"B. c #2C92FD",
"V. c #2E9EFF",
"C. c #329AF9",
"Z. c #319BFF",
"A. c #339DFF",
"S. c #349DFF",
"D. c #2FA0FF",
"F. c #32A2FD",
"G. c #31A0FF",
"H. c #34A3FF",
"J. c #34A6FD",
"K. c #36A4FF",
"L. c #36A7FF",
"P. c #36A8FF",
"I. c #37ACFE",
"U. c #38ADFF",
"Y. c #39ADFF",
"T. c #38AEFF",
"R. c #34B7FF",
"E. c #39B0FF",
"W. c #39B1FF",
"Q. c #3AB0FF",
"!. c #39B2FF",
"~. c #3AB3FF",
"^. c #3AB7FF",
"/. c #3DB4FF",
"(. c #3DB5FF",
"). c #37BFFF",
"_. c #3DBAFF",
"`. c #3FBFFF",
"'. c #3CC3FF",
"]. c #3DC4FF",
"[. c #39CCFF",
"{. c #3ACDFF",
"}. c #3DCDFF",
"|. c #3AD2FF",
" X c #3DD3FF",
".X c #3BD6FF",
"XX c #3CD7FF",
"oX c #3FD8FF",
"OX c #40D3FF",
"+X c #43D6FF",
"@X c #41DEFF",
"#X c #42DEFF",
"$X c #42DFFF",
"%X c #41E1FF",
"&X c #42E3FF",
"*X c #45E1FF",
"=X c #43E4FF",
"-X c #43E8FF",
";X c #45F7FF",
":X c #47FBFF",
">X c #47FFFF",
",X c #48FFFF",
"<X c #49FFFF",
"1X c #4AFFFF",
"2X c #4BFFFF",
"3X c #4CFFFF",
"4X c #4DFFFF",
"5X c #4EFFFF",
"6X c #4FFFFF",
/* pixels */
"    X X X X X X X X X X X X             X X X X X X X X X X X X ",
"    X X X X X X X X X X X X             X X X X X X X X X X X X ",
"X X     X X X X X X X X     X X X X     X X X X X X X X X X X X ",
"X X     X X X X X X X X     X X X X     X X X X X X X X X X X X ",
"X X X X     X X X X     X X X X X X X X     X X X X X X X X X X ",
"X X X X     X X X X     X X X X X X X X     X X X X X X X X X X ",
"X X X X X X         X X X X F n X X X X X X     X X X X X X X X ",
"X X X X X X         X X X X p s X X X X X X     X X X X X X X X ",
"X X X X X X     X X X X X X X X & 3 o X X X X X     X X X X X X ",
"X X X X X X     X X X X X X X o z ;.% X X X X X     X X X X X X ",
"X X X X         X X X X X X X v C.*.$ X X X X X X X     X X X X ",
"X X X X         X X X X X X X 8 A ^ # X X X X X X X     X X X X ",
"                X X X X X X X X - y + X X X X X X X             ",
"                X X X O 9 % X X X X X 6 7 4 X X X X             ",
"X X                 @ 0 q.2 X X X X X %.q.Z X X X X         X X ",
"X X                 h 4.0.: X X X X X J q.C X X X X         X X ",
"X X X X             < q.5.1 X X X X X &.V ; X X X X     X X X X ",
"X X X X             . r w.X d B j X X L a X X X X X     X X X X ",
"X X X X     X X X X = c 7.l h.l.-.f X G t X X X     X X X X X X ",
"X X X X     X X X X k y.j.L.~._.H.1.5 K b * X X     X X X X X X ",
"X X     X X X X X X g s.I.T.U.E.Z.1.r.( E M     X X X X X X X X ",
"X X     X X X X X X e ~ ) J.(.n.@.>.r._ I m     X X X X X X X X ",
"    X X X X X X X X w T Y 6.}.#X X[.>.U $.=.N X X X X X X X X X ",
"    X X X X X X X X q ! } ...X5X3X,X).O.B./.3.u X X X X X X X X ",
"X X X X X X X X X X , / a.X.|.2X>X>X3Xv.b.`.F.' X X X X X X     ",
"X X X X X X X X : > x Q q.2.XX2X>X>X,XN.z.!.H.a.X X X X X X     ",
"X X X X X X X X 5.u.| Q e.S.-X,X>X>X,X].g.x.P.q.X X X X         ",
"X X X X X X X X q.e.9.+.o.A.Q.%X1X;X^.Y.k.8.d.a.X X X X         ",
"X X X X X X X X a.t.,.f.{.$XW.K.OX:X@X*XD.:.<.]                 ",
"X X X X X X X X  .#.i.G.2X1X&X'.oX,X,X6XR.{ ` R                 ",
"X X X X X X X X S P c.+X>X>X,X<X,X>X>X=XV.[ W D X X X X X X     ",
"X X X X X X X X X i m.4X>X>X>X>X>X>X,XM.@.p.H X X X X X X X     "
};
