/* XPM */
static char *_5b94d5cf0f249bbef719887ae897e2dBeRgyvlHVucrRX9F[] = {
/* columns rows colors chars-per-pixel */
"32 32 2 1 ",
"  c #181425",
". c #262B44",
/* pixels */
"  ............      ............",
"  ............      ............",
"..  ........  ....  ............",
"..  ........  ....  ............",
"....  ....  ........  ..........",
"....  ....  ........  ..........",
"......    ............  ........",
"......    ............  ........",
"......  ................  ......",
"......  ................  ......",
"....    ..................  ....",
"....    ..................  ....",
"        ..................      ",
"        ..................      ",
"..        ................    ..",
"..        ................    ..",
"....        ..............  ....",
"....        ..............  ....",
"....  ......  ..........  ......",
"....  ......  ..........  ......",
"..  ..........    ....  ........",
"..  ..........    ....  ........",
"  ..............      ..........",
"  ..............      ..........",
"..................    ........  ",
"..................    ........  ",
"..................      ....    ",
"..................      ....    ",
"..................              ",
"..................              ",
"................      ........  ",
"................      ........  "
};
