/* XPM */
static char *result[] = {
/* columns rows colors chars-per-pixel */
"32 32 7 1 ",
"  c #181425",
". c #262B44",
"X c #420008",
"o c #B80031",
"O c #930026",
"+ c black",
"@ c white",
/* pixels */
"  ............      ............",
"  ............      ............",
"..  ........  ....  ............",
"..  ........  ....  ............",
"....  ....  ........  ..........",
"....  ....  ........  ..........",
"......    ............  ........",
"......    ............  ........",
"......  ................  ......",
"......  ......XXXXXXX...  ......",
"....    .....XooooooOX....  ....",
"....    ....XoXXXXoooOX...  ....",
"        ...XoX++++XoooOXX.      ",
"        ..XoX++++++XooOOOX      ",
"..        XoX++++++XooOOOX    ..",
"..        XoX++++++XoOOOX.    ..",
"....      XoX@+++@+XoOXX..  ....",
"....      XOX++++++XoOX...  ....",
"....  ....XOX+++++XoOOX.  ......",
"....  .....XOX+++XOOOX..  ......",
"..  ........XOXXXOOXX.  ........",
"..  .......XOoooooOOOX  ........",
"  ........XOoooooooooOX.........",
"  ........XOoooooooooOX.........",
"..........XoooooooooooOX......  ",
"..........XoooooooooooOX......  ",
".........XOooooOooooooOOX...    ",
"........XOooooOOOoooooOOOX..    ",
"........XOOooOOXOOoOoooOOX      ",
".......XOOoOOOOXOOOoooOoOOX     ",
".......XOOOOOOX+XOOOOOOOOOX...  ",
".......XXXXXXX+++XXXXXXXXXX...  "
};
