/* XPM */
static char *result[] = {
/* columns rows colors chars-per-pixel */
"32 32 7 1 ",
"  c #181425",
". c #262B44",
"X c #420008",
"o c #B80031",
"O c #930026",
"+ c black",
"@ c white",
/* pixels */
"  ............      ............",
"  ............      ............",
"..  ........  ....  ............",
"..  ........  ....  ............",
"....  ....  ..XXXXXXX ..........",
"....  ....  .XooooooOX..........",
"......    ..XoXXXXoooOX ........",
"......    .XoX++++XoooOX........",
"......  ..XoX++++++XooOX  ......",
"......  ..XoX++++++XooOOX ......",
"....    ..XoX@+++@+XoOOOX.  ....",
"....    ..XoX@+++@+XoOXOX.  ....",
"        ..XOX++++++XoOXOX.      ",
"        ..XOX+++++XoOOXX..      ",
"..        .XOX+++XOOOX....    ..",
"..        ..XOXXXOOXX.....    ..",
"....       XOoooooOOOX....  ....",
"....      XOoooooooooOX...  ....",
"....  ....XOoooooooooOX.  ......",
"....  ....XoooooooooooX.  ......",
"..  ......XoooooooooooOX........",
"..  .....XOooooOooooooOX........",
"  .......XOooooOooooooOX........",
"  .......XOOooOXOoooooOX........",
".........XOOoOOXOOoOoOOOX.....  ",
".........XOOOOX+XOOoOOOOX.....  ",
".........XOXOOX++XOOOOXOX...    ",
"..........XOOX+++XOOXOXX....    ",
"...........XXX+..XXX XX         ",
".............+....++            ",
".............+..  +   ........  ",
".............+..  +   ........  "
};
