/* XPM */
static char *result[] = {
/* columns rows colors chars-per-pixel */
"32 32 7 1 ",
"  c #181425",
". c #262B44",
"X c #000077",
"o c #009999",
"O c #005599",
"+ c #000000",
"@ c #FFFFFF",
/* pixels */
"  ............      ............",
"  ............      ............",
"..  ........  ....  ............",
"..  ........  ....  ............",
"....  ....  ........  ..........",
"....  ....  ........  ..........",
"......    ............  ........",
"......    ............  ........",
"......  ................  ......",
"......  ................  ......",
"....    ..................  ....",
"....    ..................  ....",
"        ......XXXXXXXX....      ",
"        .....XooooooOOXXX.      ",
"..        ..XoXXXXooooOOOX    ..",
"..        .XoX++++XoooOOOX    ..",
"....      XoX++++++XooOOX.  ....",
"....      XoX++++++XoOOX..  ....",
"....  ....XoX++++++XoOX.  ......",
"....  ....XoX++++++XoOX.  ......",
"..  ......XOX++++++XoOX ........",
"..  ......XOX+++++XoOX  ........",
"  .........XOX+++XOOX ..........",
"  .........XXOXXXOOXXX..........",
"..........XOoooooooooOX.......  ",
"..........XOooooooooooXX......  ",
".........XOooooooooooooOX...    ",
"........XOoooooooooooooOOX..    ",
"........XOooooOOooooooooOXX     ",
".......XOooooOOOOoOoooooOOX     ",
"......XXOOOOOOOXOOOOooOOOOXX..  ",
"......XXXXXXXXXXXXXXXXXXXXXX..  "
};
