/* XPM */
static char *result[] = {
/* columns rows colors chars-per-pixel */
"32 32 7 1 ",
"  c #181425",
". c #262B44",
"X c #420008",
"o c #B80031",
"O c #930026",
"+ c black",
"@ c white",
/* pixels */
"  ............      ............",
"  ............      ............",
"..  ........  ....  ............",
"..  ........  ....  ............",
"....  ....  ........  ..........",
"....  ....  ........  ..........",
"......    ............  ........",
"......    ............  ........",
"......  ................  ......",
"......  ......XXXXXXX...  ......",
"....    .....XooooooOX....  ....",
"....    ....XoXXXXoooOX...  ....",
"        ...XoX++++XoooOX..      ",
"        ..XoX++++++XooOOX.      ",
"..        XoX++++++XooOOOX    ..",
"..        XoX@+++@+XoOOOOX    ..",
"....      XoX@+++@+XoOXXX.  ....",
"....      XOX++++++XoOX...  ....",
"....  ....XOX+++++XoOOX.  ......",
"....  .....XOX+++XOOOX..  ......",
"..  ........XOXXXOOXXX  ........",
"..  .......XOoooooOOOX  ........",
"  .........XoooooooooOX.........",
"  ........XOoooooooooOX.........",
"..........XoooooooooooX.......  ",
"..........XoooooooooooX.......  ",
"..........XooooOooooooOX....    ",
".........XooOoOXOOooooOX....    ",
"........XOOooOOXOOoOoooOX       ",
"........XOOOOOX+XOOOOoOoX       ",
".......XOOOOOOX++XOOXOOOOX....  ",
".......XXXXXXX+++XXXXXXXXX....  "
};
