/* XPM */
static char *result[] = {
/* columns rows colors chars-per-pixel */
"32 32 7 1 ",
"  c #181425",
". c #262B44",
"X c #420008",
"o c #B80031",
"O c #930026",
"+ c black",
"@ c white",
/* pixels */
"  ............      ............",
"  ............      ............",
"..  ........  ....  ............",
"..  ........  ....  ............",
"....  ....  ........  ..........",
"....  ....  ........  ..........",
"......    ....XXXXXXX.  ........",
"......    ...XooooooOX  ........",
"......  ....XoXXXXoooOX.  ......",
"......  ...XoX++++XoooOX  ......",
"....    ..XoX++++++XooOX..  ....",
"....    ..XoX++++++XooOOX.  ....",
"        ..XoX@+++@+XoOOOOX      ",
"        ..XoX@+++@+XoOXOOX      ",
"..        XOX++++++XoOXXX.    ..",
"..        XOX+++++XoOOX...    ..",
"....       XOX+++XOOOX....  ....",
"....        XOXXXOOXX.....  ....",
"....  .....XOoooooOOOX..  ......",
"....  ....XOoooooooooOX.  ......",
"..  ......XOoooooooooOX ........",
"..  ......XoooooooooooOX........",
"  ........XoooooooooooOX........",
"  .......XOooooOooooooOOX.......",
".........XOooooOooooooOOOX....  ",
"........XOOOooOXOoooooOOOX....  ",
"........XOOOoOOXOOoOoOOOOX..    ",
"........XOOOOOX+XOOoOOOOOX..    ",
".........XXOOOX++XOOOOXOX       ",
".........X.XXX+++XXXXX X        ",
"............+... +    ........  ",
".............+..  +   ........  "
};
