/* XPM */
static char *result[] = {
/* columns rows colors chars-per-pixel */
"32 32 7 1 ",
"  c #181425",
". c #262B44",
"X c #000077",
"o c #009999",
"O c #005599",
"+ c #000000",
"@ c #FFFFFF",
/* pixels */
"  ............      ............",
"  ............      ............",
"..  ........  ....  ............",
"..  ........  ....  ............",
"....  ....  ........  ..........",
"....  ....  ........  ..........",
"......    ....XXXXXXX.  ........",
"......    ...XooooooOX  ........",
"......  ....XoXXXXoooOX.  ......",
"......  ...XoX++++XoooOX  ......",
"....    ..XoX++++++XooOX..  ....",
"....    ..XoX++++++XooOOX.  ....",
"        ..XoX@+++@+XoOOOOX      ",
"        ..XoX@+++@+XoOXOOX      ",
"..        XOX++++++XoOXXX.    ..",
"..        XOX+++++XoOOX...    ..",
"....       XOX+++XOOOX....  ....",
"....        XOXXXOOXX.....  ....",
"....  .....XOoooooOOOX..  ......",
"....  ....XOoooooooooX..  ......",
"..  ......XOoooooooooOX ........",
"..  ......XoooooooooooX ........",
"  ........XoooooooooooX.........",
"  .......XOooooOooooooX.........",
".........XOooooOooooooOX......  ",
".........XOOooOXOoooooOX......  ",
".........XOOoOOXOOoOoOOX....    ",
".........XOOOOX+XOOoOOOX....    ",
".........XOXOOX++XOOOOXX        ",
"..........XXXX+++XXXXX X        ",
"............+... +    ........  ",
".............+..  +   ........  "
};
