/* XPM */
static char *result[] = {
/* columns rows colors chars-per-pixel */
"32 32 5 1 ",
"  c black",
". c #3A0911",
"X c #811426",
"o c #A11B31",
"O c None",
/* pixels */
"OOOOOOOOOOOOOOOOOOOOOOOOOOOOOOOO",
"OOOOOOOOOOOOOOOOOOOOOOOOOOOOOOOO",
"OOOOOOOOOOOOOOOOOOOOOOOOOOOOOOOO",
"OOOOOOOOOOOOOOOOOOOOOOOOOOOOOOOO",
"OOOOOOOOOOOOOOOOOOOOOOOOOOOOOOOO",
"OOOOOOOOOOOOOOOOOOOOOOOOOOOOOOOO",
"OOOOOOOOOOOOOOOOOOOOOOOOOOOOOOOO",
"OOOOOOOOOOOOOOOOOOOOOOOOOOOOOOOO",
"OOOOOOOOOOOOOOOOOOOOOOOOOOOOOOOO",
"OOOOOOOOOOOOOOOOOOOOOOOOOOOOOOOO",
"OOOOOOOOOOOOOOOOOOOOOOOOOOOOOOOO",
"OOOOOOOOOOOOOOOOOOOOOOOOOOOOOOOO",
"OOOOOOOOOO........OOOOOOOOOOOOOO",
"OOOOOOO...XXoooooo.OOOOOOOOOOOOO",
"OOOOOO.XXXoooo....o.OOOOOOOOOOOO",
"OOOOOO.XXXooo.    .o.OOOOOOOOOOO",
"OOOOOOO.XXoo.      .o.OOOOOOOOOO",
"OOOOOOOO.XXo.      .o.OOOOOOOOOO",
"OOOOOOOOO.Xo.      .o.OOOOOOOOOO",
"OOOOOOOOO.Xo.      .o.OOOOOOOOOO",
"OOOOOOOOO.Xo.      .X.OOOOOOOOOO",
"OOOOOOOOOO.Xo.     .X.OOOOOOOOOO",
"OOOOOOOOOOO.XX.   .X.OOOOOOOOOOO",
"OOOOOOOOOO...XX...X..OOOOOOOOOOO",
"OOOOOOOOO.XoooooooooX.OOOOOOOOOO",
"OOOOOOOO..ooooooooooX.OOOOOOOOOO",
"OOOOOOO.XooooooooooooX.OOOOOOOOO",
"OOOOOO.XXoooooooooooooX.OOOOOOOO",
"OOOOO..XooooooooXXooooX.OOOOOOOO",
"OOOOO.XXoooooXoXXXXooooX.OOOOOOO",
"OOOO..XXXXooXXXX.XXXXXXX..OOOOOO",
"OOOO......................OOOOOO"
};
