/* XPM */
static char *result[] = {
/* columns rows colors chars-per-pixel */
"32 32 7 1 ",
"  c #181425",
". c #262B44",
"X c #000077",
"o c #005599",
"O c #009999",
"+ c #000000",
"@ c #FFFFFF",
/* pixels */
"  ............      ............",
"  ............      ............",
"..  ........  ....  ............",
"..  ........  ....  ............",
"....  ....  ........  ..........",
"....  ....  ........  ..........",
"......    ............  ........",
"......    ............  ........",
"......  ................  ......",
"......  ................  ......",
"....    ..................  ....",
"....    ..................  ....",
"        ..XXXXXXXX........      ",
"       XXXooOOOOOOX.......      ",
"..    XoooOOOOXXXXOX......    ..",
"..    XoooOOOX++++XOX.....    ..",
"....   XooOOX++++++XOX....  ....",
"....    XooOX++++++XOX....  ....",
"....  ...XoOX++++++XOX..  ......",
"....  ...XoOX++++++XOX..  ......",
"..  .....XoOX++++++XoX  ........",
"..  ......XoOX+++++XoX  ........",
"  .........XooX+++XoX ..........",
"  ........XXXooXXXoXX ..........",
".........XoOOOOOOOOOoX........  ",
"........XXOOOOOOOOOOoX........  ",
".......XoOOOOOOOOOOOOoX ....    ",
"......XooOOOOOOOOOOOOOoX....    ",
".....XXoOOOOOOOOooOOOOoX        ",
".....XooOOOOOoOooooOOOOoX       ",
"....XXooooOOooooXoooooooXX....  ",
"....XXXXXXXXXXXXXXXXXXXXXX....  "
};
