/* XPM */
static char *result[] = {
/* columns rows colors chars-per-pixel */
"32 32 7 1 ",
"  c #181425",
". c #262B44",
"X c #000077",
"o c #005599",
"O c #009999",
"+ c #000000",
"@ c #FFFFFF",
/* pixels */
"  ............      ............",
"  ............      ............",
"..  ........  ....  ............",
"..  ........  ....  ............",
"....  .... XXXXXXX..  ..........",
"....  ....XoOOOOOOX.  ..........",
"......   XoOOOXXXXOX..  ........",
"......  XoOOOX++++XOX.  ........",
"......  XoOOX++++++XOX..  ......",
"...... XooOOX++++++XOX..  ......",
"....   XoooOX+@+++@XOX....  ....",
"....   XoXoOX+@+++@XOX....  ....",
"       XoXoOX++++++XoX....      ",
"        XXooOX+++++XoX....      ",
"..        XoooX+++XoX.....    ..",
"..        .XXooXXXoX......    ..",
"....      XoooOOOOOoX.....  ....",
"....     XoOOOOOOOOOoX....  ....",
"....  ...XoOOOOOOOOOoX..  ......",
"....  ...XOOOOOOOOOOOX..  ......",
"..  ....XoOOOOOOOOOOOX  ........",
"..  ....XoOOOOOOoOOOOoX ........",
"  ......XoOOOOOOoOOOOoX.........",
"  ......XoOOOOOoXoOOooX.........",
".......XoooOoOooXooOooX.......  ",
".......XooooOooX+XooooX.......  ",
".......XoXooooX++XooXoX ....    ",
"........XXoXooX+++XooX  ....    ",
".........XX.XXX..+XXX           ",
"............++....+             ",
".............+..  +   ........  ",
".............+..  +   ........  "
};
