/* XPM */
static char *result[] = {
/* columns rows colors chars-per-pixel */
"32 32 7 1 ",
"  c #181425",
". c #262B44",
"X c #000077",
"o c #005599",
"O c #009999",
"+ c #000000",
"@ c #FFFFFF",
/* pixels */
"  ............      ............",
"  ............      ............",
"..  ........  ....  ............",
"..  ........  ....  ............",
"....  ....  ........  ..........",
"....  ....  ........  ..........",
"......    .XXXXXXX....  ........",
"......    XoOOOOOOX...  ........",
"......  .XoOOOXXXXOX....  ......",
"......  XoOOOX++++XOX...  ......",
"....    XoOOX++++++XOX....  ....",
"....   XooOOX++++++XOX....  ....",
"      XooooOX+@+++@XOX....      ",
"      XooXoOX+@+++@XOX....      ",
"..     XXXoOX++++++XoX....    ..",
"..       XooOX+++++XoX....    ..",
"....      XoooX+++XoX.....  ....",
"....       XXooXXXoX......  ....",
"....  ....XoooOOOOOoX...  ......",
"....  ...XoOOOOOOOOOoX..  ......",
"..  .....XoOOOOOOOOOoX  ........",
"..  ....XoOOOOOOOOOOOX  ........",
"  ......XoOOOOOOOOOOOX..........",
"  .....XooOOOOOOoOOOOoX.........",
"......XoooOOOOOOoOOOOoX.......  ",
"......XoooOOOOOoXoOOoooX......  ",
"......XooooOoOooXooOoooX....    ",
"......XoooooOooX+XoooooX....    ",
".......XoXooooX++XoooXX         ",
"........X.XXXXX+++XXX X         ",
"..............+.   +  ........  ",
".............+..  +   ........  "
};
