/* XPM */
static char *result[] = {
/* columns rows colors chars-per-pixel */
"32 32 37 1 ",
"  c #292F44",
". c #292F45",
"X c #2A2F44",
"o c #2A2F45",
"O c #576985",
"+ c #576A85",
"@ c #576986",
"# c #576A86",
"$ c #586985",
"% c #586A85",
"& c #586986",
"* c #586A86",
"= c #5A6988",
"- c #8599B1",
"; c #8799B1",
": c #859AB1",
"> c #869AB1",
", c #8599B2",
"< c #8699B2",
"1 c #859AB2",
"2 c #869AB2",
"3 c #8B9BB4",
"4 c #BCC9DA",
"5 c #BCC9DB",
"6 c #BEC9DA",
"7 c #BEC9DB",
"8 c #BCCADA",
"9 c #BCCADB",
"0 c #BDCADB",
"q c #BECADA",
"w c #C0CBDC",
"e c #E8E3DF",
"r c #E9E3DF",
"t c #E8E3E0",
"y c #E9E3E0",
"u c #E8E4E0",
"i c #E9E4E0",
/* pixels */
"iiiiiiii=..........oX%:,169triit",
"iiiiiiii=.......... .&-1256uieie",
"iiiiii333==........o.@#2>:,4qyui",
"iiiiii333==.........X.O,<:25qiii",
"iiiiiww3333==......X  #1;-;06uur",
"iiiiiww3333==.......X +:2-<40yui",
"iiiww33===........Xoo.%-,q66qiir",
"iiiww33===.........%#%@;,957quiu",
"iiiwwww333=.......X%<<10qriiyiut",
"wwwwwww333=.......oO1;:0qruytuii",
"3333333333=.......o&:,;54uruyrey",
"333====333=.......o+2;<96tetiuiu",
"===....====........&#OO,-58iiuii",
"..................o$%#%-;59iiriu",
"..................XX%:>q779riuyr",
"....................*;;6q55utiie",
"..................XX%,26684yeyet",
".................o .$-19049utiyu",
"...................X$*%#,<<<8qtu",
"===....====......XooX. %-1,<q6yr",
"333====333=......  o.  *<:219qtr",
"3333333333=....... @#@#@--<<98te",
"wwwwwww333=......oo$:->2804eiurr",
"iiiwwww333=......oXO<12,958iuyre",
"iiiww33===.......Xo#22>>896erryy",
"iiiww33===.......oX&2221780ruyeu",
"iiiiiww3333==....oXO%$#::9040iiu",
"iiiiiww3333==....X oo %>-9906iye",
"iiiiii333==........X o+,,6946uuu",
"iiiiii333==.......o..%%2,q650riu",
"iiiiiiii=.........XX.+-,;90uiueu",
"iiiiiiii=.........X..$-2:75eiuer"
};
