/* XPM */
static char *result[] = {
/* columns rows colors chars-per-pixel */
"32 32 28 1 ",
"  c #292F45",
". c #262B44",
"X c #5A6988",
"o c #8599B1",
"O c #8799B1",
"+ c #859AB1",
"@ c #869AB1",
"# c #8599B2",
"$ c #8699B2",
"% c #859AB2",
"& c #869AB2",
"* c #8B9BB4",
"= c #BCC9DA",
"- c #BCC9DB",
"; c #BEC9DA",
": c #BEC9DB",
"> c #BCCADA",
", c #BCCADB",
"< c #BDCADB",
"1 c #BECADA",
"2 c #C0CBDC",
"3 c #E8E3DF",
"4 c #E9E3DF",
"5 c #E8E3E0",
"6 c #E9E3E0",
"7 c #E8E4E0",
"8 c #E9E4E0",
"9 c #E9E5E1",
/* pixels */
"88888888888888899999999999999999",
"37888888888888899999999999999999",
"73588888888888899999999999999999",
"44588888888888899999999999999999",
"77788888888888899999999922222299",
"53488888888888999999999922222299",
"653888888888**222222999922****22",
"688888888888**222222999922****22",
"847888888888++2222**2222********",
"757768888888@o2222**2222********",
"58883867;>&++O****XX****XXXXXX**",
"77888687<=@O%&****XX****XXXXXX**",
"388787:=++XXXX****XX****XXXXXXXX",
"678878>>%@XXXX****XX****XXXXXXXX",
"888874>,=1%+o%#@**XXXXXX....XXXX",
"878846>->-@+o@%@**XXXXXX....    ",
"8473631=>>@&@##&                ",
"673878<1-=@&O#&#         XXXX   ",
"88>,11++@+XX....         XXXX XX",
"74=-,=o@OoXX....    XXXXX****XXX",
"76>>>>%O&+....      XX**********",
"68;,>=@O+@....      XX**********",
"4588861-;,%o@%      XX***2222222",
"888868>>1=@#O%      XX***2222888",
"8777851;--$&O@       XXXX**22888",
"688788,>1=$@oO       XXXX**22888",
"8686=,=1o%         XX****2288888",
"7875>->-@@         XX****2288888",
"886611,-+&..         XX****88888",
"8736><,<@O..         XX****88888",
"468688<,+$@&           888888888",
"858678,:$#&&           888888888"
};
