/* XPM */
static char *result[] = {
/* columns rows colors chars-per-pixel */
"32 32 28 1 ",
"  c #292F45",
". c #262B44",
"X c #5A6988",
"o c #8599B1",
"O c #8799B1",
"+ c #859AB1",
"@ c #869AB1",
"# c #8599B2",
"$ c #8699B2",
"% c #859AB2",
"& c #869AB2",
"* c #8B9BB4",
"= c #BCC9DA",
"- c #BCC9DB",
"; c #BEC9DA",
": c #BEC9DB",
"> c #BCCADA",
", c #BCCADB",
"< c #BDCADB",
"1 c #BECADA",
"2 c #C0CBDC",
"3 c #E8E3DF",
"4 c #E9E3DF",
"5 c #E8E3E0",
"6 c #E9E3E0",
"7 c #E8E4E0",
"8 c #E9E4E0",
"9 c #E9E5E1",
/* pixels */
"888888888           &&#$:,876858",
"888888888           &@$+,<886864",
"88888****XX         ..O@<,<>6378",
"88888****XX         ..&+-,116688",
"8888822****XX         @@->->5787",
"8888822****XX         %o1=,=6868",
"88822**XXXX       Oo@$=1>,887886",
"88822**XXXX       @O&$--;1587778",
"8882222***XX      %O#@=1>>868888",
"2222222***XX      %@o%,;-1688854",
"**********XX      ....@+O@=>,;86",
"**********XX      ....+&O%>>>>67",
"XXX****XXXXX    ....XXoO@o=,-=47",
"XX XXXX         ....XX+@++11,>88",
"   XXXX         #&#O&@=-1<878376",
"                &##@&@>>=1363748",
"    ....XXXXXX**@%@o+@->->648878",
"XXXX....XXXXXX**@#%o+%1=,>478888",
"XXXXXXXX****XX****XXXX@%>>878876",
"XXXXXXXX****XX****XXXX++=:787883",
"**XXXXXX****XX****&%O@=<78688877",
"**XXXXXX****XX****O++&>;76838885",
"********2222**2222o@888888867757",
"********2222**2222++888888888748",
"22****229999222222**888888888886",
"22****229999222222**888888888356",
"99222222999999999988888888888435",
"99222222999999999888888888888777",
"99999999999999999888888888888544",
"99999999999999999888888888888537",
"99999999999999999888888888888873",
"99999999999999999888888888888888"
};
