/* XPM */
static char *eb5756b5acd546b3aefbb1c949361c657260hvmWVoD6GC2j[] = {
/* columns rows colors chars-per-pixel */
"32 32 5 1 ",
"  c #1E1F34",
". c #262B44",
"X c #333C5A",
"o c #3A4466",
"O c #455272",
/* pixels */
"OOOOoo..oo......ooOOoo..XXXXoooo",
"OOOOoo..oo......ooOOoo..XXXXoooo",
"XXXXOO  ..XX..XX..XXoo  ..XXXXoo",
"XXXXOO  ..XX..XX..XXoo  ..XXXXoo",
"XXXXoo  ......XXXXXXoo  XXXXooXX",
"XXXXoo  ......XXXXXXoo  XXXXooXX",
"....              ....  ........",
"....              ....  ........",
"..oo..ooooOOOOoo..XXooooXXooOOoo",
"..oo..ooooOOOOoo..XXooooXXooOOoo",
"..ooXXXXXXXXXXOO  ..XXXXXXXXooOO",
"..ooXXXXXXXXXXOO  ..XXXXXXXXooOO",
"  XXooXXXX..oooo  ooXXXX..XXXXoo",
"  XXooXXXX..oooo  ooXXXX..XXXXoo",
"  ....    ......  ....      ....",
"  ....    ......  ....      ....",
"OOOOoo....ooooOOOOOOoo..XXooOOOO",
"OOOOoo....ooooOOOOOOoo..XXooOOOO",
"XXooOO  ....XX..XXooOO..ooXXooXX",
"XXooOO  ....XX..XXooOO..ooXXooXX",
"XXXXoo  ..oo..XXXXXXoo  XX..XXoo",
"XXXXoo  ..oo..XXXXXXoo  XX..XXoo",
"....        ....            ....",
"....        ....            ....",
"..XXooXXooOOOOoo..XX..ooooOOOOoo",
"..XXooXXooOOOOoo..XX..ooooOOOOoo",
"  ..XXooXXooXXOO....XXXXXXooXXOO",
"  ..XXooXXooXXOO....XXXXXXooXXOO",
"  oo..XX..XXoooo  XXXX..XXoooooo",
"  oo..XX..XXoooo  XXXX..XXoooooo",
"          ......  ....    ......",
"          ......  ....    ......"
};
