/* XPM */
static char *result[] = {
/* columns rows colors chars-per-pixel */
"32 32 53 1 ",
"  c #181424",
". c #191424",
"X c #181524",
"o c #191524",
"O c #181425",
"+ c #191425",
"@ c #181525",
"# c #191525",
"$ c #262A44",
"% c #272A44",
"& c #262B44",
"* c #272B44",
"= c #262A45",
"- c #272A45",
"; c #262B45",
": c #272B45",
"> c #3A4466",
", c #3B4466",
"< c #3A4566",
"1 c #3B4566",
"2 c #3A4567",
"3 c #5A6888",
"4 c #5B6888",
"5 c #5A6988",
"6 c #5B6988",
"7 c #5A6889",
"8 c #5B6889",
"9 c #5A6989",
"0 c #5B6989",
"q c #8A9AB4",
"w c #8B9AB4",
"e c #8A9BB4",
"r c #8B9BB4",
"t c #8A9AB5",
"y c #8B9AB5",
"u c #8A9BB5",
"i c #8B9BB5",
"p c #C0CADC",
"a c #C1CADC",
"s c #C0CBDC",
"d c #C1CBDC",
"f c #C0CADD",
"g c #C1CADD",
"h c #C0CBDD",
"j c #C1CBDD",
"k c #E8E4E0",
"l c #E9E4E0",
"z c #E8E5E0",
"x c #E9E5E0",
"c c #E8E4E1",
"v c #E9E4E1",
"b c #E8E5E1",
"n c #E9E5E1",
/* pixels */
"vbznxclblzvvvkxxbbnlvlxvbxkbbvkz",
"xcbzkcbnzckllxnznbxxlkllnkbzknnn",
"nxnbbxnbvlccvvllvnvcbhddgznzxnzb",
"xvxzaspsfdkvlbnxxzxkzjhsscbvkllv",
"xcznjpsgajkvzzvnksggjjghjxlzknxl",
"lxbxhhfhsdblkznqufjdpsapjdckzkkc",
"nvnnaddahacffaphdgaggyqygsaadpjj",
"xcnxapdznbljshdhfdssfieyraapfjpp",
"bnlnlllxcxdaasgfgfpd468wepfjjgjj",
"lxnknzkclnhjpghaaaaj836ryhasajdf",
"vnkblbvbafpgdyqrrew47744rrfssyqq",
"zvkbvnczhhfppiiyyyt048443trrqirw",
"znnncnzayqqqrtyuu;%;&*843wqre;*&",
"bknknkxjerqtyttrq=&*=&:&=*:=&-$$",
"ckzvnvkdfaswqrye006$O. ..@X%-%$+",
"nbkckvlsjfaiwrte494%#@....O&%&% ",
"nxcbbzbhfsauyryi379=@Oo#.oo&*#.o",
"bnzvcxvdapjiiire975$+##+#OoXX#+X",
"cxvhhffrier57387$;:*&%;=o #.X@.+",
"zczdfphuwry57996:%;:&$*%#o. o.o@",
"cncaffjieqy058573385:*-*O oX$-&#",
"zbcjfpsyrti936585644:;=;Oo#.*&=o",
"zcknlkxpgfdurrr96955=;$@+@OO:&%#",
"ccllkcnfgssetir78764*:*X+OO.=&;#",
"cvvvcvzhsphryeq7%%:;:$%X O .@X..",
"nlvzzcbspgjwuty6;;%$$&:.#o@o oX ",
"xxvxfhgditr36653*::,2>1%O@X+ X#o",
"xnclajajuti48976;&*212<=+# .@oX@",
"vbvzsfjgiiy59463=$;1<,>%oXOo .##",
"vbllkvlauyri0697584%%%:-.#+$#+#X",
"cnvbbllfiyiu7764549:&;;=  @&@#++",
"xlbkklbdyqtw9503509::&;&@X@&X+OO"
};
