/* XPM */
static char *_b5da77e33154e4aa34d51f9c21c658cAWbVTtIDKUJAAFdp[] = {
/* columns rows colors chars-per-pixel */
"32 32 8 1 ",
"  c #181425",
". c #262B44",
"X c #3A4466",
"o c #5A6988",
"O c #8B9BB4",
"+ c #C0CBDC",
"@ c #E9E5E1",
"# c white",
/* pixels */
"                                ",
"                                ",
"        ....                    ",
"        ....                    ",
"..                            ..",
"..                            ..",
"                  ....          ",
"                  ....          ",
"......    ....    ........    ..",
"......    ....    ........    ..",
"..XXXX........      ..XXXX......",
"..XXXX........      ..XXXX......",
"..XXXX..oooo..........XXXX......",
"..XXXX..oooo..........XXXX......",
"oo......oooo..oooooooo......oooo",
"oo......oooo..oooooooo......oooo",
"ooooooooooooooOOOOoooooo....oooo",
"ooooooooooooooOOOOoooooo....oooo",
"ooooooOOOOooooOOOOooOOOOoooooooo",
"ooooooOOOOooooOOOOooOOOOoooooooo",
"OOooooOOOOooooOOOOooOOOOooooooOO",
"OOooooOOOOooooOOOOooOOOOooooooOO",
"OOOOOO++++OOOO++++OO++++OOOOOOOO",
"OOOOOO++++OOOO++++OO++++OOOOOOOO",
"++++++++++OOOO++++++@@@@++OOOO++",
"++++++++++OOOO++++++@@@@++OOOO++",
"@@++++@@@@++++@@@@@@@@@@++++++@@",
"@@++++@@@@++++@@@@@@@@@@++++++@@",
"@@@@@@@@@@++++@@@@@@@@@@@@@@@@@@",
"@@@@@@@@@@++++@@@@@@@@@@@@@@@@@@",
"@@@@@@@@@@@@@@@@@@@@@@@@@@@@@@@@",
"@@@@@@@@@@@@@@@@@@@@@@@@@@@@@@@@"
};
