/* XPM */
static char *result[] = {
/* columns rows colors chars-per-pixel */
"32 32 56 1 ",
"  c #181424",
". c #191424",
"X c #181524",
"o c #191524",
"O c #181425",
"+ c #191425",
"@ c #181525",
"# c #191525",
"$ c #262A44",
"% c #272A44",
"& c #262B44",
"* c #272B44",
"= c #262A45",
"- c #272A45",
"; c #262B45",
": c #272B45",
"> c #3A4466",
", c #3B4466",
"< c #3A4566",
"1 c #3B4566",
"2 c #3A4467",
"3 c #3B4467",
"4 c #3A4567",
"5 c #3B4567",
"6 c #5A6888",
"7 c #5B6888",
"8 c #5A6988",
"9 c #5B6988",
"0 c #5A6889",
"q c #5B6889",
"w c #5A6989",
"e c #5B6989",
"r c #8A9AB4",
"t c #8B9AB4",
"y c #8A9BB4",
"u c #8B9BB4",
"i c #8A9AB5",
"p c #8B9AB5",
"a c #8A9BB5",
"s c #8B9BB5",
"d c #C0CADC",
"f c #C1CADC",
"g c #C0CBDC",
"h c #C1CBDC",
"j c #C0CADD",
"k c #C1CADD",
"l c #C0CBDD",
"z c #C1CBDD",
"x c #E8E4E0",
"c c #E9E4E0",
"v c #E8E5E0",
"b c #E9E5E0",
"n c #E8E4E1",
"m c #E9E4E1",
"M c #E8E5E1",
"N c #E9E5E1",
/* pixels */
"++..$&.+$:&=-;ew9860siiafjxcxbNb",
". . $:O@-==$=&8w68w0stysjzbbmMcN",
".O+X#o.#*;><>4*&979800ysdjhgNxmm",
"XO#O+O@o%:,1><&%6w9w96yyffgkmMcb",
"X#+#Oo.@;&<<43&=w9qq79pskgldNvvv",
".O @.@+ %%1224&$0098e7aphjgzvmNm",
"o oOXo+X+O&%&$*$08stitkflgNbcvnv",
"o#O+ X#o  ;%=:;&8waraihjlhnMbnvN",
"++:&..++@O%;88e77euyaslgdgNbmmxm",
" .-$OX@X@O&=6w87w0uirajjlhmvNxbc",
"O#$%O @O%;=*e6w996eww7ysaillllNm",
"@@$;.. @&&&=906wew78e7yptifdlfMm",
"+OO+O++ &%*%*&*;6690w7yusulgkfMb",
"XX.o#@X#&-;;&$;$67w888ayssfhdgNm",
"X@OX.#@@ +O+-:90rspsstdhhlxMbbNv",
"@@O@+ O@@ +o-*98raaptugghkmMnvNb",
"@X X@.X.#+.+%-8wrisiutlzdjmvmbbb",
". @#@@ ++oX+;%eqsyirypllzgnxMNcM",
".OX ##&&&*o+%:9w9ww798stkgnxvvvn",
"# @+O+$&$:+o:&0qww9qwwipzzbnxccb",
"#X@ X.&%***%-=998esrtygfMnNmccxM",
"@O@+@@$%;*&-*;0099asyszgvnncNmNM",
"@@##+  #;&41,2*-eeuuaslhNvxbNnvM",
"O #X#O+X&-25>,;:q9pssykkxxmNmNvm",
"oX #O+#@;*>54,-:$$8e9qiszghjMcxv",
"@#o@X+o@$;>43>;=:;ew99uylfzgxbnm",
"o#O@# ##Xo-&::&::$0w99asuyfhbxNM",
"  #X##O.#.&&=:&%-&wwq8utpyglbNNM",
"O.#O+.oX@+%&%$8769q6w6piuidfbMmb",
"@#X .+.X #$*;$696989qeuaptfjbvbN",
" #@+&&@#-:=;$&w8e6e7ssisllnvNbNx",
"#O#o**X ;**$:*8w7767rirsjgnxbnmb"
};
