/* XPM */
static char *result[] = {
/* columns rows colors chars-per-pixel */
"32 32 37 1 ",
"  c #292F44",
". c #292F45",
"X c #2A2F44",
"o c #2A2F45",
"O c #576985",
"+ c #576A85",
"@ c #576986",
"# c #576A86",
"$ c #586985",
"% c #586A85",
"& c #586986",
"* c #586A86",
"= c #5A6988",
"- c #8599B1",
"; c #8799B1",
": c #859AB1",
"> c #869AB1",
", c #8599B2",
"< c #8699B2",
"1 c #859AB2",
"2 c #869AB2",
"3 c #8B9BB4",
"4 c #BCC9DA",
"5 c #BCC9DB",
"6 c #BEC9DA",
"7 c #BEC9DB",
"8 c #BCCADA",
"9 c #BCCADB",
"0 c #BDCADB",
"q c #BECADA",
"w c #C0CBDC",
"e c #E8E3DF",
"r c #E9E3DF",
"t c #E8E3E0",
"y c #E9E3E0",
"u c #E8E4E0",
"i c #E9E4E0",
/* pixels */
"iiiiiiiiiw33=......=33wiiiiiiiii",
"iiiiiiiiiw33=......=33wiiiiiiiii",
"iiiiiiiiiw33=......=33wiiiiiiiii",
"iiiiiiwwww3=........=3wwwwiiiiii",
"iiiiiiwwww3=........=3wwwwiiiiii",
"iiiiww33ww3=........=3ww33wwiiii",
"ii33ww33ww3=........=3ww33ww33ii",
"ii3333==3333=......=3333==3333ii",
"==3333==3333=......=3333==3333==",
"..==33==3333=......=3333==33==..",
"..==33..=====......=====..33==..",
"....==....................==....",
"....==....................==....",
"................................",
"................................",
"................................",
"................................",
"....XooXoo. X.o.................",
"XXo. XXoXo  o. X.Xo.oooX.X......",
".X.XoO&#O$@ooX.X.X$&+&O%%o.X.o o",
"... o%22<:#.X$$%*%%#2:1<#oX X..X",
"$+%o $221-@ .*-,;:#O;,;<%.  .@&%",
"--%+%#2>2>#  %12;>%O<;:1@%+#O#-:",
"2,2,>:1>,2@*%#966q-,9500;-:1,21,",
":;,,-:7898-<-,06q7;-64qq,,2;<>21",
"79q6998950-:1<485755turr9q--::56",
"5069900684<2,<945998erui56<;2,69",
"eu5404reie<1<<uyuriituyi764054ut",
"ii0660urui99q8tetiiiiytyqq06qqir",
"uuruiiyryu8q6qiyiuruuruiuiyuiyei",
"eeiuyieyrrttytyeiyiiieiuiiuuiuii",
"ruuueuuyererruuteruiuyituririiet"
};
