/* XPM */
static char *cf4cddbda9ab4d028481f5f89f754e11rkXgnxUZNZPe4h9E[] = {
/* columns rows colors chars-per-pixel */
"32 32 19 1 ",
"  c #291E31",
". c #070707",
"X c #591D1D",
"o c #074354",
"O c #006678",
"+ c #4C4C4C",
"@ c #96523A",
"# c #BD774F",
"$ c #00A8B1",
"% c #00CECA",
"& c #00FDE0",
"* c #9E9E96",
"= c #989898",
"- c #ECB686",
"; c #9CFAE4",
": c #B9FFEF",
"> c #D2D2D2",
", c #FFFFFB",
"< c white",
/* pixels */
"            ........            ",
"            ........            ",
"          ..@@----@@..          ",
"          ..@@----@@..          ",
"        ..**--------++..        ",
"        ..**--------++..        ",
"        ..>>##----##==..        ",
"        ..>>##----##==..        ",
"        ..<<XX@@@@XX==..        ",
"        ..<<XX@@@@XX==..        ",
"        ..**<<<<<<>>**..        ",
"        ..**<<<<<<>>**..        ",
"        ..oo>>>>>>**oo..        ",
"        ..oo>>>>>>**oo..        ",
"      ..>>;;ooOOOOoooo**..      ",
"      ..>>;;ooOOOOoooo**..      ",
"      ..<<,,;;%%&&%%OO**..      ",
"      ..<<,,;;%%&&%%OO**..      ",
"      ..<<,,,,$$$$$$%%>>..      ",
"      ..<<,,,,$$$$$$%%>>..      ",
"      ..<<,,&&::::&&$$>>..      ",
"      ..<<,,&&::::&&$$>>..      ",
"      ..>>;;$$$$$$$$$$>>..      ",
"      ..>>;;$$$$$$$$$$>>..      ",
"      ..**;;OO$$$$$$OO**..      ",
"      ..**;;OO$$$$$$OO**..      ",
"      ..**>>ooOOOOOOoo**..      ",
"      ..**>>ooOOOOOOoo**..      ",
"        ..**<<<<>>>>**..        ",
"        ..**<<<<>>>>**z         ",
"          ............          ",
"          ............          "
};
