/* XPM */
static char *result[] = {
/* columns rows colors chars-per-pixel */
"32 32 239 2 ",
"   c #181425",
".  c #191525",
"X  c #1F1625",
"o  c #2A1A25",
"O  c #2B1A25",
"+  c #3C303F",
"@  c #42303E",
"#  c #46303C",
"$  c #47313D",
"%  c #4D333C",
"&  c #4B353D",
"*  c #433E3E",
"=  c #443E3E",
"-  c #4A3A3F",
";  c #4B3B3F",
":  c #4D3C3F",
">  c #4F3C3F",
",  c #50333B",
"<  c #54343A",
"1  c #57353A",
"2  c #713327",
"3  c #683936",
"4  c #683937",
"5  c #6D3935",
"6  c #6E3D37",
"7  c #653A38",
"8  c #763C34",
"9  c #793D33",
"0  c #53463D",
"q  c #5A423D",
"w  c #564C3B",
"e  c #66463C",
"r  c #6A4B3B",
"t  c #704C3B",
"y  c #764D3A",
"u  c #7C4C38",
"i  c #7E4E3A",
"p  c #262B44",
"a  c #272B44",
"s  c #2F2B42",
"d  c #2A2D43",
"f  c #2D2C43",
"g  c #2D2E43",
"h  c #2C2F43",
"j  c #282C44",
"k  c #332F41",
"l  c #302F43",
"z  c #372E40",
"x  c #362E41",
"c  c #353142",
"v  c #393341",
"b  c #3A3342",
"n  c #3F3440",
"m  c #3F3641",
"M  c #423740",
"N  c #493940",
"B  c #85302A",
"V  c #88332B",
"C  c #8B3D2E",
"Z  c #99392C",
"A  c #9E4227",
"S  c #924028",
"D  c #98412B",
"F  c #9E422B",
"G  c #9E432B",
"H  c #904B2A",
"J  c #834334",
"K  c #894D34",
"L  c #835238",
"P  c #965033",
"I  c #9B5133",
"U  c #9D5331",
"Y  c #AB4327",
"T  c #A34129",
"R  c #AE422A",
"E  c #AD4428",
"W  c #AE4528",
"Q  c #AF4728",
"!  c #AF462A",
"~  c #AF4828",
"^  c #A84D2C",
"/  c #B04928",
"(  c #B5502A",
")  c #BE572D",
"_  c #BF592D",
"`  c #A75D32",
"'  c #A95D32",
"]  c #B0622C",
"[  c #B5652D",
"{  c #BE602C",
"}  c #BC6B28",
"|  c #BA732B",
" . c #A16034",
".. c #B46732",
"X. c #B76C33",
"o. c #BF6A30",
"O. c #BF6B30",
"+. c #C35928",
"@. c #C25F2B",
"#. c #C45F2E",
"$. c #C46F24",
"%. c #C2602B",
"&. c #C4632E",
"*. c #C6672D",
"=. c #CC6429",
"-. c #CC652A",
";. c #CD662A",
":. c #CA622E",
">. c #CA672F",
",. c #C7682C",
"<. c #C66A2D",
"1. c #CF692A",
"2. c #C8692C",
"3. c #CC6A2C",
"4. c #CC6A2F",
"5. c #C86F2F",
"6. c #CF6E2C",
"7. c #CE6F2E",
"8. c #CB732E",
"9. c #CB7E2B",
"0. c #D27421",
"q. c #D3732B",
"w. c #D1732E",
"e. c #D1722F",
"r. c #D2772D",
"t. c #D2742E",
"y. c #D2752E",
"u. c #D3752E",
"i. c #D2762F",
"p. c #D4762E",
"a. c #D77D28",
"s. c #D3782D",
"d. c #D5782F",
"f. c #D77D2E",
"g. c #D87D2F",
"h. c #C06C30",
"j. c #C16D30",
"k. c #CE6C30",
"l. c #CF6D30",
"z. c #D17030",
"x. c #D27230",
"c. c #D17931",
"v. c #B7852D",
"b. c #B59329",
"n. c #E8AA14",
"m. c #E9AB16",
"M. c #E9AC15",
"N. c #E6AB1F",
"B. c #EBB119",
"V. c #EBB11B",
"C. c #EBB31F",
"Z. c #ECB41F",
"A. c #ECB51F",
"S. c #EDB71E",
"D. c #EDB81E",
"F. c #ECB91F",
"G. c #EFBC1D",
"H. c #EFBD1D",
"J. c #EFBC1E",
"K. c #F0BE1D",
"L. c #F0BF1D",
"P. c #D58E20",
"I. c #DD8C26",
"U. c #D98529",
"Y. c #D78E28",
"T. c #DC8D28",
"R. c #DF9227",
"E. c #DF9524",
"W. c #DF9526",
"Q. c #D78132",
"!. c #D88436",
"~. c #DD9134",
"^. c #E19B21",
"/. c #E19A23",
"(. c #E19926",
"). c #E39B26",
"_. c #E09229",
"`. c #E19528",
"'. c #E19630",
"]. c #D3A022",
"[. c #DCA221",
"{. c #E6A424",
"}. c #E3AA22",
"|. c #E8AD21",
" X c #E5A62C",
".X c #EBB322",
"XX c #ECB321",
"oX c #EFB920",
"OX c #EDB923",
"+X c #EFBD27",
"@X c #F0BF24",
"#X c #E4A43E",
"$X c #E7AC38",
"%X c #F1C114",
"&X c #F1C11D",
"*X c #F1C21C",
"=X c #F8CC1D",
"-X c #F0C122",
";X c #F1C327",
":X c #F2C527",
">X c #F6D32C",
",X c #F4CD31",
"<X c #F4CF36",
"1X c #F4CF38",
"2X c #F5D039",
"3X c #DCA642",
"4X c #DEAC45",
"5X c #E9B243",
"6X c #E9B945",
"7X c #ECBC45",
"8X c #ECB848",
"9X c #EDC247",
"0X c #F8D841",
"qX c #F8D943",
"wX c #F9DB43",
"eX c #FADC45",
"rX c #FADD46",
"tX c #FDE750",
"yX c #FDE952",
"uX c #FDEA53",
"iX c #FFEC55",
"pX c #FFEC56",
"aX c #FFED56",
"sX c #FFEE57",
"dX c #FFEF57",
"fX c #FFEF58",
"gX c #FFF456",
"hX c #FFF058",
"jX c #FFF15A",
"kX c #FFF45C",
"lX c #FFF45D",
"zX c #FFF55E",
"xX c #FFF65F",
"cX c #FFFA5A",
"vX c #FFFB5A",
"bX c #FFFF5B",
"nX c #FFFF5E",
"mX c #FFFA63",
"MX c #FFFF62",
/* pixels */
"    p p p p p p p p p p p p             p p p p p p p p p p p p ",
"    p p p p p p p p p p p p             p p p p p p p p p p p p ",
"p p     p p p p p p p p     p p p p     p p p p p p p p p p p p ",
"p p     p p p p p p p p     p p p p     p p p p p p p p p p p p ",
"p p p p     p p p p     p p p p p p p p     p p p p p p p p p p ",
"p p p p     p p p p     p p p p p p p p     p p p p p p p p p p ",
"p p p p p p         p p p p p p p p p p p p     p p p p p p p p ",
"p p p p p p         p p p p p p p p p p p p     p p p p p p p p ",
"p p p p p p     p p p p p p p p p p p p p p p p     p p p p p p ",
"p p p p p p     p p p p p j 5.e p p v y.& a p p     p p p p p p ",
"p p p p         p p p p p p m l p p b y.^ < p p p p     p p p p ",
"p p p p         p p p p p p p p p p h q ( 5 p p p p     p p p p ",
"                p p p x 3 4 s p 0 r p p 7 $ p p p p             ",
"                p p + 8 Q ~ k = v.Y.w p p p p p p p             ",
"p p                 9 ~ W / * b.S.G.}.m d p p p p p         p p ",
"p p                 8 ~ W / [.F.A.D.|.8.N p p p p p         p p ",
"p p p p             o 2 E @ ].K.C.J.oXr.> p p p p p     p p p p ",
"p p p p               O 1 p 9.XX=XN.} t c p p p p p     p p p p ",
"p p p p     p p p p p p   . i | P.$.Z p p p p p     p p p p p p ",
"p p p p     p p p p p p     p J R ! G a n ; - M     p p p p p p ",
"p p     p p p p p p d g g g X H g.2.G f ' p.w.] p p p p p p p p ",
"p p     p p p p p p y O.h.o.A { d.t.,.F *.p.w.[ p p p p p p p p ",
"    p p p p p p p L j.6.=.-.+.3.i.e.k.#.7.t. .: p p p p p p p p ",
"    p p p p p p p X.;.Q.6X5X7X!.:.s.(.).u.z.u p p p p p p p p p ",
"p p p p p p p p p U c.9XnXvXMX$X0.E.&XL.W.f.P # p p p p p p     ",
"p p p p p p p p p B 4XnXpXsXuX,X-X@XZ.A.*X`._ D p p p p p p     ",
"p p p p p p p p p V 3XbXsXaXOX0XxXrXV.A.H._.) S p p p p         ",
"p p p p p p p p p z K 8XgX+Xn.qXmXeXM.B.U.l.4.<...p p p         ",
"p p p p p p p p p p 6 '.>Xm.2XyXjXtX0XwX X^.T.x.d.              ",
"p p p p p p p p p , I a./.1XdXjXiXfXlXzX;X%X{.>.%.              ",
"p p p p p p p p % T @.q.~.kXhXaXaXaXsXfX<X.XR.&.C p p p p p     ",
"p p p p p p p p ~ Y _ I.:XsXsXaXaXaXaXaXcX#X1.` p p p p p p     "
};
