/* XPM */
static char *result[] = {
/* columns rows colors chars-per-pixel */
"32 32 228 2 ",
"   c #181425",
".  c #201625",
"X  c #311F26",
"o  c #40313F",
"O  c #41313F",
"+  c #47323D",
"@  c #4E313B",
"#  c #4C333C",
"$  c #4D3B3F",
"%  c #4E3D3F",
"&  c #56343A",
"*  c #57353A",
"=  c #5E3538",
"-  c #5F3638",
";  c #523A3D",
":  c #573E3D",
">  c #5F3A39",
",  c #782C27",
"<  c #733528",
"1  c #6C3735",
"2  c #6F3634",
"3  c #6B3835",
"4  c #6E3C36",
"5  c #683D39",
"6  c #723735",
"7  c #5E433D",
"8  c #64453C",
"9  c #6A463C",
"0  c #6B463C",
"q  c #6C4B3B",
"w  c #744C3A",
"e  c #7B4939",
"r  c #262B44",
"t  c #2A2C43",
"y  c #2B2D43",
"u  c #2E2C42",
"i  c #2E2D42",
"p  c #2F2D42",
"a  c #2E2E43",
"s  c #2F2F43",
"d  c #302E42",
"f  c #362E41",
"g  c #392F40",
"h  c #363242",
"j  c #3C3241",
"k  c #473940",
"l  c #953E2B",
"z  c #953E2C",
"x  c #823E31",
"c  c #A43324",
"v  c #A63727",
"b  c #A83C29",
"n  c #A93D29",
"m  c #92422E",
"M  c #884F36",
"N  c #834E39",
"B  c #8B5035",
"V  c #835238",
"C  c #8F5338",
"Z  c #945133",
"A  c #955B34",
"S  c #AB4327",
"D  c #A44229",
"F  c #A1472B",
"G  c #AB4228",
"H  c #AE4728",
"J  c #AD4828",
"K  c #AE4828",
"L  c #AF4828",
"P  c #B24727",
"I  c #B14829",
"U  c #B34D28",
"Y  c #B84E2D",
"T  c #BB5026",
"R  c #B95725",
"E  c #BB5727",
"W  c #B95D20",
"Q  c #B75229",
"!  c #B4532E",
"~  c #BA562A",
"^  c #BB562B",
"/  c #BC5629",
"(  c #B6582E",
")  c #B65C2E",
"_  c #BE5A2B",
"`  c #BF592D",
"'  c #A15330",
"]  c #A15F34",
"[  c #B16E28",
"{  c #AE6734",
"}  c #BB6435",
"|  c #B86931",
" . c #CA5F2B",
".. c #C06824",
"X. c #C2602B",
"o. c #C2612C",
"O. c #C9632B",
"+. c #CC652A",
"@. c #CD672A",
"#. c #CD682B",
"$. c #C9692D",
"%. c #D06C2D",
"&. c #C77523",
"*. c #C87424",
"=. c #C87425",
"-. c #CE7D25",
";. c #D27627",
":. c #D0702B",
">. c #D0772A",
",. c #D0702D",
"<. c #D1732D",
"1. c #D1722E",
"2. c #D1732E",
"3. c #D1722F",
"4. c #D3762E",
"5. c #D4772E",
"6. c #D4772F",
"7. c #D37829",
"8. c #D47928",
"9. c #D5782F",
"0. c #D67F2C",
"q. c #D97E2F",
"w. c #CC6731",
"e. c #C87430",
"r. c #D1831D",
"t. c #D58D1E",
"y. c #E8AA14",
"u. c #E8AB15",
"i. c #EAAE17",
"p. c #E7A61C",
"a. c #EBB11B",
"s. c #EBB31A",
"d. c #ECB41A",
"f. c #EDB71C",
"g. c #EDB71D",
"h. c #ECB51E",
"j. c #ECB51F",
"k. c #EDB71E",
"l. c #EDB81A",
"z. c #EEBA1D",
"x. c #EFBB1E",
"c. c #EEBA1F",
"v. c #EFBC1D",
"b. c #F2BF1E",
"n. c #DD8C26",
"m. c #D58128",
"M. c #D7802B",
"N. c #D7822B",
"B. c #DA862B",
"V. c #DC872A",
"C. c #DA8A29",
"Z. c #DD8D29",
"A. c #DE9427",
"S. c #DE9029",
"D. c #DA8831",
"F. c #DB8938",
"G. c #DF983A",
"H. c #DA9F39",
"J. c #E29329",
"K. c #E29B2E",
"L. c #E19A37",
"P. c #E8AC21",
"I. c #E9AF21",
"U. c #ECB720",
"Y. c #EEBB20",
"T. c #EEBC26",
"R. c #EDBA2E",
"E. c #F4BE21",
"W. c #E3A23D",
"Q. c #E2A13E",
"!. c #E3A23E",
"~. c #EEBD3E",
"^. c #F2C01D",
"/. c #F3C21C",
"(. c #F3C21E",
"). c #F6C91C",
"_. c #F2C527",
"`. c #F0C028",
"'. c #F2C730",
"]. c #F3CA34",
"[. c #F4CC36",
"{. c #F4CD36",
"}. c #FAD734",
"|. c #EABF4A",
" X c #EECA4D",
".X c #F7DA44",
"XX c #F9DB46",
"oX c #F9DC46",
"OX c #FADE46",
"+X c #F5D54F",
"@X c #F6D74F",
"#X c #FBE044",
"$X c #FAE047",
"%X c #FAE247",
"&X c #FBE049",
"*X c #FAE248",
"=X c #FAE24A",
"-X c #FDE74B",
";X c #FCE44C",
":X c #FCE54E",
">X c #FCEC4E",
",X c #F7E153",
"<X c #FBE551",
"1X c #FDE851",
"2X c #FEE851",
"3X c #FFEC55",
"4X c #FFED56",
"5X c #FDEE56",
"6X c #FFEE57",
"7X c #FFEF57",
"8X c #FFEF58",
"9X c #FFF052",
"0X c #FEF551",
"qX c #FFF158",
"wX c #FFF059",
"eX c #FFF15A",
"rX c #FFF559",
"tX c #FFF35C",
"yX c #FFF45C",
"uX c #FFF55D",
"iX c #FFF75D",
"pX c #FFF75F",
"aX c #FFF95C",
"sX c #FFFF5D",
"dX c #FFFD5E",
"fX c #FFF960",
"gX c #FFFE63",
"hX c #FFFF65",
/* pixels */
"    r r r r r r r r r r r r             r r r r r r r r r r r r ",
"    r r r r r r r r r r r r             r r r r r r r r r r r r ",
"r r     r r r r r r r r     r r r r     r r r r r r r r r r r r ",
"r r     r r r r r r r r     r r r r     r r r r r r r r r r r r ",
"r r r r     r r r r     r r r r r f K +     r r r r r r r r r r ",
"r r r r     r r r r     r r r r r t # p     r r r r r r r r r r ",
"r r r r r r         r r r r r r r r r r r r     r r r r r r r r ",
"r r r r r r         r i * - a j @ r r r r r     r r r r r r r r ",
"r r r r r r     r r r O L D : M F r r r r r r r     r r r r r r ",
"r r r r r r     r r r o J u B 6.] r r r r r r r     r r r r r r ",
"r r r r         r r r t g r x o.{ r r r r r r r r r     r r r r ",
"r r r r         r r r r r r l ' % r r r r r r r r r     r r r r ",
"                r r r r r r = ; r r r r r r r r r r             ",
"                r r r r r r r r r r r r r r r r r r             ",
"r r                 r r r r r r r r r r r s h r r r         r r ",
"r r                 r r r r r r r r r r r w | r r r         r r ",
"r r r r               . m m m & r r r r r V 2.r r r     r r r r ",
"r r r r             X , b G H z > r r r r k 8 r r r     r r r r ",
"r r r r     r r r $ A &.*._ I U ) 0 9 y r r r r     r r r r r r ",
"r r r r     r r r C S.).b.J.Q ^ q.N.N.q d r r r     r r r r r r ",
"r r     r r r r r N C.x.j.^...Y Z.v.z.B.5 t     r r r r r r r r ",
"r r     r r r r r 6 =./.a.l.;.m.g.s.d.V.! 1     r r r r r r r r ",
"    r r r r r r r 2 E K.OX$X+XR.Y.=X*Xe.v < r r r r r r r r r r ",
"    r r r r r r r 4 P F.fXuXaX-XXXiXgX} W [ e 3 r r r r r r r r ",
"r r r r r r r r 7 Z / D.#X7XtX1X:XqX%X( t.E.>.~ r r r r r r     ",
"r r r r r r r r 2.4.3.7.p.oX5X'.T.;Xf.R -.(.I.6.r r r r r r     ",
"r r r r r r r r 2.2.1.,.<.P.c.j.j.U.k.M.w.A.I.2.r r r r         ",
"r r r r r r r r 2.#.G.,X@X<X`.y.a.h.k.8. .:.0.2.r r r r         ",
"r r r r r r r r 2.+.W.sXrXtX&X.X{.u.i.~. X!.%.9.                ",
"r r r r r r r r 5.@.Q.dX4X3XeXpX2X].[.9XhX|.T X.                ",
"r r r r r r r r $.O.L.>X4X4X4X3X8XyXtXwX0XH.c S r r r r r r     ",
"r r r r r r r r L ` n._.6X6X4X4X4X4X4XtX}.r.n L r r r r r r     "
};
