/* XPM */
static char *result[] = {
/* columns rows colors chars-per-pixel */
"32 32 225 2 ",
"   c #181425",
".  c #2C1E26",
"X  c #4C3C3F",
"o  c #4D3C3F",
"O  c #55333A",
"+  c #53353B",
"@  c #57353A",
"#  c #59373A",
"$  c #563F3E",
"%  c #633B29",
"&  c #683D29",
"*  c #603537",
"=  c #6E3231",
"-  c #683536",
";  c #6B3835",
":  c #693F36",
">  c #733434",
",  c #753A34",
"<  c #793A32",
"1  c #7B3D33",
"2  c #4B473D",
"3  c #57403E",
"4  c #58403E",
"5  c #755B22",
"6  c #60433C",
"7  c #63433C",
"8  c #61443C",
"9  c #60463C",
"0  c #684039",
"q  c #6E4539",
"w  c #69463C",
"e  c #6A483B",
"r  c #7B4336",
"t  c #70493A",
"y  c #7E4839",
"u  c #685439",
"i  c #262B44",
"p  c #272C44",
"a  c #2A2C43",
"s  c #2D2D43",
"d  c #2D2E43",
"f  c #2E2E43",
"g  c #292C44",
"h  c #372F40",
"j  c #2F3142",
"k  c #383342",
"l  c #3A3740",
"z  c #3C3541",
"x  c #3E3541",
"c  c #3F3541",
"v  c #3F3641",
"b  c #423640",
"n  c #423740",
"m  c #433740",
"M  c #8B3D2E",
"N  c #AC3F27",
"B  c #A63B28",
"V  c #A93E28",
"C  c #8E412F",
"Z  c #93422E",
"A  c #9C432C",
"S  c #894F38",
"D  c #8D5838",
"F  c #905836",
"G  c #945936",
"H  c #AC4427",
"J  c #AB4328",
"K  c #AC4528",
"L  c #A74E2C",
"P  c #AC4829",
"I  c #AA4B2C",
"U  c #B14A28",
"Y  c #B14A29",
"T  c #B24B28",
"R  c #B24C29",
"E  c #B54F29",
"W  c #B54E2B",
"Q  c #AD542C",
"!  c #B75527",
"~  c #B65129",
"^  c #B75229",
"/  c #B9552A",
"(  c #BA562A",
")  c #BB572A",
"_  c #A75D32",
"`  c #816D33",
"'  c #986F30",
"]  c #AC6333",
"[  c #B76931",
"{  c #BE6E32",
"}  c #C65D27",
"|  c #C25B28",
" . c #C15E2B",
".. c #C95F2B",
"X. c #C2602B",
"o. c #C2612B",
"O. c #CD662C",
"+. c #CD682A",
"@. c #CE6A2B",
"#. c #CF6B2B",
"$. c #CA682D",
"%. c #CB6A2E",
"&. c #CD682C",
"*. c #CE6B2C",
"=. c #CE6B2D",
"-. c #CC6D2F",
";. c #CE6E2F",
":. c #CF6F2F",
">. c #D06A2D",
",. c #C77623",
"<. c #CF7427",
"1. c #CB702F",
"2. c #CF712E",
"3. c #CF722E",
"4. c #CD7D28",
"5. c #CA7F2C",
"6. c #D67927",
"7. c #D27229",
"8. c #D0712F",
"9. c #D0722E",
"0. c #D1732E",
"q. c #D3762D",
"w. c #D0742E",
"e. c #D2742E",
"r. c #D2752E",
"t. c #D3762E",
"y. c #D2762F",
"u. c #D4762E",
"i. c #D4772F",
"p. c #D47C2B",
"a. c #D5782F",
"s. c #D67E2C",
"d. c #C36431",
"f. c #C36C32",
"g. c #D57C34",
"h. c #E6A61A",
"j. c #E7A71C",
"k. c #E6AD1F",
"l. c #E9AF19",
"z. c #EAB41F",
"x. c #ECB51F",
"c. c #ECB61F",
"v. c #EEB818",
"b. c #EDB81D",
"n. c #EEBA1D",
"m. c #EDB91E",
"M. c #EFBC1D",
"N. c #C78328",
"B. c #C68E28",
"V. c #D88225",
"C. c #DD8F22",
"Z. c #DA8A25",
"A. c #D9852B",
"S. c #DB8C28",
"D. c #DB8D28",
"F. c #DA8D2A",
"G. c #DE9221",
"H. c #DF9222",
"J. c #DD9621",
"K. c #DF9F24",
"L. c #CC8339",
"P. c #DB8D36",
"I. c #DB8A3B",
"U. c #DC9036",
"Y. c #E39F23",
"T. c #E19C36",
"R. c #E19A3A",
"E. c #E4A720",
"W. c #E6A821",
"Q. c #E7AA22",
"!. c #E9AE21",
"~. c #E9AF21",
"^. c #E4A02B",
"/. c #EDB820",
"(. c #EEBB25",
"). c #F3BE20",
"_. c #F1C01A",
"`. c #F2C41C",
"'. c #F5C91B",
"]. c #F3C729",
"[. c #F1C42E",
"{. c #F3C83D",
"}. c #F8D932",
"|. c #F6D23B",
" X c #F5D33D",
".X c #F7D63F",
"XX c #E8AE42",
"oX c #EAB844",
"OX c #EFC147",
"+X c #EEC247",
"@X c #EFC449",
"#X c #F2CA49",
"$X c #F0CB4D",
"%X c #F1C84E",
"&X c #F7DB47",
"*X c #F8D943",
"=X c #F8DA43",
"-X c #FADF45",
";X c #F5DB4C",
":X c #F9E243",
">X c #F6E051",
",X c #FDE750",
"<X c #FFEC56",
"1X c #FEED56",
"2X c #FFED56",
"3X c #FFEE56",
"4X c #FFEF56",
"5X c #FFEE57",
"6X c #FFF157",
"7X c #FFF257",
"8X c #FFF059",
"9X c #FFF258",
"0X c #FFF15A",
"qX c #FFF25B",
"wX c #FFF45D",
"eX c #FFF95A",
"rX c #FFF95B",
"tX c #FFFB5B",
"yX c #FFFD5A",
"uX c #FFFC5B",
"iX c #FFFE5B",
"pX c #FFF95F",
"aX c #FFFF5F",
"sX c #FFF962",
"dX c #FFFF63",
/* pixels */
"    i i i i i i i i i i i i             i i i i i i i i i i i i ",
"    i i i i i i i i i i i i             i i i i i i i i i i i i ",
"i i     i i i i i i i i     i i i i     i i i i i i i i i i i i ",
"i i     i i i i i i i i     i i i i     i i i i i i i i i i i i ",
"i i i i     i i i i     i i i i i i i i     i i i i i i i i i i ",
"i i i i     i i i i     i i i i i i i i     i i i i i i i i i i ",
"i i i i i i         i i i i Z < i i i i i i     i i i i i i i i ",
"i i i i i i         i i i i > : i i i i i i     i i i i i i i i ",
"i i i i i i     i i i i i i i i j b p i i i i i     i i i i i i ",
"i i i i i i     i i i i i i i p u -.f i i i i i     i i i i i i ",
"i i i i         i i i i i i i ` K.f.f i i i i i i i     i i i i ",
"i i i i         i i i i i i i 2 ' W s i i i i i i i     i i i i ",
"                i i i i i i i i l - a i i i i i i i             ",
"                i i i g 3 f i i i i i o $ m i i i i             ",
"i i                 d 4 0.n i i i i i [ 0.G i i i i         i i ",
"i i                 8 1.9.x i i i i i ] 0.F i i i i         i i ",
"i i i i             % 0.3.c i i i i i { D z i i i i     i i i i ",
"i i i i             . & w.i 9 S w i i Q 0 i i i i i     i i i i ",
"i i i i     i i i i k t :.5 B.S.5.6 i A * i i i     i i i i i i ",
"i i i i     i i i i e q.A.!.M.`.W.:.X L , h i i     i i i i i i ",
"i i     i i i i i i 7 p.z.c.x.m.Y.:.e.~ K 1     i i i i i i i i ",
"i i     i i i i i i # T ! k._.G.&.*.r.^ B r     i i i i i i i i ",
"    i i i i i i i i @ J V <.{.;X$XOX#.N ,.N.y i i i i i i i i i ",
"    i i i i i i i i O R  ...%XaXuX7XoXd.J.).4.; i i i i i i i i ",
"i i i i i i i i i i + E a.O.@XeX<X4XiXI.H.'.E.( i i i i i i     ",
"i i i i i i i i x v q U 0.7.#XrX2X3X9XU.C.n.Q.i.i i i i i i     ",
"i i i i i i i i 3.y.o.Y e.j.-XqX2X5X8X].V.D.~.0.i i i i         ",
"i i i i i i i i 0.e.2.$.+.h.b.*XsX,X(.v.Z.8.s.i.i i i i         ",
"i i i i i i i i a.t.=.g.+X&X/.l. X1X.X:XT.>.;.)                 ",
"i i i i i i i i X.%.6.^.tXpX=X[.|.8XqXdXXX} / H                 ",
"i i i i i i i i M I F.}.5X2X0XwX0X2X3X>XR.| P C i i i i i i     ",
"i i i i i i i i i = L.yX2X2X2X2X2X3X6XP.@.u._ i i i i i i i     "
};
