/* XPM */
static char *result[] = {
/* columns rows colors chars-per-pixel */
"32 32 220 2 ",
"   c #181425",
".  c #5D3728",
"X  c #5C3829",
"o  c #4E333B",
"O  c #4C323C",
"+  c #4F3C3F",
"@  c #4E3D3F",
"#  c #55333A",
"$  c #55363B",
"%  c #583439",
"&  c #593439",
"*  c #5C3438",
"=  c #533A3D",
"-  c #5E3D3B",
";  c #6F2F26",
":  c #6D3127",
">  c #653E39",
",  c #773432",
"<  c #743733",
"1  c #733B34",
"2  c #5D413D",
"3  c #5E433D",
"4  c #61443C",
"5  c #69483B",
"6  c #68483C",
"7  c #754734",
"8  c #764D3A",
"9  c #794F39",
"0  c #7C4F39",
"q  c #262B44",
"w  c #272B44",
"e  c #2A2C43",
"r  c #2A2D43",
"t  c #2D2D43",
"y  c #2F2D42",
"u  c #2D2E43",
"i  c #2E2F43",
"p  c #282B44",
"a  c #282C44",
"s  c #292C44",
"d  c #373242",
"f  c #383141",
"g  c #383342",
"h  c #3D3441",
"j  c #8A392F",
"k  c #933C2E",
"l  c #983B2A",
"z  c #9B3F2A",
"x  c #813D32",
"c  c #9B462D",
"v  c #9E462D",
"b  c #824132",
"n  c #875036",
"m  c #8B5537",
"M  c #8F5736",
"N  c #855F37",
"B  c #8E5837",
"V  c #81523A",
"C  c #925936",
"Z  c #935936",
"A  c #9B5830",
"S  c #AA4127",
"D  c #AB4327",
"F  c #AE4627",
"G  c #AA4028",
"H  c #AD412A",
"J  c #AB4428",
"K  c #A94729",
"L  c #AD4628",
"P  c #AE4728",
"I  c #AF4828",
"U  c #AF4928",
"Y  c #B14A28",
"T  c #B24B29",
"R  c #B0482A",
"E  c #B34E28",
"W  c #B44E29",
"Q  c #B44F29",
"!  c #B54F29",
"~  c #B54F2A",
"^  c #A3572B",
"/  c #B75627",
"(  c #B65129",
")  c #B7502A",
"_  c #B7522A",
"`  c #B9542A",
"'  c #BD562C",
"]  c #BD5B2B",
"[  c #BF5D2B",
"{  c #BB5B2C",
"}  c #B05D30",
"|  c #AE6231",
" . c #AD6432",
".. c #AD6433",
"X. c #B06231",
"o. c #B56030",
"O. c #B66732",
"+. c #B86630",
"@. c #B26833",
"#. c #C15728",
"$. c #C05E2B",
"%. c #CA5D29",
"&. c #C95F2C",
"*. c #C2602B",
"=. c #C3602B",
"-. c #C3602C",
";. c #C4612D",
":. c #C5632C",
">. c #C6612E",
",. c #CB6529",
"<. c #CC662A",
"1. c #CD672B",
"2. c #CE672A",
"3. c #CA632E",
"4. c #C36E2A",
"5. c #C66E2F",
"6. c #C9692D",
"7. c #CA6A2D",
"8. c #CA6B2D",
"9. c #CA682E",
"0. c #CB6B2E",
"q. c #CE6A2D",
"w. c #CB6C2D",
"e. c #C86F2F",
"r. c #CC6C2D",
"t. c #CE6F2E",
"y. c #CF6F2F",
"u. c #CC7C22",
"i. c #CA702F",
"p. c #CF732C",
"a. c #CF722D",
"s. c #D57B25",
"d. c #D2702A",
"f. c #D0712D",
"g. c #D0722E",
"h. c #D1722E",
"j. c #D1732E",
"k. c #D1742E",
"l. c #D2742E",
"z. c #D3752E",
"x. c #D3762E",
"c. c #D5762E",
"v. c #D6772F",
"b. c #D5782F",
"n. c #D5792F",
"m. c #D6782E",
"M. c #D57A2E",
"N. c #CE6C30",
"B. c #D06E30",
"V. c #D16F30",
"C. c #D27031",
"Z. c #D37331",
"A. c #D07630",
"S. c #D27831",
"D. c #D67F36",
"F. c #9B802E",
"G. c #9F872D",
"H. c #BD8927",
"J. c #DD8E1C",
"K. c #ECB41E",
"L. c #EEB91E",
"P. c #EEB81F",
"I. c #EFBC1D",
"U. c #EFBD1E",
"Y. c #D98621",
"T. c #DA8824",
"R. c #DA8924",
"E. c #D8832B",
"W. c #DD8F28",
"Q. c #DD9024",
"!. c #DD9028",
"~. c #DF9734",
"^. c #DE993D",
"/. c #E29927",
"(. c #E29B26",
"). c #E39C26",
"_. c #E09833",
"`. c #E09B3B",
"'. c #E29F3A",
"]. c #CCA225",
"[. c #E2A222",
"{. c #E6A126",
"}. c #E9AC21",
"|. c #E9AE20",
" X c #EAB020",
".X c #EBB022",
"XX c #ECB320",
"oX c #ECB620",
"OX c #E2A039",
"+X c #EAB537",
"@X c #F4C41B",
"#X c #F1C21C",
"$X c #F3C51C",
"%X c #F2C324",
"&X c #F3C729",
"*X c #F3C829",
"=X c #F4CC36",
"-X c #E6A943",
";X c #E7AE41",
":X c #EBB644",
">X c #F8DD54",
",X c #FAE445",
"<X c #FCE54E",
"1X c #FEF04E",
"2X c #FFEC55",
"3X c #FFEC56",
"4X c #FFED56",
"5X c #FFEE57",
"6X c #FFEF58",
"7X c #FDF351",
"8X c #FFF252",
"9X c #FFF059",
"0X c #FFF55B",
"qX c #FFF55C",
"wX c #FFF75C",
"eX c #FFF95A",
"rX c #FFFA5A",
"tX c #FFFC5B",
"yX c #FFFF5E",
"uX c #FFFF63",
/* pixels */
"    q q q q q q q q q q q q             q q q q q q q q q q q q ",
"    q q q q q q q q q q q q             q q q q q q q q q q q q ",
"q q     q q q q q q q q     q q q q     q q q q q q q q q q q q ",
"q q     q q q q q q q q     q q q q     q q q q q q q q q q q q ",
"q q q q     q q q q     q q q q q q q q     q q q q q q q q q q ",
"q q q q     q q q q     q q q q q q q q     q q q q q q q q q q ",
"q q q q q q         q q q q q q q q q q q q     q q q q q q q q ",
"q q q q q q         q q q q q q q q q q q q     q q q q q q q q ",
"q q q q q q     q q q q q q q q q q q q q q q q     q q q q q q ",
"q q q q q q     q q q q q p K % q w a q q q q q     q q q q q q ",
"q q q q         q q q q q p I * q @ O.u q q q q q q     q q q q ",
"q q q q         q q q q q w o f 2 @.A.i q q q q q q     q q q q ",
"                q q q q q q q q V 9.{ t q q q q q q             ",
"                q q q q q q q q N 4., e q q q q q q             ",
"q q                 q u g d s q G.H.q q q q q q q q         q q ",
"q q                 q 4 i.e.h q F.].q q q q q q q q         q q ",
"q q q q               . l.h.y q 7 ^ q q C ..8 q q q     q q q q ",
"q q q q               X b.g.b < k j q q X.z.Z q q q     q q q q ",
"q q q q     q q q q q - :.h.Q J G x q & o.m.B q     q q q q q q ",
"q q q q     q q q q q $ ` j.T R / A + P 8.f.n q     q q q q q q ",
"q q     q q q q q q r 5 z.h.E ;.{..Xr.Y w.] ;   q q q q q q q q ",
"q q     q q q q q q 0 5.g.k.[. XXXL.}.a.~ L :   q q q q q q q q ",
"    q q q q q q q q m j.h.n.P.$X#X|.E.x.0.! z 1 q q q q q q q q ",
"    q q q q q q q q M x.g.[ W./.Q.s.&.<.c.w.( c q q q q q q q q ",
"q q q q q q q q q q 6  .$.D ' 3.D.^.`.`.S.v.=.v 3 q q q q q     ",
"q q q q q q q q q q q = S P F #.:XyXeXtX~.d.-._ j.q q q q q     ",
"q q q q q q q q q q q # P U r.2.;XrX5X6X&XT.N.j.j.q q q         ",
"q q q q q q q q q q > l W w.y.J.=XqX4X4X7XOX1.l.j.q q q         ",
"q q q q q q q q q 9 +.) H B.%.+X1X6X4X4XuX-X,.l.b.              ",
"q q q q q q q q q | Z.p.u.!.'.>XwX2X4X5X,X_.q.t.*.              ",
"q q q q q q q q O } M.(.@XU.8X0X3X4X5X6X%XY.C.6.D q q q q q     ",
"q q q q q q q q I >.).I.K.oX<X9X4X4X5X6X*XR.V.7.I q q q q q     "
};
