/* XPM */
static char *result[] = {
/* columns rows colors chars-per-pixel */
"32 32 229 2 ",
"   c #181425",
".  c #1A1525",
"X  c #201825",
"o  c #432326",
"O  c #532826",
"+  c #4D333C",
"@  c #57343A",
"#  c #593539",
"$  c #5B3639",
"%  c #513D3E",
"&  c #503C3F",
"*  c #523E3E",
"=  c #773327",
"-  c #733B34",
";  c #733E35",
":  c #7A3B32",
">  c #7B3B32",
",  c #5F403C",
"<  c #5C423D",
"1  c #5F433D",
"2  c #64453C",
"3  c #6A483B",
"4  c #6B493C",
"5  c #7A4235",
"6  c #7E4E3A",
"7  c #7C5039",
"8  c #262B44",
"9  c #272B44",
"0  c #272C44",
"q  c #2A2C43",
"w  c #2A2D43",
"e  c #2C2C43",
"r  c #2C2E43",
"t  c #2E2E43",
"y  c #282C44",
"u  c #352E41",
"i  c #392E40",
"p  c #382F40",
"a  c #373041",
"s  c #953E27",
"d  c #933429",
"f  c #993A28",
"g  c #823E31",
"h  c #843D30",
"j  c #A43324",
"k  c #A03926",
"l  c #96412D",
"z  c #9F432A",
"x  c #9D442C",
"c  c #834633",
"v  c #8A4F36",
"b  c #8F5736",
"n  c #865338",
"m  c #975533",
"M  c #945936",
"N  c #9F5832",
"B  c #AC4427",
"V  c #A94729",
"C  c #AC4428",
"Z  c #AD4528",
"A  c #AE4728",
"S  c #AE472B",
"D  c #A94829",
"F  c #AF4828",
"G  c #AF4928",
"H  c #B44E20",
"J  c #B54B27",
"K  c #B24C28",
"L  c #B44E29",
"P  c #B54F29",
"I  c #B74E28",
"U  c #A1572B",
"Y  c #AB5F2C",
"T  c #B75229",
"R  c #B4502C",
"E  c #BC522C",
"W  c #BC592A",
"Q  c #A45831",
"!  c #A25F34",
"~  c #BB602D",
"^  c #BA632F",
"/  c #BD692D",
"(  c #A16135",
")  c #AB6333",
"_  c #AC6B31",
"`  c #BF6532",
"'  c #BA6A31",
"]  c #BF6B30",
"[  c #C65B29",
"{  c #C65F29",
"}  c #C15C2D",
"|  c #C55F2C",
" . c #C26C22",
".. c #C6602A",
"X. c #C9622A",
"o. c #C8622B",
"O. c #CD6629",
"+. c #CC662A",
"@. c #CE662C",
"#. c #C06A2F",
"$. c #CE692B",
"%. c #CE6B2A",
"&. c #CF6B2B",
"*. c #CF6D2B",
"=. c #CF6F2A",
"-. c #CA692C",
";. c #CA6A2D",
":. c #CC6E2D",
">. c #CD6E2D",
",. c #CF6D2E",
"<. c #D06C2B",
"1. c #CA702F",
"2. c #CC712F",
"3. c #CF712E",
"4. c #D1732E",
"5. c #D1742E",
"6. c #D2742E",
"7. c #D4762E",
"8. c #D37E29",
"9. c #D3782F",
"0. c #D6792F",
"q. c #CF6B31",
"w. c #CA6D30",
"e. c #CE6C30",
"r. c #D16F30",
"t. c #C37131",
"y. c #C47031",
"u. c #C57233",
"i. c #C97030",
"p. c #D77C31",
"a. c #DA821F",
"s. c #D68A1E",
"d. c #E8AA15",
"f. c #E6A518",
"g. c #E7A81C",
"h. c #EEB815",
"j. c #EEB91A",
"k. c #DC8923",
"l. c #DC8E25",
"z. c #DD8E28",
"x. c #DF9624",
"c. c #DF9626",
"v. c #DF9B23",
"b. c #DE9028",
"n. c #D88535",
"m. c #DA8734",
"M. c #D88833",
"N. c #DA8B35",
"B. c #DC9036",
"V. c #DD9037",
"C. c #DE953C",
"Z. c #E09826",
"A. c #E19926",
"S. c #E29C25",
"D. c #E29B32",
"F. c #E09739",
"G. c #E09D3C",
"H. c #E6A821",
"J. c #E6A822",
"K. c #EAB020",
"L. c #EAB221",
"P. c #EEBC26",
"I. c #EFBE27",
"U. c #ECB829",
"Y. c #E3A037",
"T. c #EAAE30",
"R. c #E0A83A",
"E. c #F3C61A",
"W. c #FBD51A",
"Q. c #F0C020",
"!. c #F1C42C",
"~. c #F1C52D",
"^. c #F1C52F",
"/. c #FCD82D",
"(. c #F1C530",
"). c #F1C235",
"_. c #F1C538",
"`. c #F5D13A",
"'. c #F7E03C",
"]. c #E3AB42",
"[. c #ECBC46",
"{. c #EAC24A",
"}. c #F0C24A",
"|. c #F2C94A",
" X c #F1CB4C",
".X c #F8D740",
"XX c #F9DB45",
"oX c #FADF44",
"OX c #FADE47",
"+X c #F3D24B",
"@X c #F4D04C",
"#X c #F6D24D",
"$X c #FCE944",
"%X c #F9E24C",
"&X c #FFEE4C",
"*X c #FDE750",
"=X c #FCE952",
"-X c #F9E954",
";X c #FFEC55",
":X c #FEEE55",
">X c #FFEC56",
",X c #FFED56",
"<X c #FEED57",
"1X c #FFED57",
"2X c #FFEE57",
"3X c #FEEB59",
"4X c #FFF057",
"5X c #FFF157",
"6X c #FEF158",
"7X c #FFF158",
"8X c #FFF159",
"9X c #FFF05A",
"0X c #FFF25B",
"qX c #FFF659",
"wX c #FFF759",
"eX c #FEF25C",
"rX c #FFF35C",
"tX c #FFF65D",
"yX c #FFF55E",
"uX c #FFF95A",
"iX c #FFFA5A",
"pX c #FFFD5B",
"aX c #FFFF5C",
"sX c #FFFD5E",
"dX c #FFFE5E",
"fX c #FFF760",
"gX c #FFFF61",
"hX c #FFFF62",
"jX c #FFFF63",
/* pixels */
"    8 8 8 8 8 8 8 8 8 8 8 8             8 8 8 8 8 8 8 8 8 8 8 8 ",
"    8 8 8 8 8 8 8 8 8 8 8 8             8 8 8 8 8 8 8 8 8 8 8 8 ",
"8 8     8 8 8 8 8 8 8 8     8 8 8 8     8 8 8 8 8 8 8 8 8 8 8 8 ",
"8 8     8 8 8 8 8 8 8 8     8 8 8 8     8 8 8 8 8 8 8 8 8 8 8 8 ",
"8 8 8 8     8 8 8 8     8 8 8 8 8 8 8 8     8 8 8 8 8 8 8 8 8 8 ",
"8 8 8 8     8 8 8 8     8 8 8 8 8 8 8 8     8 8 8 8 8 8 8 8 8 8 ",
"8 8 8 8 8 8         8 8 8 8 8 8 1 2.t 8 8 8     8 8 8 8 8 8 8 8 ",
"8 8 8 8 8 8         8 8 8 8 8 8 % ! r 8 8 8     8 8 8 8 8 8 8 8 ",
"8 8 8 8 8 8     8 8 8 8 8 8 8 8 8 8 8 8 8 8 8 8     8 8 8 8 8 8 ",
"8 8 8 8 8 8     8 8 8 8 8 8 8 8 8 8 8 y 9 8 8 8     8 8 8 8 8 8 ",
"8 8 8 8         8 8 8 8 8 8 8 8 8 8 8 ) 2 8 8 8 8 8     8 8 8 8 ",
"8 8 8 8         8 8 8 8 0 M * 8 8 8 8 1.] 3 8 8 8 8     8 8 8 8 ",
"                8 8 8 8 y 0., 8 8 8 8 4 y.( 8 8 8 8             ",
"                8 8 8 8 8 ^ ; i 8 8 8 8 m N 8 8 8 8             ",
"8 8                 8 9 u x K ; 8 8 8 8 : > 8 8 8 8         8 8 ",
"8 8                 8 p D ;.4.7 8 8 8 8 q q 8 8 8 8         8 8 ",
"8 8 8 8             o s G >.7.t.Q h 8 8 8 8 8 8 8 8     8 8 8 8 ",
"8 8 8 8             O A G :.<.O.o.} b t 8 8 8 8 8 8     8 8 8 8 ",
"8 8 8 8     8 8 8 8 $ A G -.F.].Y.k.%.n a 8 8 8     8 8 8 8 8 8 ",
"8 8 8 8     8 8 8 8 + l F X.#XjX&XI.B.p.5 a 8 8     8 8 8 8 8 8 ",
"8 8     8 8 8 8 8 8 8 p V ..|.uX1X7XqXV.J c X X 8 8 8 8 8 8 8 8 ",
"8 8     8 8 8 8 8 8 8 8 e f {.aX>X5XpXu.j R #./ 8 8 8 8 8 8 8 8 ",
"    8 8 8 8 8 8 8 8 8 w g k i. XgX3XG.S  .H.A.4.8 8 8 8 8 8 8 8 ",
"    8 8 8 8 8 8 8 & 6 v B W [ D.'._.*.E v.W.K.4.8 8 8 8 8 8 8 8 ",
"8 8 8 8 8 8 8 8 < _ z.8.I &.q.l.h.f.=.r.b.J.c.4.8 8 8 8 8 8     ",
"8 8 8 8 8 8 8 8 6.S.E.L.m.n.9.x.Q.U.M.5.,.e.w.' 8 8 8 8 8 8     ",
"8 8 8 8 8 8 8 8 4.Z.j.I.<XeX(.d.^.8X6XN.$.4.Y . 8 8 8 8         ",
"8 8 8 8 8 8 8 8 P s./.=X4X7X:X~.P.rX5X-XC.@.U   8 8 8 8         ",
"8 8 8 8 8 8 8 8 Z H R.hX,X;XfX*XXX2X,XsX).a.~ =                 ",
"8 8 8 8 8 8 8 8 - d ` +XwXtX.XOXyX,X,X9X$XT.| C                 ",
"8 8 8 8 8 8 8 8 8 # z 3.@X%X!.`.0X,X,X;XdX}.{ T 8 8 8 8 8 8     ",
"8 8 8 8 8 8 8 8 8 8 @ L 6.g.oX0X,X,X,X,XiX[.+.4.8 8 8 8 8 8     "
};
