/* XPM */
static char *result[] = {
/* columns rows colors chars-per-pixel */
"32 32 216 2 ",
"   c #181425",
".  c #1C1625",
"X  c #443125",
"o  c #402F3E",
"O  c #41303E",
"+  c #46323D",
"@  c #4B323C",
"#  c #4A333D",
"$  c #4E3C3F",
"%  c #583439",
"&  c #593539",
"*  c #58363A",
"=  c #513B3E",
"-  c #503D3F",
";  c #6A3936",
":  c #5F4B23",
">  c #5C423D",
",  c #77462B",
"<  c #65433B",
"1  c #6B4239",
"2  c #6E4639",
"3  c #7D4936",
"4  c #262B44",
"5  c #272B44",
"6  c #2B2C43",
"7  c #2B2D43",
"8  c #2F2E43",
"9  c #282B44",
"0  c #302E42",
"q  c #302F43",
"w  c #362E41",
"e  c #3C3341",
"r  c #3C3441",
"t  c #423540",
"y  c #483A40",
"u  c #923F2D",
"i  c #A02E21",
"p  c #A53627",
"a  c #A23E27",
"s  c #A53729",
"d  c #AC3F28",
"f  c #8E402F",
"g  c #8E412F",
"h  c #93422E",
"j  c #8D4732",
"k  c #824836",
"l  c #8F5836",
"z  c #815139",
"x  c #855439",
"c  c #9B5B33",
"v  c #9C5A35",
"b  c #9A5C35",
"n  c #AB4327",
"m  c #AC4427",
"M  c #A74329",
"N  c #A5452A",
"B  c #A6462A",
"V  c #A7462A",
"C  c #AD4628",
"Z  c #AE4728",
"A  c #AF4828",
"S  c #B34625",
"D  c #B14827",
"F  c #B04829",
"G  c #B14C2B",
"H  c #B64D2B",
"J  c #B75526",
"K  c #B65427",
"L  c #B4522A",
"P  c #B3572F",
"I  c #BB572A",
"U  c #BF5528",
"Y  c #BD572D",
"T  c #B7582E",
"R  c #A15F34",
"E  c #957330",
"W  c #A86333",
"Q  c #B36433",
"!  c #C45E2C",
"~  c #C26B24",
"^  c #C5642C",
"/  c #CC662A",
"(  c #CD672A",
")  c #CC672E",
"_  c #CE6A28",
"`  c #CF6C2A",
"'  c #CB6E2F",
"]  c #CE6C2F",
"[  c #CF6D2F",
"{  c #D06C2C",
"}  c #D37822",
"|  c #D0712D",
" . c #D2702C",
".. c #D1722D",
"X. c #D0702E",
"o. c #D0722E",
"O. c #D1732E",
"+. c #D1732F",
"@. c #D1742E",
"#. c #D4772F",
"$. c #D3782E",
"%. c #C36631",
"&. c #CD6930",
"*. c #D27531",
"=. c #D37730",
"-. c #D27830",
";. c #D47B32",
":. c #D57C30",
">. c #A2832C",
",. c #B78723",
"<. c #E29B1F",
"1. c #E6A417",
"2. c #E6A51E",
"3. c #EDB517",
"4. c #EDB61C",
"5. c #ECB51F",
"6. c #ECB61E",
"7. c #EDB81B",
"8. c #EEB91C",
"9. c #EFBD1E",
"0. c #F0BF1D",
"q. c #CE872A",
"w. c #D18223",
"e. c #DA8527",
"r. c #DD8C23",
"t. c #DE8E24",
"y. c #DD9021",
"u. c #D99421",
"i. c #D99423",
"p. c #DF9526",
"a. c #DC9A21",
"s. c #DF9D21",
"d. c #DF9B24",
"f. c #DF932E",
"g. c #CC883D",
"h. c #D68235",
"j. c #D88534",
"k. c #D38C35",
"l. c #D98835",
"z. c #DB8F35",
"x. c #DA8C36",
"c. c #DC9031",
"v. c #D8973D",
"b. c #E29C23",
"n. c #E59F23",
"m. c #E09925",
"M. c #E29C24",
"N. c #E29D24",
"B. c #E29D25",
"V. c #E39D25",
"C. c #E29C3C",
"Z. c #E29E3C",
"A. c #E3A321",
"S. c #E4A122",
"D. c #E4A123",
"F. c #E4A224",
"G. c #E8AB21",
"H. c #ECB721",
"J. c #EFB821",
"K. c #EFBF27",
"L. c #ECB62A",
"P. c #ECB52F",
"I. c #E2A03E",
"U. c #E3A23E",
"Y. c #EAB039",
"T. c #F1C21C",
"R. c #F3C31D",
"E. c #F3C11E",
"W. c #F3C41C",
"Q. c #F4C41E",
"!. c #F7C918",
"~. c #F2C321",
"^. c #F1C223",
"/. c #F3C521",
"(. c #F1C325",
"). c #F2C62F",
"_. c #F3C829",
"`. c #F5CD2A",
"'. c #F3CB35",
"]. c #F3C93C",
"[. c #F3CD3D",
"{. c #F5CF3D",
"}. c #F7D839",
"|. c #F7D83C",
" X c #E5A843",
".X c #E9B143",
"XX c #FADE42",
"oX c #F6D54D",
"OX c #FCF14F",
"+X c #F7E254",
"@X c #FAE152",
"#X c #FBE152",
"$X c #FDE750",
"%X c #FAE454",
"&X c #F7E855",
"*X c #FCE850",
"=X c #FEEA52",
"-X c #FFEC55",
";X c #FFED56",
":X c #FFEE56",
">X c #FFEE57",
",X c #FFEF57",
"<X c #F8E059",
"1X c #FEEA5B",
"2X c #FFEF58",
"3X c #FFF059",
"4X c #FFF15A",
"5X c #FFF25B",
"6X c #FFF458",
"7X c #FFF35C",
"8X c #FFF859",
"9X c #FFFF5C",
"0X c #FFFF5E",
"qX c #FFFF5F",
"wX c #FFFF60",
"eX c #FFFF64",
/* pixels */
"    4 4 4 4 4 4 4 4 4 4 4 4             4 4 4 4 4 4 4 4 4 4 4 4 ",
"    4 4 4 4 4 4 4 4 4 4 4 4             4 4 4 4 4 4 4 4 4 4 4 4 ",
"4 4     4 4 4 4 4 4 4 4     4 4 4 4     4 4 4 4 4 4 4 4 4 4 4 4 ",
"4 4     4 4 4 4 4 4 4 4     4 4 4 4     4 4 4 4 4 4 4 4 4 4 4 4 ",
"4 4 4 4     4 4 4 4     4 4 4 4 4 4 4 4     4 4 4 4 4 4 4 4 4 4 ",
"4 4 4 4     4 4 4 4     4 9 V % 4 4 4 4     4 4 4 4 4 4 4 4 4 4 ",
"4 4 4 4 4 4         4 4 4 5 ; o 4 y x 7 4 4     4 4 4 4 4 4 4 4 ",
"4 4 4 4 4 4         4 4 4 4 4 4 4 < ^ 8 4 4     4 4 4 4 4 4 4 4 ",
"4 4 4 4 4 4     4 4 4 4 4 4 4 4 4 @ u 6 4 4 4 4     4 4 4 4 4 4 ",
"4 4 4 4 4 4     4 4 4 4 4 4 4 4 4 4 4 4 4 4 4 4     4 4 4 4 4 4 ",
"4 4 4 4         4 4 4 4 4 4 4 4 4 4 4 4 4 4 4 4 4 4     4 4 4 4 ",
"4 4 4 4         4 4 4 4 4 4 4 4 4 4 4 4 4 4 4 4 4 4     4 4 4 4 ",
"                4 4 4 4 4 4 4 * # 4 4 4 4 4 4 4 4 4             ",
"                4 4 4 4 4 4 + B h O 4 4 4 $ $ 4 4 4             ",
"4 4                 4 4 5 w N A Z f 4 4 4 b b 4 4 4         4 4 ",
"4 4                 4 4 e M C A n j 4 4 4 7 7 4 4 4         4 4 ",
"4 4 4 4               X Q s.J s H %.v 4 4 4 4 4 4 4     4 4 4 4 ",
"4 4 4 4             : ,.F.R.K ~ d.n.y.l r 4 4 4 4 4     4 4 4 4 ",
"4 4 4 4     4 4 4 4 >.0.9.m.F a.!.~.'.$.t 4 4 4     4 4 4 4 4 4 ",
"4 4 4 4     4 4 4 4 E G.V.) d w.J.|.1X:.& 0 4 4     4 4 4 4 4 4 ",
"4 4     4 4 4 4 4 4 z ' +.=.L U .X0X#X-.D 1 .   4 4 4 4 4 4 4 4 ",
"4 4     4 4 4 4 4 4 q 2 j.@X&Xh.I.0X%XG p T ,   4 4 4 4 4 4 4 4 ",
"    4 4 4 4 4 4 4 4 4 = x.9XeXP.].<Xz.i.u.A.q.R 4 4 4 4 4 4 4 4 ",
"    4 4 4 4 4 4 4 4 - c ;. X[.^.`.Y._ E.Q.W.N.O.4 4 4 4 4 4 4 4 ",
"4 4 4 4 4 4 4 4 4 > W X.` } 1.4.7.<.+.B.5.T.M.O.4 4 4 4 4 4     ",
"4 4 4 4 4 4 4 4 4 O.| *.c.(.K.H.8.S.] &.b.6.p.O.4 4 4 4 4 4     ",
"4 4 4 4 4 4 4 4 4 O./ Z.8X-X4X).3.D.[ o...O.@.O.4 4 4 4         ",
"4 4 4 4 4 4 4 4 4 #.( U.wX>X2X$X*X{.2.oX+XC.{ #.4 4 4 4         ",
"4 4 4 4 4 4 4 4 4 I ! f.}.>X;X3X7X=XXX6X0Xv.S I                 ",
"4 4 4 4 4 4 4 4 4 m Y r./.>X>X;X-X2X5X;XqXg.i m                 ",
"4 4 4 4 4 4 4 4 4 g P e.L.>X>X;X;X;X;X;XOXk.a g 4 4 4 4 4 4     ",
"4 4 4 4 4 4 4 4 4 4 3  .l.:X,X;X;X;X>X2X_.t.k 4 4 4 4 4 4 4     "
};
