/* XPM */
static char *result[] = {
/* columns rows colors chars-per-pixel */
"32 32 229 2 ",
"   c #181425",
".  c #1E1725",
"X  c #241A26",
"o  c #3F2827",
"O  c #4E2626",
"+  c #502D27",
"@  c #503027",
"#  c #4F323B",
"$  c #4C333C",
"%  c #4D333C",
"&  c #4E333C",
"*  c #4C3C3F",
"=  c #54353B",
"-  c #5A3438",
";  c #5B3539",
":  c #743E28",
">  c #6A3536",
",  c #683936",
"<  c #6B3B36",
"1  c #6F3834",
"2  c #6D3936",
"3  c #723833",
"4  c #753933",
"5  c #783C33",
"6  c #5C423D",
"7  c #674039",
"8  c #63453C",
"9  c #68473B",
"0  c #6B493B",
"q  c #7F4731",
"w  c #7A4937",
"e  c #764D3A",
"r  c #7A4F39",
"t  c #7E5139",
"y  c #262B44",
"u  c #272B44",
"i  c #272C44",
"p  c #2B2C43",
"a  c #2C2C43",
"s  c #2E2D42",
"d  c #2F2F43",
"f  c #282B44",
"g  c #282C44",
"h  c #292C44",
"j  c #343042",
"k  c #373242",
"l  c #413740",
"z  c #413741",
"x  c #473940",
"c  c #803426",
"v  c #843927",
"b  c #8F3D2D",
"n  c #943D27",
"m  c #9D3B29",
"M  c #983E2D",
"N  c #803E32",
"B  c #A53F26",
"V  c #A53829",
"C  c #AA3E29",
"Z  c #8D412F",
"A  c #864829",
"S  c #834D2B",
"D  c #93412D",
"F  c #95402C",
"G  c #9A412B",
"H  c #9F432B",
"J  c #99452D",
"K  c #97522B",
"L  c #844331",
"P  c #8F4030",
"I  c #8A4C30",
"U  c #8F4B35",
"Y  c #8C5637",
"T  c #805139",
"R  c #905836",
"E  c #975A36",
"W  c #9F5933",
"Q  c #9F5E34",
"!  c #AB4427",
"~  c #A5462A",
"^  c #A1472C",
"/  c #AB4129",
"(  c #AA4328",
")  c #A94729",
"_  c #AB4729",
"`  c #AD4628",
"'  c #AF462A",
"]  c #A14929",
"[  c #AE4828",
"{  c #AF4828",
"}  c #AD4C2A",
"|  c #B44E29",
" . c #B54F29",
".. c #B55427",
"X. c #B95027",
"o. c #B85524",
"O. c #B95B26",
"+. c #B75329",
"@. c #BB572A",
"#. c #BE5B2B",
"$. c #BD5E28",
"%. c #BE5F29",
"&. c #BB592D",
"*. c #A65C32",
"=. c #BE602D",
"-. c #BE622C",
";. c #A76133",
":. c #A26234",
">. c #AC6333",
",. c #B76131",
"<. c #B26632",
"1. c #B66432",
"2. c #BA6632",
"3. c #BE6731",
"4. c #B86831",
"5. c #BD6D32",
"6. c #CC7C1D",
"7. c #CC6B26",
"8. c #CE6D27",
"9. c #C5642C",
"0. c #C4662E",
"q. c #C4672E",
"w. c #C8622B",
"e. c #CA672F",
"r. c #CD662F",
"t. c #C76B2F",
"y. c #C56C2E",
"u. c #C76F2F",
"i. c #CE6A2A",
"p. c #CB6A2E",
"a. c #CE6C2D",
"s. c #CE6F2E",
"d. c #CF6E2F",
"f. c #CA7825",
"g. c #CC7428",
"h. c #CD712C",
"j. c #D47723",
"k. c #D37724",
"l. c #D0702E",
"z. c #D0722E",
"x. c #D1722E",
"c. c #D1732E",
"v. c #D1722F",
"b. c #D2752D",
"n. c #D3772D",
"m. c #D1742E",
"M. c #D2742E",
"N. c #D4762D",
"B. c #D4742F",
"V. c #D4772F",
"C. c #D3782D",
"Z. c #D4782E",
"A. c #CE6C30",
"S. c #D06F30",
"D. c #D06E32",
"F. c #D17130",
"G. c #D07031",
"H. c #AE8A2B",
"J. c #D8921D",
"K. c #E7A81D",
"L. c #EFBA17",
"P. c #EBB218",
"I. c #E8B01F",
"U. c #EFBB1B",
"Y. c #F3BF1D",
"T. c #F0BC1E",
"R. c #D58129",
"E. c #D7802B",
"W. c #D8812B",
"Q. c #D98428",
"!. c #DC8B2A",
"~. c #DA9521",
"^. c #DE9D21",
"/. c #DC902F",
"(. c #CD893A",
"). c #DC8C39",
"_. c #DE9137",
"`. c #DD953D",
"'. c #E19925",
"]. c #E49A26",
"[. c #E39F27",
"{. c #E09129",
"}. c #E29F3C",
"|. c #E4A222",
" X c #E5A323",
".X c #E5A423",
"XX c #E5A224",
"oX c #E6A922",
"OX c #E9AE21",
"+X c #EAA825",
"@X c #E7A928",
"#X c #ECB320",
"$X c #E9AF3C",
"%X c #E9B531",
"&X c #F5C71B",
"*X c #F1C01C",
"=X c #F6CA1B",
"-X c #F7CD1C",
";X c #F3C92E",
":X c #FAD532",
">X c #F6D33B",
",X c #F7D93E",
"<X c #FBE03C",
"1X c #FAE33C",
"2X c #E5AA43",
"3X c #F7D749",
"4X c #F8D74C",
"5X c #FBE046",
"6X c #FEE84F",
"7X c #FEEA51",
"8X c #FDE854",
"9X c #FFEC56",
"0X c #FFED56",
"qX c #FFED57",
"wX c #FFEE56",
"eX c #FFEE57",
"rX c #FFEF57",
"tX c #FFEF58",
"yX c #FEF055",
"uX c #FFF157",
"iX c #FFF059",
"pX c #FFF25A",
"aX c #FFF25B",
"sX c #FFF45C",
"dX c #FFFA5A",
"fX c #FFFF5E",
"gX c #FFFF5F",
"hX c #FFF860",
"jX c #FFFD60",
/* pixels */
"    y y y y y y y y y y y y             y y y y y y y y y y y y ",
"    y y y y y y y y y y y y             y y y y y y y y y y y y ",
"y y     y y y y y y y y     y y y y     y y y y y y y y y y y y ",
"y y     y y y y y y y y     y y y y     y y y y y y y y y y y y ",
"y y y y     y y y y     y y y y y y y y     y y y y y y y y y y ",
"y y y y     y y y y     y y y y y y y y     y y y y y y y y y y ",
"y y y y y y         y y y y y y y = _ a y y     y y y y y y y y ",
"y y y y y y         y y y y y y y ; { s y y     y y y y y y y y ",
"y y y y y y     y y y y y y y y y $ D p y y y y     y y y y y y ",
"y y y y y y     y y u f u y g g i y y y y y y y     y y y y y y ",
"y y y y         y y , M I y :.1.0 y y y y y y y y y     y y y y ",
"y y y y         y y N / O.H.oXE.2.r y y y y y y y y     y y y y ",
"                y y & > q T.-X{.d.4.y y y y y y y y             ",
"                y y y y j  X^.g.,.t y y y y y y y y             ",
"y y                 y y z 3.' m 7 y y y y y y y y y         y y ",
"y y                 y y i d } - h y y y y y y y y y         y y ",
"y y y y                 y y ) % y y y y y y y y y y     y y y y ",
"y y y y                 y f H Z # y y y e Y 8 y y y     y y y y ",
"y y y y     y y y y x 0 @   J [ 3 y y y 5.M.E y     y y y y y y ",
"y y y y     y y y l Q z.y.o ^ ( < y y y *.s.R y     y y y y y y ",
"y y     y y y y y >.c.m.n.b.+.! : . y y b =.S   y y y y y y y y ",
"y y     y y y y y <.S.!.#XOXI.R.t.A y y G w X   y y y y y y y y ",
"    y y y y y y y * U f.&XP.L.Q.D.-.c v B + y y y y y y y y y y ",
"    y y y y y y y y 2 o.].>X,X@Xj.w.#.{ @.K T 9 y y y y y y y y ",
"y y y y y y y y y y 1 &.2XsXhX<X%X).a.` p.B.l.u.6 y y y y y     ",
"y y y y y y y y y k L (.fX0X9XiXgX4X8.| h.W.C.x.M.y y y y y     ",
"y y y y y y y y y W i.}.dX0X0X0XaX5XK.x..X*X'.A.c.y y y         ",
"y y y y y y y y F q.N.v.`.wXrX0XeXyX3XG.|.=X+Xe. .y y y         ",
"y y y y y y y y 9.s.F.k.XXeXrX0X0XpX8X[.Y.~.$.] O               ",
"y y y y y y y y V.Z.r./.1XeXqX0X0XiX6XU.J...V n                 ",
"y y y y y y y y ;.0.7.$XjX0X0X0X0XtX7X;X%.C ~ 5 y y y y y y     ",
"y y y y y y y y y P 6.:XaX0X0X0X0X0XwXuX_.X.4 y y y y y y y     "
};
