/* XPM */
static char *result[] = {
/* columns rows colors chars-per-pixel */
"32 32 233 2 ",
"   c #181425",
".  c #1E1725",
"X  c #251B26",
"o  c #261B26",
"O  c #3D303F",
"+  c #492526",
"@  c #402927",
"#  c #592926",
"$  c #412F3E",
"%  c #452F3E",
"&  c #46333E",
"*  c #4D333C",
"=  c #503A3D",
"-  c #523D3E",
";  c #6E3B37",
":  c #633838",
">  c #763932",
",  c #743A33",
"<  c #733B34",
"1  c #703A36",
"2  c #723F36",
"3  c #793A32",
"4  c #58423E",
"5  c #5F413C",
"6  c #5F433D",
"7  c #624037",
"8  c #6F4037",
"9  c #7E4333",
"0  c #7D4F39",
"q  c #262B44",
"w  c #272B44",
"e  c #272C44",
"r  c #2A2D43",
"t  c #2C2E43",
"y  c #2E2E43",
"u  c #2F2E43",
"i  c #282B44",
"p  c #282C44",
"a  c #322E42",
"s  c #352D40",
"d  c #342E41",
"f  c #392F40",
"g  c #3A3442",
"h  c #3D3A40",
"j  c #443840",
"k  c #443940",
"l  c #6B5441",
"z  c #8A3727",
"x  c #8F3D27",
"c  c #873D2F",
"v  c #8C3C2D",
"b  c #813E31",
"n  c #A13329",
"m  c #AB3F2A",
"M  c #92422E",
"N  c #93422E",
"B  c #9C442C",
"V  c #984C2A",
"C  c #98552B",
"Z  c #98512D",
"A  c #894030",
"S  c #8B4731",
"D  c #8B5133",
"F  c #805239",
"G  c #8A5738",
"H  c #955032",
"J  c #9D5130",
"K  c #9F5732",
"L  c #965A36",
"P  c #A94026",
"I  c #AA4227",
"U  c #AB4327",
"Y  c #AC4427",
"T  c #AD4727",
"R  c #AA4129",
"E  c #AC412A",
"W  c #AE422B",
"Q  c #AD4428",
"!  c #AE4628",
"~  c #AF4828",
"^  c #AF4928",
"/  c #B04925",
"(  c #B24E27",
")  c #B04729",
"_  c #B14C28",
"`  c #B44E29",
"'  c #B55625",
"]  c #BD5427",
"[  c #BC5B27",
"{  c #B75129",
"}  c #B75229",
"|  c #BB5129",
" . c #BB5629",
".. c #BA552B",
"X. c #BA562A",
"o. c #BD552D",
"O. c #BD592A",
"+. c #BD5B2B",
"@. c #886B30",
"#. c #9D7230",
"$. c #AB682E",
"%. c #B6602D",
"&. c #AD6433",
"*. c #B06532",
"=. c #B66933",
"-. c #BE6B30",
";. c #C3632B",
":. c #C46629",
">. c #C4632C",
",. c #C5632C",
"<. c #CD662B",
"1. c #C9652E",
"2. c #C8642F",
"3. c #CE662F",
"4. c #CE6A2B",
"5. c #CB6B2D",
"6. c #CB6A2E",
"7. c #CF6B2C",
"8. c #CC6B2E",
"9. c #CC6F2C",
"0. c #CE6C2E",
"q. c #CE6C2F",
"w. c #D06F2D",
"e. c #D06F2F",
"r. c #CA702F",
"t. c #CD702D",
"y. c #CC712F",
"u. c #CE722E",
"i. c #D0702C",
"p. c #D0712E",
"a. c #D0722E",
"s. c #D1722E",
"d. c #D1732E",
"f. c #D3742D",
"g. c #D3752E",
"h. c #D4772C",
"j. c #D4762F",
"k. c #D57C28",
"l. c #D6782F",
"z. c #D67A2F",
"x. c #D67E2C",
"c. c #CE6C30",
"v. c #CE6D30",
"b. c #CF6D31",
"n. c #D06B32",
"m. c #D37730",
"M. c #D37835",
"N. c #E8AA1D",
"B. c #E8AA1E",
"V. c #ECB51F",
"C. c #ECB61F",
"Z. c #EDB71F",
"A. c #EDB819",
"S. c #EDB81F",
"D. c #EEBA1F",
"F. c #EFBE1D",
"G. c #F1BD1A",
"H. c #F0BE1D",
"J. c #F0BD1E",
"K. c #D28325",
"L. c #D78E23",
"P. c #DB8B23",
"I. c #D7802C",
"U. c #D9862A",
"Y. c #D98828",
"T. c #DA8B28",
"R. c #DD8A2B",
"E. c #DD8E28",
"W. c #DA9121",
"Q. c #D89421",
"!. c #DB9821",
"~. c #DE9C21",
"^. c #DE9E20",
"/. c #DB9925",
"(. c #D78332",
"). c #DB8230",
"_. c #E19920",
"`. c #E09922",
"'. c #E19A25",
"]. c #E09926",
"[. c #E19926",
"{. c #E49F26",
"}. c #E19529",
"|. c #E1A221",
" X c #E4A123",
".X c #E5A125",
"XX c #E8AB22",
"oX c #E5A22A",
"OX c #E7AC2B",
"+X c #EBB020",
"@X c #EFB720",
"#X c #E5A533",
"$X c #E5A43D",
"%X c #F0C017",
"&X c #F2C21C",
"*X c #F4C41D",
"=X c #F4C61D",
"-X c #F7CB1B",
";X c #F5C81C",
":X c #F6CB1C",
">X c #F3C925",
",X c #F0C12B",
"<X c #F2C72A",
"1X c #F8D636",
"2X c #B39748",
"3X c #E6A840",
"4X c #E5AA40",
"5X c #EBB342",
"6X c #EFC348",
"7X c #F0C548",
"8X c #F1C74A",
"9X c #F9DF52",
"0X c #FBE242",
"qX c #FDE951",
"wX c #FEEA50",
"eX c #FEEC52",
"rX c #FDEA55",
"tX c #FEEC54",
"yX c #FDED56",
"uX c #FFEC56",
"iX c #FFED56",
"pX c #FFEE57",
"aX c #FFEF57",
"sX c #FFEE58",
"dX c #FFEF58",
"fX c #FFF257",
"gX c #FFF058",
"hX c #FFF35A",
"jX c #FFF55A",
"kX c #FFF45C",
"lX c #FFF65D",
"zX c #FFF859",
"xX c #FFF95A",
/* pixels */
"    q q q q q q q q q q q q             q q q q q q q q q q q q ",
"    q q q q q q q q q q q q             q q q q q q q q q q q q ",
"q q     q q q q q q q q     q q q q     q q q q q q q q q q q q ",
"q q     q q q q q q q q     q q q q     q q q q q q q q q q q q ",
"q q q q     q q q q     q q q q q q q q     q q q q q q q q q q ",
"q q q q     q q q q     q q q q 6 y.y q     q q q q q q q q q q ",
"q q q q q q         q q q q q q k 0 r q q q     q q q q q q q q ",
"q q q q q q         q q q q q q q q q q q q     q q q q q q q q ",
"q q q q q q     q q q q q q q q q q q q q q q q     q q q q q q ",
"q q q q q q     q q q q q i i w q q q q q q q q     q q q q q q ",
"q q q q         q q q q q A B : q q q q q q q q q q     q q q q ",
"q q q q         q q q f N ~ ^ > q q q q q q q q q q     q q q q ",
"                q q q d 3 ~ c & q q q q q q q q q q             ",
"                q q q q q b O u 4 - p q q q q q q q             ",
"q q                 q q q q y G a.r.t q q q q q q q         q q ",
"q q                 q q q q L t.w.-.e q q q q q q q         q q ",
"q q q q               X &.y K 4X6X5.*.a q q q q q q     q q q q ",
"q q q q             @ C d.g = 2XrX4.l.S % q q q q q     q q q q ",
"q q q q     q q q q 5 g.u.o q l 5Xi.,.E 7 q q q     q q q q q q ",
"q q q q     q q q s 8 z.p.+ $ 9 7.>.Y ( @.h q q     q q q q q q ",
"q q     q q q q q , X.j.s.` I ;.9.T Q |.=X#..   q q q q q q q q ",
"q q     q q q q q < ! { d._ o.E.D.~.R ^.:X/.Z   q q q q q q q q ",
"    q q q q q q q ; W 1.s.) K.@XJ.Z.!.Y.U.I.=.q q q q q q q q q ",
"    q q q q q q F $.L.}.q.m Q.*XC.F.;XI.n.6.J q q q q q q q q q ",
"q q q q q q q q d.{.-XV.T...W.G.N.`. Xx.8.X.v q q q q q q q     ",
"q q q q q q q q d.[.H.S.+Xh.oX>XOXM.v.j. .P M q q q q q q q     ",
"q q q q q q q q d.].&XXXd.<.7XzXfX9Xm.f.O.U x   q q q q         ",
"q q q q q q q q j D ' [ b.8XyXgXhXqXB.k.e.+.z   q q q q         ",
"q q q q q q q q q 1 n / _.wXjXuXpXtX0X(.3.0.V                   ",
"q q q q q q q q q 2 | :.1XeXsXiXiXaXlX#XP.R.%.#                 ",
"q q q q q q q q * H ).3XkXdXiXiXiXpXdX<X%X.X2.} q q q q q q     ",
"q q q q q q q q ~ ] $XxXiXiXiXiXiXpXdX,XA.'.c.d.q q q q q q     "
};
